<svg width="217" height="114" viewBox="0 0 217 114" fill="none" xmlns="http://www.w3.org/2000/svg">
<g filter="url(#filter0_d_321_4621)">
<rect x="32" width="153" height="48" rx="20" fill="#2563EB"/>
</g>
<path d="M88.1847 30.1792C87.4338 30.1792 86.7426 30.0213 86.1111 29.7056C85.4882 29.3899 84.989 28.8565 84.6135 28.1056L85.8551 27.4016C86.1111 27.8283 86.4226 28.1653 86.7895 28.4128C87.1564 28.6517 87.6386 28.7712 88.2359 28.7712C88.8332 28.7712 89.2514 28.6645 89.4903 28.4512C89.7378 28.2293 89.8615 27.9307 89.8615 27.5552C89.8615 27.3163 89.806 27.1115 89.6951 26.9408C89.5927 26.7701 89.3708 26.6123 89.0295 26.4672C88.6967 26.3136 88.1804 26.16 87.4807 26.0064C86.653 25.8101 86.0386 25.4987 85.6375 25.072C85.245 24.6453 85.0487 24.1035 85.0487 23.4464C85.0487 22.9259 85.1724 22.4693 85.4199 22.0768C85.6759 21.6757 86.03 21.3643 86.4823 21.1424C86.9431 20.9205 87.4807 20.8096 88.0951 20.8096C88.9058 20.8096 89.5884 20.9888 90.1431 21.3472C90.6978 21.6971 91.1202 22.1109 91.4103 22.5888L90.2455 23.4848C90.1004 23.28 89.9298 23.0837 89.7335 22.896C89.5372 22.6997 89.3068 22.5419 89.0423 22.4224C88.7778 22.2944 88.4578 22.2304 88.0823 22.2304C87.6386 22.2304 87.2759 22.3285 86.9943 22.5248C86.7212 22.7125 86.5847 22.9984 86.5847 23.3824C86.5847 23.5531 86.6231 23.7195 86.6999 23.8816C86.7852 24.0352 86.9644 24.1845 87.2375 24.3296C87.5191 24.4747 87.95 24.6155 88.5303 24.752C89.5543 24.9824 90.2924 25.328 90.7447 25.7888C91.197 26.2496 91.4231 26.8299 91.4231 27.5296C91.4231 28.3829 91.1244 29.04 90.5271 29.5008C89.9383 29.9531 89.1575 30.1792 88.1847 30.1792ZM92.9338 30V21.04H94.4058V30H92.9338ZM99.9333 30.2048C99.1226 30.2048 98.4016 30.0128 97.7701 29.6288C97.1472 29.2448 96.6565 28.7029 96.2981 28.0032C95.9482 27.2949 95.7733 26.4672 95.7733 25.52C95.7733 24.5643 95.9482 23.7365 96.2981 23.0368C96.6565 22.3285 97.1472 21.7824 97.7701 21.3984C98.4016 21.0059 99.1226 20.8096 99.9333 20.8096C100.599 20.8096 101.209 20.9291 101.764 21.168C102.327 21.3984 102.792 21.6971 103.159 22.064L102.225 23.216C101.969 22.9344 101.636 22.704 101.226 22.5248C100.825 22.3456 100.394 22.256 99.9333 22.256C99.3957 22.256 98.9306 22.3925 98.5381 22.6656C98.1541 22.9387 97.8554 23.3227 97.6421 23.8176C97.4288 24.304 97.3221 24.8715 97.3221 25.52C97.3221 26.16 97.4288 26.7275 97.6421 27.2224C97.8554 27.7088 98.1541 28.0885 98.5381 28.3616C98.9306 28.6347 99.3957 28.7712 99.9333 28.7712C100.334 28.7712 100.667 28.7328 100.932 28.656C101.205 28.5707 101.444 28.4683 101.649 28.3488V26.4288H100.177V25.0464H103.146V29.3216C102.754 29.5947 102.276 29.8123 101.713 29.9744C101.158 30.128 100.565 30.2048 99.9333 30.2048ZM104.759 30V21.04H106.231L110.455 27.4016V21.04H111.952V30H110.532L106.231 23.4592V30H104.759ZM120.662 30.1664C119.544 30.1664 118.69 29.872 118.102 29.2832C117.513 28.6859 117.218 27.7941 117.218 26.608V21.04H118.716V26.5312C118.716 27.2992 118.887 27.8581 119.228 28.208C119.578 28.5493 120.056 28.72 120.662 28.72C121.267 28.72 121.741 28.5493 122.082 28.208C122.424 27.8581 122.594 27.2992 122.594 26.5312V21.04H124.079V26.608C124.079 27.7941 123.789 28.6859 123.209 29.2832C122.628 29.872 121.779 30.1664 120.662 30.1664ZM125.796 30V21.04H129.892C130.729 21.04 131.39 21.2363 131.876 21.6288C132.371 22.0213 132.619 22.6827 132.619 23.6128C132.619 24.5429 132.371 25.2085 131.876 25.6096C131.39 26.0107 130.729 26.2112 129.892 26.2112H127.268V30H125.796ZM127.268 24.8288H129.687C130.123 24.8288 130.46 24.7349 130.699 24.5472C130.938 24.3595 131.057 24.048 131.057 23.6128C131.057 23.1861 130.938 22.8789 130.699 22.6912C130.46 22.5035 130.123 22.4096 129.687 22.4096H127.268V24.8288Z" fill="white"/>
<defs>
<filter id="filter0_d_321_4621" x="0" y="0" width="217" height="114" filterUnits="userSpaceOnUse" color-interpolation-filters="sRGB">
<feFlood flood-opacity="0" result="BackgroundImageFix"/>
<feColorMatrix in="SourceAlpha" type="matrix" values="0 0 0 0 0 0 0 0 0 0 0 0 0 0 0 0 0 0 127 0" result="hardAlpha"/>
<feMorphology radius="8" operator="erode" in="SourceAlpha" result="effect1_dropShadow_321_4621"/>
<feOffset dy="34"/>
<feGaussianBlur stdDeviation="20"/>
<feColorMatrix type="matrix" values="0 0 0 0 0.482353 0 0 0 0 0.462745 0 0 0 0 0.945098 0 0 0 0.239216 0"/>
<feBlend mode="normal" in2="BackgroundImageFix" result="effect1_dropShadow_321_4621"/>
<feBlend mode="normal" in="SourceGraphic" in2="effect1_dropShadow_321_4621" result="shape"/>
</filter>
</defs>
</svg>
