<svg width="24" height="24" viewBox="0 0 24 24" fill="none" xmlns="http://www.w3.org/2000/svg">
<path d="M0 4C0 1.79086 1.79086 0 4 0H20C22.2091 0 24 1.79086 24 4V20C24 22.2091 22.2091 24 20 24H4C1.79086 24 0 22.2091 0 20V4Z" fill="#E5E7EB"/>
<path d="M2 20V12C2 11.4696 2.21071 10.9609 2.58579 10.5858C2.96086 10.2107 3.46957 10 4 10H20C20.5304 10 21.0391 10.2107 21.4142 10.5858C21.7893 10.9609 22 11.4696 22 12V20" fill="#E5E7EB"/>
<path d="M4 10V6C4 5.46957 4.21071 4.96086 4.58579 4.58579C4.96086 4.21071 5.46957 4 6 4H18C18.5304 4 19.0391 4.21071 19.4142 4.58579C19.7893 4.96086 20 5.46957 20 6V10" fill="#E5E7EB"/>
<path d="M12 4V10Z" fill="#E5E7EB"/>
<path d="M2 18H22Z" fill="#E5E7EB"/>
<path d="M3 18V11C3 10.5359 3.18964 10.0908 3.52721 9.76256C3.86477 9.43437 4.32261 9.25 4.8 9.25M4.8 9.25H19.2M4.8 9.25V5.75C4.8 5.28587 4.98964 4.84075 5.32721 4.51256C5.66477 4.18437 6.12261 4 6.6 4H17.4C17.8774 4 18.3352 4.18437 18.6728 4.51256C19.0104 4.84075 19.2 5.28587 19.2 5.75V9.25M19.2 9.25C19.6774 9.25 20.1352 9.43437 20.4728 9.76256C20.8104 10.0908 21 10.5359 21 11V18M12 4V9.25M3 16.25H21" stroke="#1F2937" stroke-width="2" stroke-linecap="round" stroke-linejoin="round"/>
</svg>
