<svg width="27" height="30" viewBox="0 0 27 30" fill="none" xmlns="http://www.w3.org/2000/svg">
<path d="M14.6682 26.5909C15.041 25.9388 15.867 25.7152 16.5126 26.0915C17.1583 26.4681 17.3798 27.3024 17.007 27.9545C16.6517 28.5762 16.1405 29.0923 15.5251 29.4514C14.9096 29.8103 14.2108 29.9999 13.5001 30C12.7892 30 12.0907 29.8103 11.475 29.4514C10.8593 29.0923 10.3473 28.5764 9.99183 27.9545C9.61913 27.3024 9.84059 26.4681 10.4862 26.0915C11.1319 25.7151 11.9579 25.9388 12.3307 26.5909C12.4492 26.7981 12.6199 26.9706 12.8251 27.0903C13.0302 27.2098 13.2633 27.2727 13.5001 27.2727C13.7369 27.2726 13.97 27.2099 14.1751 27.0903C14.3801 26.9707 14.5498 26.798 14.6682 26.5909Z" fill="#1F2937"/>
<path d="M20.2491 9.54545C20.2491 7.7374 19.5385 6.0034 18.2729 4.72479C17.0069 3.44613 15.2892 2.72727 13.4989 2.72727C11.7088 2.72736 9.99217 3.44621 8.72634 4.72479C7.46053 6.00343 6.74874 7.73724 6.74874 9.54545C6.74874 12.7558 6.25057 14.9976 5.44353 16.7232C4.64638 18.4276 3.58856 19.528 2.69994 20.4545H24.2992C23.4088 19.5275 22.3524 18.4265 21.5557 16.7232C20.7484 14.9972 20.2491 12.7556 20.2491 9.54545ZM22.9492 9.54545C22.9492 12.47 23.4027 14.2894 23.996 15.558C24.4421 16.5117 24.9919 17.2122 25.6176 17.8977L26.2676 18.5875L26.2966 18.6195C26.6488 19.0104 26.8812 19.496 26.965 20.0178C27.0488 20.5392 26.9813 21.074 26.7699 21.5572C26.5583 22.0404 26.2116 22.4514 25.7732 22.7397C25.3894 22.9921 24.949 23.142 24.4944 23.1752L24.2992 23.1818H2.69862C2.17532 23.1814 1.66291 23.0272 1.22465 22.7384C0.786379 22.4495 0.440377 22.0382 0.229265 21.5545C0.0182193 21.0709 -0.049037 20.5354 0.0354601 20.0138C0.12 19.4924 0.352725 19.0072 0.705206 18.6168L0.732892 18.5862C1.62993 17.6508 2.40713 16.8296 3.00185 15.558C3.59513 14.2894 4.04866 12.4701 4.04866 9.54545C4.04866 7.01384 5.04503 4.58531 6.8173 2.79519C8.58944 1.00546 10.9929 8.88441e-05 13.4989 0C16.0052 0 18.4096 1.00517 20.1819 2.79519C21.9542 4.58531 22.9492 7.01384 22.9492 9.54545Z" fill="#1F2937"/>
</svg>
