<svg width="107" height="46" viewBox="0 0 107 46" fill="none" xmlns="http://www.w3.org/2000/svg">
<rect width="107" height="46" rx="20" fill="#E5E7EB"/>
<path d="M17.3439 29.663L15.8625 28.1886L21.023 23.0036L15.838 17.8432L17.3124 16.3618L22.4974 21.5222L27.6579 16.3373L29.1393 17.8117L23.9788 22.9966L29.1637 28.1571L27.6893 29.6385L22.5044 24.4781L17.3439 29.663Z" fill="#F8FAFC"/>
<path d="M38.3053 23.368C38.3053 22.2587 38.5453 21.272 39.0253 20.408C39.5053 19.5333 40.172 18.856 41.0253 18.376C41.8893 17.8853 42.8653 17.64 43.9533 17.64C45.2867 17.64 46.428 17.992 47.3773 18.696C48.3267 19.4 48.9613 20.36 49.2813 21.576H46.2733C46.0493 21.1067 45.7293 20.7493 45.3133 20.504C44.908 20.2587 44.444 20.136 43.9213 20.136C43.0787 20.136 42.396 20.4293 41.8733 21.016C41.3507 21.6027 41.0893 22.3867 41.0893 23.368C41.0893 24.3493 41.3507 25.1333 41.8733 25.72C42.396 26.3067 43.0787 26.6 43.9213 26.6C44.444 26.6 44.908 26.4773 45.3133 26.232C45.7293 25.9867 46.0493 25.6293 46.2733 25.16H49.2813C48.9613 26.376 48.3267 27.336 47.3773 28.04C46.428 28.7333 45.2867 29.08 43.9533 29.08C42.8653 29.08 41.8893 28.84 41.0253 28.36C40.172 27.8693 39.5053 27.192 39.0253 26.328C38.5453 25.464 38.3053 24.4773 38.3053 23.368ZM50.4128 24.52C50.4128 23.6027 50.5835 22.7973 50.9248 22.104C51.2768 21.4107 51.7515 20.8773 52.3488 20.504C52.9462 20.1307 53.6128 19.944 54.3488 19.944C54.9782 19.944 55.5275 20.072 55.9968 20.328C56.4768 20.584 56.8448 20.92 57.1008 21.336V20.072H59.8368V29H57.1008V27.736C56.8342 28.152 56.4608 28.488 55.9808 28.744C55.5115 29 54.9622 29.128 54.3328 29.128C53.6075 29.128 52.9462 28.9413 52.3488 28.568C51.7515 28.184 51.2768 27.6453 50.9248 26.952C50.5835 26.248 50.4128 25.4373 50.4128 24.52ZM57.1008 24.536C57.1008 23.8533 56.9088 23.3147 56.5248 22.92C56.1515 22.5253 55.6928 22.328 55.1488 22.328C54.6048 22.328 54.1408 22.5253 53.7568 22.92C53.3835 23.304 53.1968 23.8373 53.1968 24.52C53.1968 25.2027 53.3835 25.7467 53.7568 26.152C54.1408 26.5467 54.6048 26.744 55.1488 26.744C55.6928 26.744 56.1515 26.5467 56.5248 26.152C56.9088 25.7573 57.1008 25.2187 57.1008 24.536ZM67.2562 19.976C68.3016 19.976 69.1336 20.3173 69.7522 21C70.3816 21.672 70.6962 22.6 70.6962 23.784V29H67.9762V24.152C67.9762 23.5547 67.8216 23.0907 67.5122 22.76C67.2029 22.4293 66.7869 22.264 66.2642 22.264C65.7416 22.264 65.3256 22.4293 65.0162 22.76C64.7069 23.0907 64.5522 23.5547 64.5522 24.152V29H61.8162V20.072H64.5522V21.256C64.8296 20.8613 65.2029 20.552 65.6722 20.328C66.1416 20.0933 66.6696 19.976 67.2562 19.976ZM72.0535 24.536C72.0535 23.608 72.2401 22.7973 72.6135 22.104C72.9975 21.4107 73.5255 20.8773 74.1975 20.504C74.8801 20.1307 75.6588 19.944 76.5335 19.944C77.6535 19.944 78.5868 20.2373 79.3335 20.824C80.0908 21.4107 80.5868 22.2373 80.8215 23.304H77.9095C77.6641 22.6213 77.1895 22.28 76.4855 22.28C75.9841 22.28 75.5841 22.4773 75.2855 22.872C74.9868 23.256 74.8375 23.8107 74.8375 24.536C74.8375 25.2613 74.9868 25.8213 75.2855 26.216C75.5841 26.6 75.9841 26.792 76.4855 26.792C77.1895 26.792 77.6641 26.4507 77.9095 25.768H80.8215C80.5868 26.8133 80.0908 27.6347 79.3335 28.232C78.5761 28.8293 77.6428 29.128 76.5335 29.128C75.6588 29.128 74.8801 28.9413 74.1975 28.568C73.5255 28.1947 72.9975 27.6613 72.6135 26.968C72.2401 26.2747 72.0535 25.464 72.0535 24.536ZM90.701 24.392C90.701 24.648 90.685 24.9147 90.653 25.192H84.461C84.5036 25.7467 84.6796 26.1733 84.989 26.472C85.309 26.76 85.6983 26.904 86.157 26.904C86.8396 26.904 87.3143 26.616 87.581 26.04H90.493C90.3436 26.6267 90.0716 27.1547 89.677 27.624C89.293 28.0933 88.8076 28.4613 88.221 28.728C87.6343 28.9947 86.9783 29.128 86.253 29.128C85.3783 29.128 84.5996 28.9413 83.917 28.568C83.2343 28.1947 82.701 27.6613 82.317 26.968C81.933 26.2747 81.741 25.464 81.741 24.536C81.741 23.608 81.9276 22.7973 82.301 22.104C82.685 21.4107 83.2183 20.8773 83.901 20.504C84.5836 20.1307 85.3676 19.944 86.253 19.944C87.117 19.944 87.885 20.1253 88.557 20.488C89.229 20.8507 89.7516 21.368 90.125 22.04C90.509 22.712 90.701 23.496 90.701 24.392ZM87.901 23.672C87.901 23.2027 87.741 22.8293 87.421 22.552C87.101 22.2747 86.701 22.136 86.221 22.136C85.7623 22.136 85.373 22.2693 85.053 22.536C84.7436 22.8027 84.5516 23.1813 84.477 23.672H87.901ZM94.8803 17.16V29H92.1443V17.16H94.8803Z" fill="#F8FAFC"/>
</svg>
