<svg width="117" height="42" viewBox="0 0 117 42" fill="none" xmlns="http://www.w3.org/2000/svg">
<rect width="117" height="42" rx="20" fill="#2563EB"/>
<path d="M35 20V22H28V29H26V22H19V20H26V13H28V20H35Z" fill="white"/>
<path d="M42.9733 21.368C42.9733 20.2587 43.2133 19.272 43.6933 18.408C44.1733 17.5333 44.84 16.856 45.6933 16.376C46.5573 15.8853 47.5333 15.64 48.6213 15.64C49.9546 15.64 51.096 15.992 52.0453 16.696C52.9946 17.4 53.6293 18.36 53.9493 19.576H50.9413C50.7173 19.1067 50.3973 18.7493 49.9813 18.504C49.576 18.2587 49.112 18.136 48.5893 18.136C47.7466 18.136 47.064 18.4293 46.5413 19.016C46.0186 19.6027 45.7573 20.3867 45.7573 21.368C45.7573 22.3493 46.0186 23.1333 46.5413 23.72C47.064 24.3067 47.7466 24.6 48.5893 24.6C49.112 24.6 49.576 24.4773 49.9813 24.232C50.3973 23.9867 50.7173 23.6293 50.9413 23.16H53.9493C53.6293 24.376 52.9946 25.336 52.0453 26.04C51.096 26.7333 49.9546 27.08 48.6213 27.08C47.5333 27.08 46.5573 26.84 45.6933 26.36C44.84 25.8693 44.1733 25.192 43.6933 24.328C43.2133 23.464 42.9733 22.4773 42.9733 21.368ZM58.3608 19.56C58.6808 19.0693 59.0808 18.6853 59.5608 18.408C60.0408 18.12 60.5741 17.976 61.1608 17.976V20.872H60.4088C59.7261 20.872 59.2141 21.0213 58.8728 21.32C58.5315 21.608 58.3608 22.12 58.3608 22.856V27H55.6248V18.072H58.3608V19.56ZM70.8846 22.392C70.8846 22.648 70.8686 22.9147 70.8366 23.192H64.6446C64.6872 23.7467 64.8632 24.1733 65.1726 24.472C65.4926 24.76 65.8819 24.904 66.3406 24.904C67.0232 24.904 67.4979 24.616 67.7646 24.04H70.6766C70.5272 24.6267 70.2552 25.1547 69.8606 25.624C69.4766 26.0933 68.9912 26.4613 68.4046 26.728C67.8179 26.9947 67.1619 27.128 66.4366 27.128C65.5619 27.128 64.7832 26.9413 64.1006 26.568C63.4179 26.1947 62.8846 25.6613 62.5006 24.968C62.1166 24.2747 61.9246 23.464 61.9246 22.536C61.9246 21.608 62.1112 20.7973 62.4846 20.104C62.8686 19.4107 63.4019 18.8773 64.0846 18.504C64.7672 18.1307 65.5512 17.944 66.4366 17.944C67.3006 17.944 68.0686 18.1253 68.7406 18.488C69.4126 18.8507 69.9352 19.368 70.3086 20.04C70.6926 20.712 70.8846 21.496 70.8846 22.392ZM68.0846 21.672C68.0846 21.2027 67.9246 20.8293 67.6046 20.552C67.2846 20.2747 66.8846 20.136 66.4046 20.136C65.9459 20.136 65.5566 20.2693 65.2366 20.536C64.9272 20.8027 64.7352 21.1813 64.6606 21.672H68.0846ZM71.7839 22.52C71.7839 21.6027 71.9546 20.7973 72.2959 20.104C72.6479 19.4107 73.1226 18.8773 73.7199 18.504C74.3173 18.1307 74.9839 17.944 75.7199 17.944C76.3493 17.944 76.8986 18.072 77.3679 18.328C77.8479 18.584 78.2159 18.92 78.4719 19.336V18.072H81.2079V27H78.4719V25.736C78.2053 26.152 77.8319 26.488 77.3519 26.744C76.8826 27 76.3333 27.128 75.7039 27.128C74.9786 27.128 74.3173 26.9413 73.7199 26.568C73.1226 26.184 72.6479 25.6453 72.2959 24.952C71.9546 24.248 71.7839 23.4373 71.7839 22.52ZM78.4719 22.536C78.4719 21.8533 78.2799 21.3147 77.8959 20.92C77.5226 20.5253 77.0639 20.328 76.5199 20.328C75.9759 20.328 75.5119 20.5253 75.1279 20.92C74.7546 21.304 74.5679 21.8373 74.5679 22.52C74.5679 23.2027 74.7546 23.7467 75.1279 24.152C75.5119 24.5467 75.9759 24.744 76.5199 24.744C77.0639 24.744 77.5226 24.5467 77.8959 24.152C78.2799 23.7573 78.4719 23.2187 78.4719 22.536ZM88.1633 24.68V27H86.7713C85.7793 27 85.006 26.76 84.4513 26.28C83.8966 25.7893 83.6193 24.9947 83.6193 23.896V20.344H82.5313V18.072H83.6193V15.896H86.3553V18.072H88.1473V20.344H86.3553V23.928C86.3553 24.1947 86.4193 24.3867 86.5473 24.504C86.6753 24.6213 86.8886 24.68 87.1873 24.68H88.1633ZM98.1033 22.392C98.1033 22.648 98.0873 22.9147 98.0553 23.192H91.8633C91.906 23.7467 92.082 24.1733 92.3913 24.472C92.7113 24.76 93.1006 24.904 93.5593 24.904C94.242 24.904 94.7166 24.616 94.9833 24.04H97.8953C97.746 24.6267 97.474 25.1547 97.0793 25.624C96.6953 26.0933 96.21 26.4613 95.6233 26.728C95.0366 26.9947 94.3806 27.128 93.6553 27.128C92.7806 27.128 92.002 26.9413 91.3193 26.568C90.6366 26.1947 90.1033 25.6613 89.7193 24.968C89.3353 24.2747 89.1433 23.464 89.1433 22.536C89.1433 21.608 89.33 20.7973 89.7033 20.104C90.0873 19.4107 90.6206 18.8773 91.3033 18.504C91.986 18.1307 92.77 17.944 93.6553 17.944C94.5193 17.944 95.2873 18.1253 95.9593 18.488C96.6313 18.8507 97.154 19.368 97.5273 20.04C97.9113 20.712 98.1033 21.496 98.1033 22.392ZM95.3033 21.672C95.3033 21.2027 95.1433 20.8293 94.8233 20.552C94.5033 20.2747 94.1033 20.136 93.6233 20.136C93.1646 20.136 92.7753 20.2693 92.4553 20.536C92.146 20.8027 91.954 21.1813 91.8793 21.672H95.3033Z" fill="#F8FAFC"/>
</svg>
