<svg width="116" height="42" viewBox="0 0 116 42" fill="none" xmlns="http://www.w3.org/2000/svg">
<rect width="116" height="42" rx="20" fill="#E73235" fill-opacity="0.89"/>
<path d="M28.0013 18.5L33.0013 23.5M33.0013 18.5L28.0013 23.5M26.3346 15.1667C25.9205 15.1667 25.5212 15.3209 25.2146 15.5992L19.9413 20.3825C19.8552 20.4606 19.7864 20.5559 19.7393 20.6621C19.6923 20.7684 19.668 20.8833 19.668 20.9996C19.668 21.1158 19.6923 21.2307 19.7393 21.337C19.7864 21.4433 19.8552 21.5385 19.9413 21.6167L25.2146 26.4008C25.5212 26.6791 25.9205 26.8333 26.3346 26.8333H34.6679C35.1099 26.8333 35.5339 26.6577 35.8464 26.3452C36.159 26.0326 36.3346 25.6087 36.3346 25.1667V16.8333C36.3346 16.3913 36.159 15.9674 35.8464 15.6548C35.5339 15.3423 35.1099 15.1667 34.6679 15.1667H26.3346Z" stroke="#F8FAFC" stroke-width="2" stroke-linecap="round" stroke-linejoin="round"/>
<path d="M50.4891 15.768C51.6731 15.768 52.7077 16.0027 53.5931 16.472C54.4784 16.9413 55.1611 17.6027 55.6411 18.456C56.1317 19.2987 56.3771 20.2747 56.3771 21.384C56.3771 22.4827 56.1317 23.4587 55.6411 24.312C55.1611 25.1653 54.4731 25.8267 53.5771 26.296C52.6917 26.7653 51.6624 27 50.4891 27H46.2811V15.768H50.4891ZM50.3131 24.632C51.3477 24.632 52.1531 24.3493 52.7291 23.784C53.3051 23.2187 53.5931 22.4187 53.5931 21.384C53.5931 20.3493 53.3051 19.544 52.7291 18.968C52.1531 18.392 51.3477 18.104 50.3131 18.104H49.0171V24.632H50.3131ZM66.3221 22.392C66.3221 22.648 66.3061 22.9147 66.2741 23.192H60.0821C60.1247 23.7467 60.3007 24.1733 60.6101 24.472C60.9301 24.76 61.3194 24.904 61.7781 24.904C62.4607 24.904 62.9354 24.616 63.2021 24.04H66.1141C65.9647 24.6267 65.6927 25.1547 65.2981 25.624C64.9141 26.0933 64.4287 26.4613 63.8421 26.728C63.2554 26.9947 62.5994 27.128 61.8741 27.128C60.9994 27.128 60.2207 26.9413 59.5381 26.568C58.8554 26.1947 58.3221 25.6613 57.9381 24.968C57.5541 24.2747 57.3621 23.464 57.3621 22.536C57.3621 21.608 57.5487 20.7973 57.9221 20.104C58.3061 19.4107 58.8394 18.8773 59.5221 18.504C60.2047 18.1307 60.9887 17.944 61.8741 17.944C62.7381 17.944 63.5061 18.1253 64.1781 18.488C64.8501 18.8507 65.3727 19.368 65.7461 20.04C66.1301 20.712 66.3221 21.496 66.3221 22.392ZM63.5221 21.672C63.5221 21.2027 63.3621 20.8293 63.0421 20.552C62.7221 20.2747 62.3221 20.136 61.8421 20.136C61.3834 20.136 60.9941 20.2693 60.6741 20.536C60.3647 20.8027 60.1727 21.1813 60.0981 21.672H63.5221ZM70.5014 15.16V27H67.7654V15.16H70.5014ZM80.9002 22.392C80.9002 22.648 80.8842 22.9147 80.8522 23.192H74.6602C74.7029 23.7467 74.8789 24.1733 75.1882 24.472C75.5082 24.76 75.8975 24.904 76.3562 24.904C77.0389 24.904 77.5135 24.616 77.7802 24.04H80.6922C80.5429 24.6267 80.2709 25.1547 79.8762 25.624C79.4922 26.0933 79.0069 26.4613 78.4202 26.728C77.8335 26.9947 77.1775 27.128 76.4522 27.128C75.5775 27.128 74.7989 26.9413 74.1162 26.568C73.4335 26.1947 72.9002 25.6613 72.5162 24.968C72.1322 24.2747 71.9402 23.464 71.9402 22.536C71.9402 21.608 72.1269 20.7973 72.5002 20.104C72.8842 19.4107 73.4175 18.8773 74.1002 18.504C74.7829 18.1307 75.5669 17.944 76.4522 17.944C77.3162 17.944 78.0842 18.1253 78.7562 18.488C79.4282 18.8507 79.9509 19.368 80.3242 20.04C80.7082 20.712 80.9002 21.496 80.9002 22.392ZM78.1002 21.672C78.1002 21.2027 77.9402 20.8293 77.6202 20.552C77.3002 20.2747 76.9002 20.136 76.4202 20.136C75.9615 20.136 75.5722 20.2693 75.2522 20.536C74.9429 20.8027 74.7509 21.1813 74.6762 21.672H78.1002ZM87.3196 24.68V27H85.9276C84.9356 27 84.1622 26.76 83.6076 26.28C83.0529 25.7893 82.7756 24.9947 82.7756 23.896V20.344H81.6876V18.072H82.7756V15.896H85.5116V18.072H87.3036V20.344H85.5116V23.928C85.5116 24.1947 85.5756 24.3867 85.7036 24.504C85.8316 24.6213 86.0449 24.68 86.3436 24.68H87.3196ZM97.2596 22.392C97.2596 22.648 97.2436 22.9147 97.2116 23.192H91.0196C91.0622 23.7467 91.2382 24.1733 91.5476 24.472C91.8676 24.76 92.2569 24.904 92.7156 24.904C93.3982 24.904 93.8729 24.616 94.1396 24.04H97.0516C96.9022 24.6267 96.6302 25.1547 96.2356 25.624C95.8516 26.0933 95.3662 26.4613 94.7796 26.728C94.1929 26.9947 93.5369 27.128 92.8116 27.128C91.9369 27.128 91.1582 26.9413 90.4756 26.568C89.7929 26.1947 89.2596 25.6613 88.8756 24.968C88.4916 24.2747 88.2996 23.464 88.2996 22.536C88.2996 21.608 88.4862 20.7973 88.8596 20.104C89.2436 19.4107 89.7769 18.8773 90.4596 18.504C91.1422 18.1307 91.9262 17.944 92.8116 17.944C93.6756 17.944 94.4436 18.1253 95.1156 18.488C95.7876 18.8507 96.3102 19.368 96.6836 20.04C97.0676 20.712 97.2596 21.496 97.2596 22.392ZM94.4596 21.672C94.4596 21.2027 94.2996 20.8293 93.9796 20.552C93.6596 20.2747 93.2596 20.136 92.7796 20.136C92.3209 20.136 91.9316 20.2693 91.6116 20.536C91.3022 20.8027 91.1102 21.1813 91.0356 21.672H94.4596Z" fill="#F8FAFC"/>
</svg>
