<svg width="115" height="42" viewBox="0 0 115 42" fill="none" xmlns="http://www.w3.org/2000/svg">
<rect width="115" height="42" rx="20" fill="#E73235" fill-opacity="0.89"/>
<path d="M19.5859 28.125C19.5859 26.9061 19.9375 25.713 20.5988 24.689C21.26 23.6651 22.2026 22.8536 23.3136 22.3521C24.4245 21.8507 25.6566 21.6804 26.862 21.8618C28.0673 22.0433 29.1947 22.5687 30.1088 23.375M35.4193 26.5417H30.6693M29.8776 17.8333C29.8776 20.0195 28.1054 21.7917 25.9193 21.7917C23.7331 21.7917 21.9609 20.0195 21.9609 17.8333C21.9609 15.6472 23.7331 13.875 25.9193 13.875C28.1054 13.875 29.8776 15.6472 29.8776 17.8333Z" stroke="white" stroke-width="2" stroke-linecap="round" stroke-linejoin="round"/>
<path d="M49.7617 15.88C50.9457 15.88 51.9804 16.1093 52.8657 16.568C53.7617 17.016 54.4497 17.6667 54.9297 18.52C55.4204 19.3627 55.6657 20.3493 55.6657 21.48C55.6657 22.6107 55.4204 23.592 54.9297 24.424C54.4497 25.256 53.7617 25.896 52.8657 26.344C51.9804 26.7813 50.9457 27 49.7617 27H46.1297V15.88H49.7617ZM49.7617 25.512C51.063 25.512 52.0604 25.16 52.7537 24.456C53.447 23.752 53.7937 22.76 53.7937 21.48C53.7937 20.1893 53.447 19.1813 52.7537 18.456C52.0604 17.7307 51.063 17.368 49.7617 17.368H47.9537V25.512H49.7617ZM65.5534 22.376C65.5534 22.7067 65.5321 23.0053 65.4894 23.272H58.7534C58.8068 23.976 59.0681 24.5413 59.5374 24.968C60.0068 25.3947 60.5828 25.608 61.2654 25.608C62.2468 25.608 62.9401 25.1973 63.3454 24.376H65.3134C65.0468 25.1867 64.5614 25.8533 63.8574 26.376C63.1641 26.888 62.3001 27.144 61.2654 27.144C60.4228 27.144 59.6654 26.9573 58.9934 26.584C58.3321 26.2 57.8094 25.6667 57.4254 24.984C57.0521 24.2907 56.8654 23.4907 56.8654 22.584C56.8654 21.6773 57.0468 20.8827 57.4094 20.2C57.7828 19.5067 58.3001 18.9733 58.9614 18.6C59.6334 18.2267 60.4014 18.04 61.2654 18.04C62.0974 18.04 62.8388 18.2213 63.4894 18.584C64.1401 18.9467 64.6468 19.4587 65.0094 20.12C65.3721 20.7707 65.5534 21.5227 65.5534 22.376ZM63.6494 21.8C63.6388 21.128 63.3988 20.5893 62.9294 20.184C62.4601 19.7787 61.8788 19.576 61.1854 19.576C60.5561 19.576 60.0174 19.7787 59.5694 20.184C59.1214 20.5787 58.8548 21.1173 58.7694 21.8H63.6494ZM69.1724 15.16V27H67.3484V15.16H69.1724ZM79.6472 22.376C79.6472 22.7067 79.6259 23.0053 79.5832 23.272H72.8472C72.9005 23.976 73.1619 24.5413 73.6312 24.968C74.1005 25.3947 74.6765 25.608 75.3592 25.608C76.3405 25.608 77.0339 25.1973 77.4392 24.376H79.4072C79.1405 25.1867 78.6552 25.8533 77.9512 26.376C77.2579 26.888 76.3939 27.144 75.3592 27.144C74.5165 27.144 73.7592 26.9573 73.0872 26.584C72.4259 26.2 71.9032 25.6667 71.5192 24.984C71.1459 24.2907 70.9592 23.4907 70.9592 22.584C70.9592 21.6773 71.1405 20.8827 71.5032 20.2C71.8765 19.5067 72.3939 18.9733 73.0552 18.6C73.7272 18.2267 74.4952 18.04 75.3592 18.04C76.1912 18.04 76.9325 18.2213 77.5832 18.584C78.2339 18.9467 78.7405 19.4587 79.1032 20.12C79.4659 20.7707 79.6472 21.5227 79.6472 22.376ZM77.7432 21.8C77.7325 21.128 77.4925 20.5893 77.0232 20.184C76.5539 19.7787 75.9725 19.576 75.2792 19.576C74.6499 19.576 74.1112 19.7787 73.6632 20.184C73.2152 20.5787 72.9485 21.1173 72.8632 21.8H77.7432ZM83.5702 19.672V24.552C83.5702 24.8827 83.6449 25.1227 83.7942 25.272C83.9542 25.4107 84.2209 25.48 84.5942 25.48H85.7142V27H84.2742C83.4529 27 82.8235 26.808 82.3862 26.424C81.9489 26.04 81.7302 25.416 81.7302 24.552V19.672H80.6902V18.184H81.7302V15.992H83.5702V18.184H85.7142V19.672H83.5702ZM95.4753 22.376C95.4753 22.7067 95.454 23.0053 95.4113 23.272H88.6753C88.7286 23.976 88.99 24.5413 89.4593 24.968C89.9286 25.3947 90.5046 25.608 91.1873 25.608C92.1686 25.608 92.862 25.1973 93.2673 24.376H95.2353C94.9686 25.1867 94.4833 25.8533 93.7793 26.376C93.086 26.888 92.222 27.144 91.1873 27.144C90.3446 27.144 89.5873 26.9573 88.9153 26.584C88.254 26.2 87.7313 25.6667 87.3473 24.984C86.974 24.2907 86.7873 23.4907 86.7873 22.584C86.7873 21.6773 86.9686 20.8827 87.3313 20.2C87.7046 19.5067 88.222 18.9733 88.8833 18.6C89.5553 18.2267 90.3233 18.04 91.1873 18.04C92.0193 18.04 92.7606 18.2213 93.4113 18.584C94.062 18.9467 94.5686 19.4587 94.9313 20.12C95.294 20.7707 95.4753 21.5227 95.4753 22.376ZM93.5713 21.8C93.5606 21.128 93.3206 20.5893 92.8513 20.184C92.382 19.7787 91.8006 19.576 91.1073 19.576C90.478 19.576 89.9393 19.7787 89.4913 20.184C89.0433 20.5787 88.7766 21.1173 88.6913 21.8H93.5713Z" fill="#F8FAFC"/>
</svg>
