<svg width="117" height="42" viewBox="0 0 117 42" fill="none" xmlns="http://www.w3.org/2000/svg">
<rect width="117" height="42" rx="20" fill="#2563EB"/>
<path d="M41.8736 15.4583L45.0403 18.625M46.7614 16.8927C47.18 16.4743 47.4151 15.9067 47.4152 15.3148C47.4153 14.723 47.1802 14.1553 46.7618 13.7368C46.3433 13.3182 45.7757 13.083 45.1839 13.0829C44.592 13.0829 44.0244 13.3179 43.6058 13.7364L33.0402 24.3043C32.8564 24.4876 32.7205 24.7133 32.6444 24.9614L31.5986 28.4067C31.5781 28.4752 31.5766 28.5479 31.5941 28.6172C31.6117 28.6865 31.6476 28.7497 31.6982 28.8002C31.7488 28.8507 31.8121 28.8866 31.8814 28.904C31.9507 28.9214 32.0234 28.9197 32.0918 28.8992L35.5379 27.8542C35.7859 27.7788 36.0115 27.6437 36.195 27.4607L46.7614 16.8927Z" stroke="#F8FAFC" stroke-width="2" stroke-linecap="round" stroke-linejoin="round"/>
<path d="M59.8608 17.96V20.232H63.5248V22.344H59.8608V24.808H64.0048V27H57.1248V15.768H64.0048V17.96H59.8608ZM65.2371 22.52C65.2371 21.6027 65.4077 20.7973 65.7491 20.104C66.1011 19.4107 66.5757 18.8773 67.1731 18.504C67.7704 18.1307 68.4371 17.944 69.1731 17.944C69.7597 17.944 70.2931 18.0667 70.7731 18.312C71.2637 18.5573 71.6477 18.888 71.9251 19.304V15.16H74.6611V27H71.9251V25.72C71.6691 26.1467 71.3011 26.488 70.8211 26.744C70.3517 27 69.8024 27.128 69.1731 27.128C68.4371 27.128 67.7704 26.9413 67.1731 26.568C66.5757 26.184 66.1011 25.6453 65.7491 24.952C65.4077 24.248 65.2371 23.4373 65.2371 22.52ZM71.9251 22.536C71.9251 21.8533 71.7331 21.3147 71.3491 20.92C70.9757 20.5253 70.5171 20.328 69.9731 20.328C69.4291 20.328 68.9651 20.5253 68.5811 20.92C68.2077 21.304 68.0211 21.8373 68.0211 22.52C68.0211 23.2027 68.2077 23.7467 68.5811 24.152C68.9651 24.5467 69.4291 24.744 69.9731 24.744C70.5171 24.744 70.9757 24.5467 71.3491 24.152C71.7331 23.7573 71.9251 23.2187 71.9251 22.536ZM78.0164 17.144C77.5364 17.144 77.1418 17.0053 76.8324 16.728C76.5338 16.44 76.3844 16.088 76.3844 15.672C76.3844 15.2453 76.5338 14.8933 76.8324 14.616C77.1418 14.328 77.5364 14.184 78.0164 14.184C78.4858 14.184 78.8698 14.328 79.1684 14.616C79.4778 14.8933 79.6324 15.2453 79.6324 15.672C79.6324 16.088 79.4778 16.44 79.1684 16.728C78.8698 17.0053 78.4858 17.144 78.0164 17.144ZM79.3764 18.072V27H76.6404V18.072H79.3764ZM86.3352 24.68V27H84.9432C83.9512 27 83.1779 26.76 82.6232 26.28C82.0685 25.7893 81.7912 24.9947 81.7912 23.896V20.344H80.7032V18.072H81.7912V15.896H84.5272V18.072H86.3192V20.344H84.5272V23.928C84.5272 24.1947 84.5912 24.3867 84.7192 24.504C84.8472 24.6213 85.0605 24.68 85.3592 24.68H86.3352Z" fill="#F8FAFC"/>
</svg>
