<svg width="160" height="137" viewBox="0 0 160 137" fill="none" xmlns="http://www.w3.org/2000/svg">
<path d="M9 110.345C11.2209 110.315 13.4418 110.286 15.7299 110.255C16.4196 110.242 17.1092 110.229 17.8198 110.215C23.1228 110.156 27.691 110.702 31.6457 114.546C34.2696 117.351 34.8766 120.081 34.8234 123.836C34.6707 127.613 33.4261 129.961 30.8158 132.7C29.6571 133.741 28.5149 134.371 27.0669 134.916C26.5974 135.129 26.5974 135.129 26.1184 135.345C24.0382 136.057 21.9682 136.049 19.7978 136.035C19.523 136.035 19.2481 136.035 18.9649 136.034C17.9468 136.032 16.9287 136.027 15.9106 136.023C13.6301 136.015 11.3496 136.008 9 136C9 127.534 9 119.068 9 110.345Z" fill="#1F2937"/>
<path d="M137.996 108.539C140.023 108.539 142.05 108.539 144.139 108.539C144.318 115.694 144.318 115.694 144.5 122.993C145.693 121.8 146.885 120.608 148.114 119.379C149.74 117.934 149.74 117.934 150.428 117.347C150.878 116.959 151.307 116.547 151.727 116.127C152.472 116.045 152.472 116.045 153.378 116.057C153.702 116.059 154.026 116.061 154.359 116.064C154.867 116.073 154.867 116.073 155.385 116.082C155.727 116.085 156.068 116.089 156.42 116.092C157.265 116.1 158.109 116.112 158.954 116.127C157.726 117.588 156.484 118.997 155.114 120.328C153.468 121.911 153.468 121.911 152.088 123.715C152.239 125.037 152.909 125.953 153.647 127.035C153.902 127.411 154.158 127.788 154.421 128.176C155.691 130.01 156.982 131.829 158.281 133.643C158.462 133.897 158.643 134.151 158.829 134.413C158.993 134.641 159.156 134.869 159.324 135.103C159.676 135.639 159.676 135.639 159.676 136.001C152.968 136.71 152.968 136.71 151.017 135.137C150.302 134.009 149.745 132.881 149.198 131.665C148.793 131.08 148.373 130.506 147.933 129.948C147.758 129.719 147.583 129.49 147.402 129.254C147.279 129.096 147.156 128.937 147.03 128.774C145.986 129.242 145.16 129.633 144.5 130.581C144.363 131.537 144.283 132.401 144.252 133.358C144.214 134.23 144.177 135.102 144.139 136.001C142.112 136.001 140.085 136.001 137.996 136.001C137.996 126.938 137.996 117.876 137.996 108.539Z" fill="#1F2937"/>
<path d="M53.4966 117.365C54.8839 118.539 55.7543 119.806 56.3337 121.545C56.3646 122.027 56.3762 122.511 56.3747 122.994C56.3747 123.284 56.3747 123.573 56.3746 123.871C56.3728 124.182 56.3709 124.492 56.369 124.812C56.3685 125.131 56.368 125.451 56.3674 125.78C56.3654 126.799 56.3609 127.819 56.3563 128.839C56.3545 129.53 56.3528 130.222 56.3513 130.913C56.3474 132.608 56.3411 134.303 56.3337 135.998C54.4258 135.998 52.518 135.998 50.5523 135.998C50.5523 135.402 50.5523 134.806 50.5523 134.191C50.3417 134.348 50.1312 134.504 49.9143 134.666C47.4737 136.323 45.5336 136.828 42.6028 136.359C40.4486 135.718 39.1798 134.561 37.9054 132.746C37.2587 130.806 37.2246 129.061 38.1313 127.213C39.3275 125.859 40.5271 125.007 42.2415 124.435C42.8822 124.406 43.524 124.396 44.1653 124.4C44.5368 124.401 44.9083 124.402 45.291 124.403C45.872 124.408 45.872 124.408 46.4646 124.413C46.8561 124.414 47.2476 124.416 47.651 124.418C48.6181 124.422 49.5852 124.428 50.5523 124.435C49.5873 122.327 49.5873 122.327 47.6616 121.183C45.8794 120.965 44.2909 120.979 42.648 121.748C41.5188 122.267 41.5188 122.267 40.7764 122.219C39.7976 121.783 39.6554 121.282 39.2605 120.302C39.0788 119.867 39.0788 119.867 38.8935 119.423C38.6281 118.654 38.6281 118.654 38.6281 117.931C39.1393 117.696 39.6514 117.463 40.1638 117.231C40.4489 117.101 40.7339 116.971 41.0276 116.837C44.5931 115.367 50.2008 115.321 53.4966 117.365Z" fill="#1F2937"/>
<path d="M112.344 116.124C114.371 116.124 116.398 116.124 118.486 116.124C118.606 116.84 118.725 117.555 118.848 118.292C119.191 118.001 119.533 117.711 119.887 117.411C122.016 115.606 124.492 115.929 127.159 116.124C129.312 116.692 130.6 117.907 131.856 119.737C132.888 121.738 133.089 123.285 133.046 125.517C133.044 125.819 133.043 126.12 133.041 126.43C133.035 127.384 133.022 128.337 133.008 129.29C133.002 129.94 132.997 130.59 132.993 131.24C132.982 132.826 132.961 134.412 132.94 135.998C130.794 135.998 128.647 135.998 126.436 135.998C126.418 135.097 126.401 134.197 126.382 133.269C126.363 132.398 126.342 131.526 126.321 130.654C126.307 130.048 126.295 129.442 126.284 128.836C126.267 127.965 126.246 127.094 126.224 126.223C126.22 125.952 126.216 125.681 126.212 125.402C126.173 124.051 126.119 123.418 125.352 122.267C123.887 121.779 122.546 121.659 121.016 121.906C120.02 122.694 119.413 123.305 118.848 124.435C118.791 125.304 118.755 126.165 118.734 127.035C118.726 127.29 118.718 127.546 118.711 127.809C118.687 128.627 118.666 129.444 118.645 130.261C118.629 130.815 118.613 131.369 118.597 131.923C118.558 133.281 118.522 134.639 118.486 135.998C116.459 135.998 114.432 135.998 112.344 135.998C112.344 129.439 112.344 122.881 112.344 116.124Z" fill="#1F2937"/>
<path d="M78.375 110.344C80.5213 110.344 82.6677 110.344 84.8791 110.344C84.8791 117.021 84.8791 123.699 84.8791 130.579C89.1718 130.579 93.4645 130.579 97.8873 130.579C97.8873 132.367 97.8873 134.156 97.8873 135.999C91.4482 135.999 85.0092 135.999 78.375 135.999C78.375 127.533 78.375 119.066 78.375 110.344Z" fill="#1F2937"/>
<path d="M15.5039 115.764C16.7485 115.719 17.9931 115.675 19.2754 115.628C19.6608 115.609 20.0462 115.589 20.4433 115.569C23.064 115.524 24.7638 116.15 26.7054 117.932C28.2682 119.899 28.7931 121.692 28.6631 124.203C28.3367 126.268 27.522 127.584 26.073 129.066C22.4408 131.511 20.1397 130.94 15.5039 130.94C15.5039 125.932 15.5039 120.924 15.5039 115.764Z" fill="#F8FAFC"/>
<path d="M61.3945 116.126C63.4216 116.126 65.4487 116.126 67.5373 116.126C67.6565 116.841 67.7758 117.557 67.8986 118.294C68.234 118.003 68.5694 117.712 68.9149 117.413C70.1758 116.32 71.1907 116.079 72.8444 116.103C73.6158 116.114 73.6158 116.114 74.4027 116.126C74.4027 117.914 74.4027 119.703 74.4027 121.546C73.8512 121.568 73.2997 121.591 72.7315 121.614C70.7877 121.801 69.955 122.312 68.6213 123.714C68.0894 124.778 68.1739 125.868 68.1456 127.036C68.1381 127.292 68.1306 127.548 68.1229 127.811C68.0992 128.628 68.0779 129.446 68.0567 130.263C68.0411 130.817 68.0253 131.371 68.0094 131.924C67.9704 133.283 67.9346 134.641 67.8986 135.999C65.7523 135.999 63.6059 135.999 61.3945 135.999C61.3945 129.441 61.3945 122.883 61.3945 116.126Z" fill="#1F2937"/>
<path d="M101.141 116.488C103.048 116.488 104.956 116.488 106.922 116.488C106.922 122.927 106.922 129.366 106.922 136.001C105.014 136.001 103.106 136.001 101.141 136.001C101.141 129.561 101.141 123.122 101.141 116.488Z" fill="#1F2937"/>
<path d="M47.7539 127.626C48.2104 127.636 48.6669 127.645 49.1372 127.655C49.4856 127.668 49.834 127.681 50.193 127.693C50.3031 130.09 50.3031 130.09 49.3122 131.284C48.0893 132.169 46.9889 132.207 45.5139 132.164C44.7729 132.03 44.7729 132.03 43.6889 131.307C43.5308 130.065 43.5308 130.065 43.6889 128.778C44.8905 127.472 46.0538 127.579 47.7539 127.626Z" fill="#F8FAFC"/>
<path d="M105.115 107.094C106.153 107.602 106.829 108.086 107.644 108.901C107.892 111.469 107.892 111.469 106.966 112.673C105.754 113.564 104.871 113.748 103.347 113.72C101.9 113.489 101.357 112.919 100.417 111.792C100.107 110.751 100.105 109.941 100.417 108.901C101.847 107.227 102.94 106.778 105.115 107.094Z" fill="#1F2937"/>
<path d="M53.833 3.23241C54.6196 3.83352 55.3611 4.46407 56.1 5.12289C56.37 5.35162 56.64 5.58035 56.9181 5.81602C58.7926 7.44059 60.4667 9.19246 62.1248 11.0305C63.57 12.617 65.1146 14.0613 66.7062 15.4988C67.9506 16.6298 69.0749 17.8018 70.1555 19.0874C71.5731 20.7366 73.1472 22.2219 74.79 23.643C79.9492 28.1375 85.4675 33.1005 86.3693 40.2632C86.6079 44.7076 86.5133 48.4403 84.222 52.3494C83.8494 53.1204 83.8494 53.1204 84.1567 53.8526C84.6697 54.5852 85.2122 55.2029 85.8474 55.8327C86.0591 56.0462 86.2708 56.2597 86.4889 56.4797C87.0286 57.0381 87.0286 57.0381 87.761 56.9635C89.2935 53.8901 90.5967 50.9706 91.2402 47.5695C91.3035 47.2354 91.3667 46.9013 91.4319 46.557C92.3002 40.5845 90.9554 34.6208 87.5069 29.6542C86.9161 28.8796 86.3039 28.1325 85.6735 27.39C85.4158 27.0691 85.4158 27.0691 85.1529 26.7417C84.0751 25.4244 82.8964 24.3297 81.603 23.2271C80.6086 22.3476 79.659 21.4299 78.715 20.4968C78.5434 20.3296 78.3717 20.1624 78.1949 19.9902C77.7744 19.571 77.3731 19.1328 76.9754 18.6919C76.9754 18.4623 76.9754 18.2326 76.9754 17.9961C77.4659 17.5893 77.9576 17.1841 78.455 16.7857C79.0758 16.2452 79.5841 15.6807 80.1135 15.0509C81.6232 13.3043 83.2273 11.6545 84.8526 10.0162C85.1947 9.67002 85.5353 9.32233 85.8743 8.97307C90.1268 4.592 95.1627 0.490914 101.539 0.193521C105.488 0.146463 108.828 0.439618 112.442 2.14379C112.658 2.24157 112.873 2.33934 113.096 2.44007C117.545 4.68287 121.204 9.27494 124.703 12.7568C124.946 12.9985 125.19 13.2401 125.44 13.4891C126.723 14.7644 128.004 16.0408 129.285 17.3181C130.599 18.6285 131.917 19.9347 133.236 21.24C134.259 22.2541 135.279 23.2712 136.298 24.2892C136.783 24.7721 137.269 25.2538 137.756 25.7343C140.899 28.8385 143.435 31.7083 145.103 35.8706C145.242 36.2106 145.38 36.5505 145.523 36.9008C147.234 41.5488 146.573 47.137 144.887 51.6821C142.635 56.3146 139.031 59.8335 135.431 63.4191C134.891 63.9605 134.352 64.502 133.813 65.0437C132.688 66.1717 131.561 67.2972 130.432 68.4208C128.994 69.8531 127.563 71.2924 126.134 72.7338C125.024 73.8514 123.91 74.965 122.794 76.0774C122.265 76.6062 121.738 77.1363 121.211 77.6678C116.204 82.7169 110.925 86.6769 103.505 86.7109C94.5202 86.5173 89.0433 80.9723 83.0708 75.0174C82.52 74.4698 81.9692 73.9221 81.4183 73.3745C80.2687 72.2306 79.1206 71.0852 77.9734 69.9389C76.5106 68.478 75.0423 67.0229 73.5726 65.569C72.4344 64.4413 71.3003 63.3096 70.1672 62.1768C69.6278 61.6389 69.087 61.1024 68.5447 60.5674C63.3449 55.4322 59.8878 50.7657 59.8184 43.177C59.8042 40.1109 60.1734 37.0863 61.9318 34.4857C62.4631 33.6916 62.4631 33.6916 62.156 32.9296C61.6299 32.2106 61.0818 31.5836 60.449 30.9562C60.2373 30.7427 60.0256 30.5292 59.8075 30.3093C59.2679 29.7509 59.2679 29.7509 58.5354 29.8255C55.0807 36.1235 53.3799 42.9022 55.4041 50.005C55.7407 50.9623 56.1166 51.898 56.5131 52.8319C56.606 53.0521 56.6989 53.2724 56.7945 53.4993C58.7537 57.8369 62.0298 60.8983 65.4169 64.119C66.0117 64.6866 66.601 65.2593 67.19 65.8328C67.3745 66.005 67.5589 66.1771 67.7489 66.3545C68.2528 66.8479 68.2528 66.8479 68.9731 67.7491C68.8015 69.3374 67.7038 70.1879 66.6097 71.246C66.4066 71.4468 66.2036 71.6475 65.9944 71.8544C65.3443 72.4963 64.6909 73.1346 64.037 73.7725C63.3899 74.4073 62.7436 75.0429 62.0982 75.6795C61.697 76.0749 61.2947 76.4692 60.8911 76.8623C59.7282 78.0041 58.6482 79.1862 57.6075 80.4408C54.6907 83.7701 49.6983 86.1496 45.3143 86.537C39.8699 86.8486 34.6799 86.111 30.358 82.4762C27.5867 79.991 24.9461 77.3787 22.3052 74.7565C22.0585 74.5117 21.8118 74.2669 21.5577 74.0146C20.254 72.7201 18.9515 71.4244 17.6498 70.1278C16.5813 69.0639 15.5103 68.0026 14.437 66.9435C13.1296 65.6534 11.8267 64.359 10.5267 63.0615C10.0353 62.5724 9.54237 62.0847 9.04788 61.5986C4.03755 56.6687 0.120484 51.5422 0.000195461 44.2039C-0.0243469 36.956 2.26148 32.2547 7.31169 27.1014C8.33223 26.0752 9.36116 25.0575 10.3915 24.0412C12.4128 22.0473 14.4183 20.0616 16.2651 17.9018C17.0207 17.0268 17.8186 16.2073 18.633 15.3866C18.9258 15.0888 19.2187 14.791 19.5204 14.4842C20.2638 13.821 20.2639 13.821 20.9597 13.821C21.0437 13.6248 21.1277 13.4287 21.2142 13.2266C23.6588 8.81019 29.3562 4.20555 33.8329 1.99158C34.2074 1.80456 34.5819 1.61753 34.9677 1.42484C40.8507 -1.08279 48.4577 -0.15674 53.833 3.23241Z" fill="#22C55E"/>
<path d="M53.833 3.23241C54.6196 3.83352 55.3611 4.46407 56.1 5.12289C56.37 5.35162 56.64 5.58036 56.9181 5.81602C58.7926 7.44059 60.4667 9.19246 62.1247 11.0305C63.57 12.617 65.1146 14.0613 66.7062 15.4988C67.9506 16.6298 69.0749 17.8018 70.1555 19.0874C71.5731 20.7366 73.1472 22.2219 74.79 23.643C79.9492 28.1375 85.4675 33.1005 86.3693 40.2632C86.6432 45.3652 86.2313 49.0336 83.5859 53.4843C81.799 51.9905 80.1331 50.4227 78.4975 48.7655C78.2742 48.5406 78.0508 48.3157 77.8207 48.084C76.9166 47.1733 76.0135 46.2621 75.1189 45.342C74.3351 44.5777 73.5348 43.8576 72.7133 43.1349C71.0453 41.6429 69.462 40.078 67.8859 38.4896C67.6357 38.2375 67.3855 37.9854 67.1278 37.7256C66.0832 36.6714 65.0399 35.6158 63.9981 34.5589C63.2297 33.7801 62.4592 33.0034 61.6885 32.2269C61.4519 31.9856 61.2152 31.7443 60.9714 31.4957C60.7528 31.2759 60.5342 31.0561 60.309 30.8297C60.1171 30.6352 59.9252 30.4407 59.7274 30.2403C59.2501 29.7511 59.2501 29.7511 58.5354 29.8255C55.0807 36.1235 53.3799 42.9022 55.4041 50.005C55.7407 50.9623 56.1166 51.898 56.5131 52.8319C56.606 53.0521 56.6989 53.2724 56.7945 53.4993C58.7537 57.8369 62.0298 60.8983 65.4169 64.119C66.0117 64.6866 66.601 65.2593 67.19 65.8328C67.3744 66.005 67.5589 66.1771 67.7489 66.3545C68.2528 66.8479 68.2528 66.8479 68.9731 67.7491C68.8015 69.3374 67.7038 70.1879 66.6097 71.246C66.4066 71.4468 66.2036 71.6475 65.9943 71.8544C65.3443 72.4963 64.6909 73.1346 64.037 73.7725C63.3899 74.4074 62.7436 75.0429 62.0982 75.6795C61.697 76.0749 61.2947 76.4692 60.8911 76.8623C59.7282 78.0041 58.6481 79.1862 57.6075 80.4408C54.6907 83.7701 49.6983 86.1496 45.3143 86.537C39.8699 86.8486 34.6799 86.111 30.358 82.4762C27.5867 79.991 24.9461 77.3787 22.3052 74.7565C22.0585 74.5117 21.8118 74.2669 21.5577 74.0146C20.254 72.7201 18.9515 71.4244 17.6498 70.1278C16.5813 69.0639 15.5103 68.0026 14.437 66.9435C13.1296 65.6534 11.8267 64.359 10.5267 63.0615C10.0353 62.5724 9.54237 62.0847 9.04788 61.5986C4.03755 56.6687 0.120484 51.5422 0.000195461 44.2039C-0.0243469 36.956 2.26148 32.2547 7.31169 27.1014C8.33222 26.0752 9.36116 25.0575 10.3915 24.0412C12.4128 22.0473 14.4183 20.0616 16.2651 17.9018C17.0207 17.0268 17.8186 16.2073 18.633 15.3866C18.9258 15.0888 19.2187 14.791 19.5204 14.4842C20.2638 13.821 20.2638 13.821 20.9597 13.821C21.0437 13.6248 21.1277 13.4287 21.2142 13.2266C23.6588 8.81019 29.3562 4.20555 33.8329 1.99158C34.2074 1.80456 34.5818 1.61753 34.9677 1.42484C40.8507 -1.08279 48.4577 -0.15674 53.833 3.23241Z" fill="#2563EB"/>
<path d="M114.899 44.4394C117.699 46.3106 119.408 48.919 120.466 52.0937C120.49 52.9888 120.499 53.8738 120.488 54.7684C120.486 55.0126 120.485 55.2568 120.483 55.5084C120.479 56.1098 120.473 56.7112 120.466 57.3126C117.569 57.3206 114.671 57.3268 111.774 57.3306C110.429 57.3324 109.084 57.3349 107.739 57.3388C106.442 57.3426 105.144 57.3447 103.847 57.3456C103.351 57.3462 102.855 57.3475 102.359 57.3493C101.667 57.3518 100.975 57.352 100.282 57.3521C99.8877 57.3528 99.4929 57.3536 99.0861 57.3544C98.1989 57.3126 98.1989 57.3126 97.851 56.9646C97.4344 53.7072 98.3225 50.4555 100.221 47.7881C100.58 47.3582 100.949 46.9372 101.33 46.5269C101.598 46.2376 101.598 46.2376 101.871 45.9425C105.516 42.4369 110.549 42.1942 114.899 44.4394Z" fill="#F8FAFC" fill-opacity="0.980392"/>
<path d="M112.593 28.2856C114.186 29.2135 115.466 30.6169 116.29 32.2649C116.532 34.8446 116.499 37.1003 114.898 39.2234C113.572 40.6442 112.094 41.5135 110.162 41.788C107.788 41.8464 106.274 41.484 104.46 39.9193C102.559 37.9176 102.187 36.007 102.244 33.3114C102.481 31.3848 103.316 30.2337 104.701 28.9257C106.988 27.2116 110.009 27.1472 112.593 28.2856Z" fill="#F8FAFC"/>
<path d="M36.9648 33.3047C39.95 33.3047 42.9352 33.3047 46.0109 33.3047C46.0109 36.2899 46.0109 39.2751 46.0109 42.3507C43.0257 42.3507 40.0405 42.3507 36.9648 42.3507C36.9648 39.3655 36.9648 36.3803 36.9648 33.3047Z" fill="#F8FAFC"/>
<path d="M25.832 33.3047C28.8172 33.3047 31.8024 33.3047 34.878 33.3047C34.878 36.2899 34.878 39.2751 34.878 42.3507C31.8929 42.3507 28.9077 42.3507 25.832 42.3507C25.832 39.3655 25.832 36.3803 25.832 33.3047Z" fill="#F8FAFC"/>
<path d="M37.3125 44.7891C40.2977 44.7891 43.2829 44.7891 46.3585 44.7891C46.3585 47.6594 46.3585 50.5298 46.3585 53.4871C43.3733 53.4871 40.3881 53.4871 37.3125 53.4871C37.3125 50.6168 37.3125 47.7464 37.3125 44.7891Z" fill="#F8FAFC"/>
<path d="M25.832 44.7891C28.8172 44.7891 31.8024 44.7891 34.878 44.7891C34.878 47.6594 34.878 50.5298 34.878 53.4871C31.8929 53.4871 28.9077 53.4871 25.832 53.4871C25.832 50.6168 25.832 47.7464 25.832 44.7891Z" fill="#F8FAFC"/>
</svg>
