<svg width="117" height="42" viewBox="0 0 117 42" fill="none" xmlns="http://www.w3.org/2000/svg">
<rect width="117" height="42" rx="20" fill="#22C55E"/>
<path d="M21.5859 28.125C21.5859 26.9061 21.9375 25.713 22.5988 24.689C23.26 23.6651 24.2026 22.8536 25.3136 22.3521C26.4245 21.8507 27.6566 21.6804 28.862 21.8618C30.0673 22.0433 31.1947 22.5687 32.1088 23.375M32.6693 26.5417L34.2526 28.125L37.4193 24.9583M31.8776 17.8333C31.8776 20.0195 30.1054 21.7917 27.9193 21.7917C25.7331 21.7917 23.9609 20.0195 23.9609 17.8333C23.9609 15.6472 25.7331 13.875 27.9193 13.875C30.1054 13.875 31.8776 15.6472 31.8776 17.8333Z" stroke="#F8FAFC" stroke-width="2" stroke-linecap="round" stroke-linejoin="round"/>
<path d="M54.8924 15.88V17.368H50.1724V20.648H53.8524V22.136H50.1724V27H48.3484V15.88H54.8924ZM58.4068 19.464C58.6735 19.016 59.0255 18.6693 59.4628 18.424C59.9108 18.168 60.4388 18.04 61.0468 18.04V19.928H60.5828C59.8681 19.928 59.3241 20.1093 58.9508 20.472C58.5881 20.8347 58.4068 21.464 58.4068 22.36V27H56.5828V18.184H58.4068V19.464ZM63.6514 17.016C63.3208 17.016 63.0434 16.904 62.8194 16.68C62.5954 16.456 62.4834 16.1787 62.4834 15.848C62.4834 15.5173 62.5954 15.24 62.8194 15.016C63.0434 14.792 63.3208 14.68 63.6514 14.68C63.9714 14.68 64.2434 14.792 64.4674 15.016C64.6914 15.24 64.8034 15.5173 64.8034 15.848C64.8034 16.1787 64.6914 16.456 64.4674 16.68C64.2434 16.904 63.9714 17.016 63.6514 17.016ZM64.5474 18.184V27H62.7234V18.184H64.5474ZM75.0222 22.376C75.0222 22.7067 75.0009 23.0053 74.9582 23.272H68.2222C68.2755 23.976 68.5369 24.5413 69.0062 24.968C69.4755 25.3947 70.0515 25.608 70.7342 25.608C71.7155 25.608 72.4089 25.1973 72.8142 24.376H74.7822C74.5155 25.1867 74.0302 25.8533 73.3262 26.376C72.6329 26.888 71.7689 27.144 70.7342 27.144C69.8915 27.144 69.1342 26.9573 68.4622 26.584C67.8009 26.2 67.2782 25.6667 66.8942 24.984C66.5209 24.2907 66.3342 23.4907 66.3342 22.584C66.3342 21.6773 66.5155 20.8827 66.8782 20.2C67.2515 19.5067 67.7689 18.9733 68.4302 18.6C69.1022 18.2267 69.8702 18.04 70.7342 18.04C71.5662 18.04 72.3075 18.2213 72.9582 18.584C73.6089 18.9467 74.1155 19.4587 74.4782 20.12C74.8409 20.7707 75.0222 21.5227 75.0222 22.376ZM73.1182 21.8C73.1075 21.128 72.8675 20.5893 72.3982 20.184C71.9289 19.7787 71.3475 19.576 70.6542 19.576C70.0249 19.576 69.4862 19.7787 69.0382 20.184C68.5902 20.5787 68.3235 21.1173 68.2382 21.8H73.1182ZM81.2652 18.04C81.9585 18.04 82.5772 18.184 83.1212 18.472C83.6759 18.76 84.1079 19.1867 84.4172 19.752C84.7265 20.3173 84.8812 21 84.8812 21.8V27H83.0732V22.072C83.0732 21.2827 82.8759 20.68 82.4812 20.264C82.0865 19.8373 81.5479 19.624 80.8652 19.624C80.1825 19.624 79.6385 19.8373 79.2332 20.264C78.8385 20.68 78.6412 21.2827 78.6412 22.072V27H76.8172V18.184H78.6412V19.192C78.9399 18.8293 79.3185 18.5467 79.7772 18.344C80.2465 18.1413 80.7425 18.04 81.2652 18.04ZM86.5998 22.552C86.5998 21.6667 86.7811 20.8827 87.1438 20.2C87.5171 19.5173 88.0185 18.9893 88.6478 18.616C89.2878 18.232 89.9971 18.04 90.7758 18.04C91.3518 18.04 91.9171 18.168 92.4718 18.424C93.0371 18.6693 93.4851 19 93.8158 19.416V15.16H95.6558V27H93.8158V25.672C93.5171 26.0987 93.1011 26.4507 92.5678 26.728C92.0451 27.0053 91.4425 27.144 90.7598 27.144C89.9918 27.144 89.2878 26.952 88.6478 26.568C88.0185 26.1733 87.5171 25.6293 87.1438 24.936C86.7811 24.232 86.5998 23.4373 86.5998 22.552ZM93.8158 22.584C93.8158 21.976 93.6878 21.448 93.4318 21C93.1865 20.552 92.8611 20.2107 92.4558 19.976C92.0505 19.7413 91.6131 19.624 91.1438 19.624C90.6745 19.624 90.2371 19.7413 89.8318 19.976C89.4265 20.2 89.0958 20.536 88.8398 20.984C88.5945 21.4213 88.4718 21.944 88.4718 22.552C88.4718 23.16 88.5945 23.6933 88.8398 24.152C89.0958 24.6107 89.4265 24.9627 89.8318 25.208C90.2478 25.4427 90.6851 25.56 91.1438 25.56C91.6131 25.56 92.0505 25.4427 92.4558 25.208C92.8611 24.9733 93.1865 24.632 93.4318 24.184C93.6878 23.7253 93.8158 23.192 93.8158 22.584Z" fill="#F8FAFC"/>
</svg>
