<svg width="179" height="49" viewBox="0 0 179 49" fill="none" xmlns="http://www.w3.org/2000/svg">
<rect x="0.5" y="0.5" width="178" height="48" rx="24" fill="#FAFAFA" stroke="#EEEEEE"/>
<path d="M57.1502 29.5V20.54H57.931V28.7448H62.8846V29.5H57.1502ZM66.4932 29.6408C65.9471 29.6408 65.4607 29.5043 65.034 29.2312C64.6073 28.9581 64.2703 28.5827 64.0228 28.1048C63.7753 27.6184 63.6516 27.0595 63.6516 26.428C63.6516 25.7965 63.7753 25.2419 64.0228 24.764C64.2703 24.2776 64.6073 23.8979 65.034 23.6248C65.4607 23.3517 65.9471 23.2152 66.4932 23.2152C67.0479 23.2152 67.5385 23.3517 67.9652 23.6248C68.3919 23.8979 68.7289 24.2776 68.9764 24.764C69.2239 25.2419 69.3476 25.7965 69.3476 26.428C69.3476 27.0595 69.2239 27.6184 68.9764 28.1048C68.7289 28.5827 68.3919 28.9581 67.9652 29.2312C67.5385 29.5043 67.0479 29.6408 66.4932 29.6408ZM66.4932 28.9112C66.8943 28.9112 67.2484 28.8088 67.5556 28.604C67.8713 28.3992 68.1188 28.1133 68.298 27.7464C68.4772 27.3709 68.5668 26.9315 68.5668 26.428C68.5668 25.9245 68.4772 25.4893 68.298 25.1224C68.1188 24.7469 67.8713 24.4568 67.5556 24.252C67.2484 24.0472 66.8943 23.9448 66.4932 23.9448C65.8959 23.9448 65.4009 24.1709 65.0084 24.6232C64.6244 25.0669 64.4324 25.6685 64.4324 26.428C64.4324 27.1789 64.6244 27.7805 65.0084 28.2328C65.4009 28.6851 65.8959 28.9112 66.4932 28.9112ZM73.1036 32.2648C71.9687 32.2648 71.1153 31.8211 70.5436 30.9336L71.1836 30.5112C71.6103 31.1853 72.2503 31.5224 73.1036 31.5224C73.7351 31.5224 74.2172 31.3133 74.55 30.8952C74.8828 30.4856 75.0492 29.8669 75.0492 29.0392V27.9384C74.8359 28.2712 74.5585 28.5357 74.2172 28.732C73.8759 28.9197 73.4876 29.0136 73.0524 29.0136C72.5319 29.0136 72.0668 28.8941 71.6572 28.6552C71.2561 28.4163 70.9361 28.0792 70.6972 27.644C70.4668 27.2088 70.3516 26.6968 70.3516 26.108C70.3516 25.5192 70.4668 25.0115 70.6972 24.5848C70.9361 24.1496 71.2561 23.8125 71.6572 23.5736C72.0668 23.3347 72.5319 23.2152 73.0524 23.2152C73.4961 23.2152 73.8929 23.3176 74.2428 23.5224C74.5927 23.7187 74.8743 23.9917 75.0876 24.3416L75.1004 23.3688H75.8172V29.0392C75.8172 30.1485 75.5655 30.9635 75.062 31.484C74.5671 32.0045 73.9143 32.2648 73.1036 32.2648ZM73.0908 28.2968C73.4748 28.2968 73.8161 28.2072 74.1148 28.028C74.4135 27.8403 74.6481 27.5843 74.8188 27.26C74.9895 26.9272 75.0748 26.5432 75.0748 26.108C75.0748 25.6728 74.9895 25.2931 74.8188 24.9688C74.6481 24.6445 74.4135 24.3928 74.1148 24.2136C73.8161 24.0259 73.4748 23.932 73.0908 23.932C72.7153 23.932 72.3783 24.0259 72.0796 24.2136C71.7895 24.3928 71.5591 24.6445 71.3884 24.9688C71.2177 25.2931 71.1324 25.6728 71.1324 26.108C71.1324 26.5432 71.2177 26.9272 71.3884 27.26C71.5591 27.5843 71.7895 27.8403 72.0796 28.028C72.3783 28.2072 72.7153 28.2968 73.0908 28.2968ZM81.0377 29.5V20.54H81.8185V29.5H81.0377ZM83.6597 29.5V23.3688H84.3893L84.4149 24.2392C84.6112 23.9491 84.8714 23.7059 85.1957 23.5096C85.5285 23.3133 85.904 23.2152 86.3221 23.2152C86.9792 23.2152 87.5082 23.4243 87.9093 23.8424C88.3104 24.2605 88.5109 24.8579 88.5109 25.6344V29.5H87.7429V25.7496C87.7429 25.1523 87.5978 24.7043 87.3077 24.4056C87.0261 24.1069 86.6592 23.9576 86.2069 23.9576C85.8656 23.9576 85.5584 24.0344 85.2853 24.188C85.0208 24.3331 84.8117 24.5336 84.6581 24.7896C84.513 25.0371 84.4405 25.3144 84.4405 25.6216V29.5H83.6597ZM94.9537 29.5L93.0337 23.3688H93.8017L95.2737 28.2456L96.7201 23.3688H97.3473L98.7937 28.2456L100.266 23.3688H101.034L99.1137 29.5H98.4865L97.0401 24.6104L95.5681 29.5H94.9537ZM102.365 29.5V23.3688H103.133V29.5H102.365ZM102.749 22.0376C102.587 22.0376 102.446 21.9821 102.326 21.8712C102.207 21.7517 102.147 21.6109 102.147 21.4488C102.147 21.2781 102.207 21.1373 102.326 21.0264C102.446 20.9155 102.587 20.86 102.749 20.86C102.911 20.86 103.047 20.9155 103.158 21.0264C103.269 21.1373 103.325 21.2781 103.325 21.4488C103.325 21.6109 103.269 21.7517 103.158 21.8712C103.047 21.9821 102.911 22.0376 102.749 22.0376ZM107.428 29.6408C106.882 29.6408 106.473 29.5256 106.199 29.2952C105.926 29.0648 105.79 28.6509 105.79 28.0536V24.0856H104.459V23.3688H105.79V21.116H106.558V23.3688H108.427V24.0856H106.558V27.9256C106.558 28.3096 106.639 28.5741 106.801 28.7192C106.963 28.8557 107.215 28.924 107.556 28.924C107.701 28.924 107.855 28.9027 108.017 28.86C108.179 28.8173 108.316 28.7704 108.427 28.7192V29.4744C108.307 29.5171 108.154 29.5555 107.966 29.5896C107.778 29.6237 107.599 29.6408 107.428 29.6408ZM109.66 29.5V20.2584H110.44V24.2392C110.62 23.9491 110.871 23.7059 111.196 23.5096C111.528 23.3133 111.904 23.2152 112.322 23.2152C112.979 23.2152 113.508 23.4243 113.909 23.8424C114.31 24.2605 114.511 24.8579 114.511 25.6344V29.5H113.743V25.7496C113.743 25.1523 113.598 24.7043 113.308 24.4056C113.026 24.1069 112.659 23.9576 112.207 23.9576C111.866 23.9576 111.558 24.0344 111.285 24.188C111.021 24.3331 110.812 24.5336 110.658 24.7896C110.513 25.0371 110.44 25.3144 110.44 25.6216V29.5H109.66ZM123.424 29.6664C122.622 29.6664 121.905 29.4701 121.274 29.0776C120.651 28.6851 120.16 28.1389 119.802 27.4392C119.443 26.7395 119.264 25.9288 119.264 25.0072C119.264 24.0856 119.443 23.2749 119.802 22.5752C120.16 21.8755 120.651 21.3293 121.274 20.9368C121.905 20.5443 122.622 20.348 123.424 20.348C124.047 20.348 124.61 20.4589 125.114 20.6808C125.626 20.8941 126.065 21.2013 126.432 21.6024L125.894 22.1912C125.289 21.4829 124.465 21.1288 123.424 21.1288C122.758 21.1288 122.174 21.2952 121.67 21.628C121.167 21.9523 120.774 22.4045 120.493 22.9848C120.211 23.5651 120.07 24.2392 120.07 25.0072C120.07 25.7667 120.211 26.4408 120.493 27.0296C120.774 27.6184 121.167 28.0792 121.67 28.412C122.174 28.7363 122.758 28.8984 123.424 28.8984C123.893 28.8984 124.299 28.8515 124.64 28.7576C124.981 28.6637 125.31 28.5229 125.626 28.3352V25.6728H123.706V24.9176H126.419V28.8216C126.146 29.0093 125.762 29.1971 125.267 29.3848C124.781 29.5725 124.166 29.6664 123.424 29.6664ZM130.518 29.6408C129.972 29.6408 129.486 29.5043 129.059 29.2312C128.632 28.9581 128.295 28.5827 128.048 28.1048C127.8 27.6184 127.677 27.0595 127.677 26.428C127.677 25.7965 127.8 25.2419 128.048 24.764C128.295 24.2776 128.632 23.8979 129.059 23.6248C129.486 23.3517 129.972 23.2152 130.518 23.2152C131.073 23.2152 131.564 23.3517 131.99 23.6248C132.417 23.8979 132.754 24.2776 133.001 24.764C133.249 25.2419 133.373 25.7965 133.373 26.428C133.373 27.0595 133.249 27.6184 133.001 28.1048C132.754 28.5827 132.417 28.9581 131.99 29.2312C131.564 29.5043 131.073 29.6408 130.518 29.6408ZM130.518 28.9112C130.919 28.9112 131.273 28.8088 131.581 28.604C131.896 28.3992 132.144 28.1133 132.323 27.7464C132.502 27.3709 132.592 26.9315 132.592 26.428C132.592 25.9245 132.502 25.4893 132.323 25.1224C132.144 24.7469 131.896 24.4568 131.581 24.252C131.273 24.0472 130.919 23.9448 130.518 23.9448C129.921 23.9448 129.426 24.1709 129.033 24.6232C128.649 25.0669 128.457 25.6685 128.457 26.428C128.457 27.1789 128.649 27.7805 129.033 28.2328C129.426 28.6851 129.921 28.9112 130.518 28.9112ZM137.218 29.6408C136.672 29.6408 136.186 29.5043 135.759 29.2312C135.332 28.9581 134.995 28.5827 134.748 28.1048C134.5 27.6184 134.377 27.0595 134.377 26.428C134.377 25.7965 134.5 25.2419 134.748 24.764C134.995 24.2776 135.332 23.8979 135.759 23.6248C136.186 23.3517 136.672 23.2152 137.218 23.2152C137.773 23.2152 138.264 23.3517 138.69 23.6248C139.117 23.8979 139.454 24.2776 139.701 24.764C139.949 25.2419 140.073 25.7965 140.073 26.428C140.073 27.0595 139.949 27.6184 139.701 28.1048C139.454 28.5827 139.117 28.9581 138.69 29.2312C138.264 29.5043 137.773 29.6408 137.218 29.6408ZM137.218 28.9112C137.619 28.9112 137.973 28.8088 138.281 28.604C138.596 28.3992 138.844 28.1133 139.023 27.7464C139.202 27.3709 139.292 26.9315 139.292 26.428C139.292 25.9245 139.202 25.4893 139.023 25.1224C138.844 24.7469 138.596 24.4568 138.281 24.252C137.973 24.0472 137.619 23.9448 137.218 23.9448C136.621 23.9448 136.126 24.1709 135.733 24.6232C135.349 25.0669 135.157 25.6685 135.157 26.428C135.157 27.1789 135.349 27.7805 135.733 28.2328C136.126 28.6851 136.621 28.9112 137.218 28.9112ZM143.829 32.2648C142.694 32.2648 141.84 31.8211 141.269 30.9336L141.909 30.5112C142.335 31.1853 142.975 31.5224 143.829 31.5224C144.46 31.5224 144.942 31.3133 145.275 30.8952C145.608 30.4856 145.774 29.8669 145.774 29.0392V27.9384C145.561 28.2712 145.284 28.5357 144.942 28.732C144.601 28.9197 144.213 29.0136 143.777 29.0136C143.257 29.0136 142.792 28.8941 142.382 28.6552C141.981 28.4163 141.661 28.0792 141.422 27.644C141.192 27.2088 141.077 26.6968 141.077 26.108C141.077 25.5192 141.192 25.0115 141.422 24.5848C141.661 24.1496 141.981 23.8125 142.382 23.5736C142.792 23.3347 143.257 23.2152 143.777 23.2152C144.221 23.2152 144.618 23.3176 144.968 23.5224C145.318 23.7187 145.599 23.9917 145.813 24.3416L145.825 23.3688H146.542V29.0392C146.542 30.1485 146.29 30.9635 145.787 31.484C145.292 32.0045 144.639 32.2648 143.829 32.2648ZM143.816 28.2968C144.2 28.2968 144.541 28.2072 144.84 28.028C145.138 27.8403 145.373 27.5843 145.544 27.26C145.714 26.9272 145.8 26.5432 145.8 26.108C145.8 25.6728 145.714 25.2931 145.544 24.9688C145.373 24.6445 145.138 24.3928 144.84 24.2136C144.541 24.0259 144.2 23.932 143.816 23.932C143.44 23.932 143.103 24.0259 142.805 24.2136C142.514 24.3928 142.284 24.6445 142.113 24.9688C141.943 25.2931 141.857 25.6728 141.857 26.108C141.857 26.5432 141.943 26.9272 142.113 27.26C142.284 27.5843 142.514 27.8403 142.805 28.028C143.103 28.2072 143.44 28.2968 143.816 28.2968ZM148.247 29.5V20.2584H149.028V29.5H148.247ZM153.243 29.6408C152.689 29.6408 152.194 29.5128 151.759 29.2568C151.332 28.9923 150.995 28.6211 150.747 28.1432C150.509 27.6568 150.389 27.0851 150.389 26.428C150.389 25.788 150.509 25.2291 150.747 24.7512C150.995 24.2733 151.332 23.9021 151.759 23.6376C152.185 23.3645 152.672 23.228 153.218 23.228C153.773 23.228 154.242 23.3688 154.626 23.6504C155.018 23.9235 155.317 24.2819 155.522 24.7256C155.727 25.1608 155.829 25.6216 155.829 26.108V26.364H151.17C151.153 27.132 151.332 27.7549 151.707 28.2328C152.091 28.7021 152.608 28.9368 153.256 28.9368C153.734 28.9368 154.135 28.8173 154.459 28.5784C154.784 28.3309 155.048 27.9683 155.253 27.4904L155.893 27.8616C155.347 29.0477 154.464 29.6408 153.243 29.6408ZM151.221 25.6984H155.061C155.018 25.3656 154.912 25.0627 154.741 24.7896C154.579 24.5165 154.366 24.2989 154.101 24.1368C153.845 23.9747 153.551 23.8936 153.218 23.8936C152.697 23.8936 152.258 24.0557 151.899 24.38C151.55 24.6957 151.323 25.1352 151.221 25.6984Z" fill="#6B7280"/>
<mask id="mask0_321_4586" style="mask-type:luminance" maskUnits="userSpaceOnUse" x="22" y="15" width="19" height="18">
<rect x="22.5" y="15" width="18" height="18" fill="white"/>
</mask>
<g mask="url(#mask0_321_4586)">
<path fill-rule="evenodd" clip-rule="evenodd" d="M38.8541 22.5311H38.25V22.5H31.5V25.5H35.7386C35.1203 27.2464 33.4586 28.5 31.5 28.5C29.0149 28.5 27 26.4851 27 24C27 21.5149 29.0149 19.5 31.5 19.5C32.6471 19.5 33.6908 19.9327 34.4854 20.6396L36.6067 18.5182C35.2673 17.2699 33.4755 16.5 31.5 16.5C27.3581 16.5 24 19.8581 24 24C24 28.1419 27.3581 31.5 31.5 31.5C35.6419 31.5 39 28.1419 39 24C39 23.4971 38.9482 23.0062 38.8541 22.5311Z" fill="#FFC107"/>
<path fill-rule="evenodd" clip-rule="evenodd" d="M24.8672 20.5091L27.3313 22.3162C27.9981 20.6655 29.6128 19.5 31.5024 19.5C32.6496 19.5 33.6932 19.9328 34.4878 20.6396L36.6092 18.5182C35.2697 17.2699 33.4779 16.5 31.5024 16.5C28.6217 16.5 26.1234 18.1264 24.8672 20.5091Z" fill="#FF3D00"/>
<path fill-rule="evenodd" clip-rule="evenodd" d="M31.4972 31.4993C33.4344 31.4993 35.1947 30.7579 36.5256 29.5523L34.2043 27.588C33.4513 28.1584 32.5153 28.4993 31.4972 28.4993C29.5464 28.4993 27.8901 27.2554 27.2661 25.5195L24.8203 27.4039C26.0616 29.8328 28.5823 31.4993 31.4972 31.4993Z" fill="#4CAF50"/>
<path fill-rule="evenodd" clip-rule="evenodd" d="M38.8541 22.5311H38.25V22.5H31.5V25.5H35.7386C35.4416 26.3389 34.902 27.0623 34.206 27.5891C34.2064 27.5888 34.2068 27.5887 34.2071 27.5884L36.5284 29.5526C36.3641 29.7019 39 27.75 39 24C39 23.4971 38.9482 23.0063 38.8541 22.5311Z" fill="#1976D2"/>
</g>
</svg>
