<svg width="179" height="49" viewBox="0 0 179 49" fill="none" xmlns="http://www.w3.org/2000/svg">
<rect x="0.5" y="0.5" width="178" height="48" rx="24" fill="#FAFAFA" stroke="#EEEEEE"/>
<path d="M27.2588 20.0723L23.4922 24.7883V26.7323V28.6403H27.1739H30.8556V30.9803V33.3203H32.838H34.8488L34.7638 29.0723L34.6788 24.8603L30.9972 24.7523L27.3438 24.6443L30.9972 20.0003L34.6788 15.3203H32.838H30.9972L27.2588 20.0723Z" fill="#1F2937"/>
<path d="M36.5234 17.5527V19.7847L38.166 17.7327C39.0723 16.6167 39.8936 15.6807 40.0069 15.6807C40.1202 15.6807 40.2051 16.6887 40.2051 17.9127V20.1807L38.3643 22.2687L36.5234 24.3567V27.0567V29.7207H38.3643H40.2051V27.2727V24.8247L42.046 22.5207L43.8868 20.2167V17.7687V15.3207H40.2051H36.5234V17.5527Z" fill="#1F2937"/>
<path d="M42.0987 27.1287C41.2207 28.2807 40.4844 29.3247 40.4844 29.4687C40.4844 29.6127 41.249 29.7207 42.1836 29.7207H43.8829V27.3807C43.8829 26.0847 43.8545 25.0407 43.7979 25.0407C43.7696 25.0407 43.0049 25.9767 42.0987 27.1287Z" fill="#1F2937"/>
<path d="M59.8299 29.3203V20.3603H60.6107V28.5651H65.5643V29.3203H59.8299ZM69.1729 29.4611C68.6268 29.4611 68.1404 29.3246 67.7137 29.0515C67.287 28.7784 66.95 28.403 66.7025 27.9251C66.455 27.4387 66.3313 26.8798 66.3313 26.2483C66.3313 25.6168 66.455 25.0622 66.7025 24.5843C66.95 24.0979 67.287 23.7182 67.7137 23.4451C68.1404 23.172 68.6268 23.0355 69.1729 23.0355C69.7276 23.0355 70.2182 23.172 70.6449 23.4451C71.0716 23.7182 71.4086 24.0979 71.6561 24.5843C71.9036 25.0622 72.0273 25.6168 72.0273 26.2483C72.0273 26.8798 71.9036 27.4387 71.6561 27.9251C71.4086 28.403 71.0716 28.7784 70.6449 29.0515C70.2182 29.3246 69.7276 29.4611 69.1729 29.4611ZM69.1729 28.7315C69.574 28.7315 69.9281 28.6291 70.2353 28.4243C70.551 28.2195 70.7985 27.9336 70.9777 27.5667C71.1569 27.1912 71.2465 26.7518 71.2465 26.2483C71.2465 25.7448 71.1569 25.3096 70.9777 24.9427C70.7985 24.5672 70.551 24.2771 70.2353 24.0723C69.9281 23.8675 69.574 23.7651 69.1729 23.7651C68.5756 23.7651 68.0806 23.9912 67.6881 24.4435C67.3041 24.8872 67.1121 25.4888 67.1121 26.2483C67.1121 26.9992 67.3041 27.6008 67.6881 28.0531C68.0806 28.5054 68.5756 28.7315 69.1729 28.7315ZM75.7833 32.0851C74.6484 32.0851 73.795 31.6414 73.2233 30.7539L73.8633 30.3315C74.29 31.0056 74.93 31.3427 75.7833 31.3427C76.4148 31.3427 76.8969 31.1336 77.2297 30.7155C77.5625 30.3059 77.7289 29.6872 77.7289 28.8595V27.7587C77.5156 28.0915 77.2382 28.356 76.8969 28.5523C76.5556 28.74 76.1673 28.8339 75.7321 28.8339C75.2116 28.8339 74.7465 28.7144 74.3369 28.4755C73.9358 28.2366 73.6158 27.8995 73.3769 27.4643C73.1465 27.0291 73.0313 26.5171 73.0313 25.9283C73.0313 25.3395 73.1465 24.8318 73.3769 24.4051C73.6158 23.9699 73.9358 23.6328 74.3369 23.3939C74.7465 23.155 75.2116 23.0355 75.7321 23.0355C76.1758 23.0355 76.5726 23.1379 76.9225 23.3427C77.2724 23.539 77.554 23.812 77.7673 24.1619L77.7801 23.1891H78.4969V28.8595C78.4969 29.9688 78.2452 30.7838 77.7417 31.3043C77.2468 31.8248 76.594 32.0851 75.7833 32.0851ZM75.7705 28.1171C76.1545 28.1171 76.4958 28.0275 76.7945 27.8483C77.0932 27.6606 77.3278 27.4046 77.4985 27.0803C77.6692 26.7475 77.7545 26.3635 77.7545 25.9283C77.7545 25.4931 77.6692 25.1134 77.4985 24.7891C77.3278 24.4648 77.0932 24.2131 76.7945 24.0339C76.4958 23.8462 76.1545 23.7523 75.7705 23.7523C75.395 23.7523 75.058 23.8462 74.7593 24.0339C74.4692 24.2131 74.2388 24.4648 74.0681 24.7891C73.8974 25.1134 73.8121 25.4931 73.8121 25.9283C73.8121 26.3635 73.8974 26.7475 74.0681 27.0803C74.2388 27.4046 74.4692 27.6606 74.7593 27.8483C75.058 28.0275 75.395 28.1171 75.7705 28.1171ZM83.7174 29.3203V20.3603H84.4982V29.3203H83.7174ZM86.3394 29.3203V23.1891H87.069L87.0946 24.0595C87.2909 23.7694 87.5511 23.5262 87.8754 23.3299C88.2082 23.1336 88.5837 23.0355 89.0018 23.0355C89.6589 23.0355 90.1879 23.2446 90.589 23.6627C90.9901 24.0808 91.1906 24.6782 91.1906 25.4547V29.3203H90.4226V25.5699C90.4226 24.9726 90.2775 24.5246 89.9874 24.2259C89.7058 23.9272 89.3389 23.7779 88.8866 23.7779C88.5453 23.7779 88.2381 23.8547 87.965 24.0083C87.7005 24.1534 87.4914 24.3539 87.3378 24.6099C87.1927 24.8574 87.1202 25.1347 87.1202 25.4419V29.3203H86.3394ZM97.6334 29.3203L95.7134 23.1891H96.4814L97.9534 28.0659L99.3998 23.1891H100.027L101.473 28.0659L102.945 23.1891H103.713L101.793 29.3203H101.166L99.7198 24.4307L98.2478 29.3203H97.6334ZM105.044 29.3203V23.1891H105.812V29.3203H105.044ZM105.428 21.8579C105.266 21.8579 105.126 21.8024 105.006 21.6915C104.887 21.572 104.827 21.4312 104.827 21.2691C104.827 21.0984 104.887 20.9576 105.006 20.8467C105.126 20.7358 105.266 20.6803 105.428 20.6803C105.591 20.6803 105.727 20.7358 105.838 20.8467C105.949 20.9576 106.004 21.0984 106.004 21.2691C106.004 21.4312 105.949 21.572 105.838 21.6915C105.727 21.8024 105.591 21.8579 105.428 21.8579ZM110.108 29.4611C109.562 29.4611 109.152 29.3459 108.879 29.1155C108.606 28.8851 108.47 28.4712 108.47 27.8739V23.9059H107.138V23.1891H108.47V20.9363H109.238V23.1891H111.106V23.9059H109.238V27.7459C109.238 28.1299 109.319 28.3944 109.481 28.5395C109.643 28.676 109.895 28.7443 110.236 28.7443C110.381 28.7443 110.535 28.723 110.697 28.6803C110.859 28.6376 110.995 28.5907 111.106 28.5395V29.2947C110.987 29.3374 110.833 29.3758 110.646 29.4099C110.458 29.444 110.279 29.4611 110.108 29.4611ZM112.339 29.3203V20.0787H113.12V24.0595C113.299 23.7694 113.551 23.5262 113.875 23.3299C114.208 23.1336 114.584 23.0355 115.002 23.0355C115.659 23.0355 116.188 23.2446 116.589 23.6627C116.99 24.0808 117.191 24.6782 117.191 25.4547V29.3203H116.423V25.5699C116.423 24.9726 116.278 24.5246 115.987 24.2259C115.706 23.9272 115.339 23.7779 114.887 23.7779C114.545 23.7779 114.238 23.8547 113.965 24.0083C113.7 24.1534 113.491 24.3539 113.338 24.6099C113.193 24.8574 113.12 25.1347 113.12 25.4419V29.3203H112.339ZM122.417 29.3203V20.3603H123.198V29.3203H122.417ZM125.039 29.3203V23.1891H125.769L125.795 24.0595C125.991 23.7694 126.251 23.5262 126.575 23.3299C126.908 23.1336 127.284 23.0355 127.702 23.0355C128.359 23.0355 128.888 23.2446 129.289 23.6627C129.69 24.0808 129.891 24.6782 129.891 25.4547V29.3203H129.123V25.5699C129.123 24.9726 128.978 24.5246 128.687 24.2259C128.406 23.9272 128.039 23.7779 127.587 23.7779C127.245 23.7779 126.938 23.8547 126.665 24.0083C126.4 24.1534 126.191 24.3539 126.038 24.6099C125.893 24.8574 125.82 25.1347 125.82 25.4419V29.3203H125.039ZM133.745 29.4611C133.199 29.4611 132.79 29.3459 132.517 29.1155C132.244 28.8851 132.107 28.4712 132.107 27.8739V23.9059H130.776V23.1891H132.107V20.9363H132.875V23.1891H134.744V23.9059H132.875V27.7459C132.875 28.1299 132.956 28.3944 133.118 28.5395C133.28 28.676 133.532 28.7443 133.873 28.7443C134.019 28.7443 134.172 28.723 134.334 28.6803C134.496 28.6376 134.633 28.5907 134.744 28.5395V29.2947C134.624 29.3374 134.471 29.3758 134.283 29.4099C134.095 29.444 133.916 29.4611 133.745 29.4611ZM135.977 29.3203V23.1891H136.719L136.758 24.2515C136.928 23.8931 137.197 23.603 137.564 23.3811C137.94 23.1507 138.353 23.0355 138.806 23.0355C138.925 23.0355 139.045 23.044 139.164 23.0611C139.292 23.0696 139.399 23.0867 139.484 23.1123V23.8675C139.407 23.8504 139.296 23.8334 139.151 23.8163C139.015 23.7992 138.874 23.7907 138.729 23.7907C138.37 23.7907 138.042 23.876 137.743 24.0467C137.445 24.2088 137.206 24.4307 137.026 24.7123C136.856 24.9854 136.77 25.2968 136.77 25.6467V29.3203H135.977ZM142.228 29.4355C141.63 29.444 141.144 29.3075 140.769 29.0259C140.402 28.7443 140.218 28.3347 140.218 27.7971C140.218 27.3875 140.355 27.0291 140.628 26.7219C140.909 26.4147 141.264 26.1758 141.69 26.0051C142.125 25.8259 142.573 25.7363 143.034 25.7363C143.666 25.7363 144.165 25.8856 144.532 26.1843V25.1347C144.532 24.563 144.412 24.1918 144.173 24.0211C143.934 23.8419 143.55 23.7523 143.021 23.7523C142.68 23.7523 142.3 23.8163 141.882 23.9443C141.464 24.0638 141.11 24.2174 140.82 24.4051L140.449 23.7907C140.781 23.5774 141.182 23.3982 141.652 23.2531C142.13 23.108 142.586 23.0355 143.021 23.0355C143.798 23.0355 144.37 23.1848 144.737 23.4835C145.104 23.7822 145.287 24.3326 145.287 25.1347V28.5267C145.287 28.6888 145.33 28.7827 145.415 28.8083C145.509 28.8254 145.709 28.804 146.017 28.7443V29.2947C145.931 29.3288 145.816 29.3587 145.671 29.3843C145.526 29.4184 145.389 29.4355 145.261 29.4355C144.971 29.4355 144.784 29.3758 144.698 29.2563C144.613 29.1368 144.562 28.9107 144.545 28.5779C144.28 28.868 143.93 29.0814 143.495 29.2179C143.06 29.3544 142.637 29.427 142.228 29.4355ZM142.266 28.7315C142.676 28.723 143.056 28.659 143.405 28.5395C143.764 28.42 144.045 28.2494 144.25 28.0275C144.464 27.7971 144.562 27.5198 144.545 27.1955C144.519 26.931 144.374 26.7347 144.109 26.6067C143.845 26.4702 143.504 26.4062 143.085 26.4147C142.736 26.4147 142.398 26.4744 142.074 26.5939C141.75 26.7134 141.485 26.8798 141.281 27.0931C141.084 27.2979 140.986 27.5368 140.986 27.8099C140.986 28.1256 141.106 28.3603 141.345 28.5139C141.584 28.659 141.891 28.7315 142.266 28.7315Z" fill="#6B7280"/>
</svg>
