<svg width="23" height="30" viewBox="0 0 23 30" fill="none" xmlns="http://www.w3.org/2000/svg">
<path d="M13.9167 1H3.58333C2.89819 1 2.24111 1.28562 1.75664 1.79402C1.27217 2.30241 1 2.99195 1 3.71093V25.3983C1 26.1173 1.27217 26.8068 1.75664 27.3152C2.24111 27.8236 2.89819 28.1093 3.58333 28.1093H19.0833C19.7685 28.1093 20.4256 27.8236 20.91 27.3152C21.3945 26.8068 21.6667 26.1173 21.6667 25.3983V9.13278M13.9167 1C14.3256 0.999309 14.7305 1.0835 15.1083 1.24774C15.486 1.41198 15.8291 1.65301 16.1177 1.95696L20.7522 6.82036C21.0426 7.12331 21.2729 7.48365 21.4299 7.88055C21.5869 8.27745 21.6673 8.70306 21.6667 9.13278M13.9167 1V7.77731C13.9167 8.1368 14.0528 8.48157 14.295 8.73577C14.5372 8.98997 14.8658 9.13277 15.2083 9.13277L21.6667 9.13278M8.75 10.4882H6.16667M16.5 15.9101H6.16667M16.5 21.3319H6.16667" stroke="#1F2937" stroke-width="2" stroke-linecap="round" stroke-linejoin="round"/>
</svg>
