<svg width="217" height="114" viewBox="0 0 217 114" fill="none" xmlns="http://www.w3.org/2000/svg">
<g filter="url(#filter0_d_321_5435)">
<rect x="32" width="153" height="48" rx="20" fill="#2563EB"/>
</g>
<path d="M89.0276 30V21.04H90.4996V28.6304H95.1716V30H89.0276ZM100.078 30.2048C99.2673 30.2048 98.542 30.0128 97.902 29.6288C97.2705 29.2448 96.7756 28.7029 96.4172 28.0032C96.0588 27.2949 95.8796 26.4672 95.8796 25.52C95.8796 24.5643 96.0588 23.7365 96.4172 23.0368C96.7756 22.3285 97.2705 21.7824 97.902 21.3984C98.542 21.0059 99.2673 20.8096 100.078 20.8096C100.889 20.8096 101.605 21.0059 102.228 21.3984C102.86 21.7824 103.355 22.3285 103.713 23.0368C104.08 23.7365 104.264 24.5643 104.264 25.52C104.264 26.4672 104.08 27.2949 103.713 28.0032C103.355 28.7029 102.86 29.2448 102.228 29.6288C101.605 30.0128 100.889 30.2048 100.078 30.2048ZM100.078 28.7712C100.616 28.7712 101.081 28.6389 101.473 28.3744C101.866 28.1013 102.169 27.7216 102.382 27.2352C102.604 26.7403 102.715 26.1685 102.715 25.52C102.715 24.8629 102.604 24.2912 102.382 23.8048C102.169 23.3099 101.866 22.9301 101.473 22.6656C101.081 22.3925 100.616 22.256 100.078 22.256C99.5489 22.256 99.0838 22.3925 98.6828 22.6656C98.2817 22.9301 97.9702 23.3099 97.7484 23.8048C97.535 24.2912 97.4284 24.8629 97.4284 25.52C97.4284 26.1685 97.535 26.7403 97.7484 27.2352C97.9702 27.7216 98.2817 28.1013 98.6828 28.3744C99.0838 28.6389 99.5489 28.7712 100.078 28.7712ZM109.09 30.2048C108.279 30.2048 107.558 30.0128 106.926 29.6288C106.303 29.2448 105.813 28.7029 105.454 28.0032C105.104 27.2949 104.93 26.4672 104.93 25.52C104.93 24.5643 105.104 23.7365 105.454 23.0368C105.813 22.3285 106.303 21.7824 106.926 21.3984C107.558 21.0059 108.279 20.8096 109.09 20.8096C109.755 20.8096 110.365 20.9291 110.92 21.168C111.483 21.3984 111.948 21.6971 112.315 22.064L111.381 23.216C111.125 22.9344 110.792 22.704 110.382 22.5248C109.981 22.3456 109.55 22.256 109.09 22.256C108.552 22.256 108.087 22.3925 107.694 22.6656C107.31 22.9387 107.012 23.3227 106.798 23.8176C106.585 24.304 106.478 24.8715 106.478 25.52C106.478 26.16 106.585 26.7275 106.798 27.2224C107.012 27.7088 107.31 28.0885 107.694 28.3616C108.087 28.6347 108.552 28.7712 109.09 28.7712C109.491 28.7712 109.823 28.7328 110.088 28.656C110.361 28.5707 110.6 28.4683 110.805 28.3488V26.4288H109.333V25.0464H112.302V29.3216C111.91 29.5947 111.432 29.8123 110.869 29.9744C110.314 30.128 109.721 30.2048 109.09 30.2048ZM117.503 30V21.04H118.975V30H117.503ZM120.79 30V21.04H122.262L126.486 27.4016V21.04H127.984V30H126.563L122.262 23.4592V30H120.79Z" fill="white"/>
<defs>
<filter id="filter0_d_321_5435" x="0" y="0" width="217" height="114" filterUnits="userSpaceOnUse" color-interpolation-filters="sRGB">
<feFlood flood-opacity="0" result="BackgroundImageFix"/>
<feColorMatrix in="SourceAlpha" type="matrix" values="0 0 0 0 0 0 0 0 0 0 0 0 0 0 0 0 0 0 127 0" result="hardAlpha"/>
<feMorphology radius="8" operator="erode" in="SourceAlpha" result="effect1_dropShadow_321_5435"/>
<feOffset dy="34"/>
<feGaussianBlur stdDeviation="20"/>
<feColorMatrix type="matrix" values="0 0 0 0 0.482353 0 0 0 0 0.462745 0 0 0 0 0.945098 0 0 0 0.239216 0"/>
<feBlend mode="normal" in2="BackgroundImageFix" result="effect1_dropShadow_321_5435"/>
<feBlend mode="normal" in="SourceGraphic" in2="effect1_dropShadow_321_5435" result="shape"/>
</filter>
</defs>
</svg>
