<svg width="117" height="42" viewBox="0 0 117 42" fill="none" xmlns="http://www.w3.org/2000/svg">
<path d="M37.1577 24.888H40.7417V27H34.4217V15.768H37.1577V24.888ZM47.3587 27.112C46.3027 27.112 45.332 26.8667 44.4467 26.376C43.572 25.8853 42.8734 25.2027 42.3507 24.328C41.8387 23.4427 41.5827 22.4507 41.5827 21.352C41.5827 20.2533 41.8387 19.2667 42.3507 18.392C42.8734 17.5173 43.572 16.8347 44.4467 16.344C45.332 15.8533 46.3027 15.608 47.3587 15.608C48.4147 15.608 49.38 15.8533 50.2547 16.344C51.14 16.8347 51.8334 17.5173 52.3347 18.392C52.8467 19.2667 53.1027 20.2533 53.1027 21.352C53.1027 22.4507 52.8467 23.4427 52.3347 24.328C51.8227 25.2027 51.1294 25.8853 50.2547 26.376C49.38 26.8667 48.4147 27.112 47.3587 27.112ZM47.3587 24.616C48.2547 24.616 48.9694 24.3173 49.5027 23.72C50.0467 23.1227 50.3187 22.3333 50.3187 21.352C50.3187 20.36 50.0467 19.5707 49.5027 18.984C48.9694 18.3867 48.2547 18.088 47.3587 18.088C46.452 18.088 45.7267 18.3813 45.1827 18.968C44.6494 19.5547 44.3827 20.3493 44.3827 21.352C44.3827 22.344 44.6494 23.1387 45.1827 23.736C45.7267 24.3227 46.452 24.616 47.3587 24.616ZM62.0808 19.32C61.8781 18.9467 61.5848 18.664 61.2008 18.472C60.8275 18.2693 60.3848 18.168 59.8728 18.168C58.9875 18.168 58.2781 18.4613 57.7448 19.048C57.2115 19.624 56.9448 20.3973 56.9448 21.368C56.9448 22.4027 57.2221 23.2133 57.7768 23.8C58.3421 24.376 59.1155 24.664 60.0968 24.664C60.7688 24.664 61.3341 24.4933 61.7928 24.152C62.2621 23.8107 62.6035 23.32 62.8168 22.68H59.3448V20.664H65.2968V23.208C65.0941 23.8907 64.7475 24.5253 64.2568 25.112C63.7768 25.6987 63.1635 26.1733 62.4168 26.536C61.6701 26.8987 60.8275 27.08 59.8888 27.08C58.7795 27.08 57.7875 26.84 56.9128 26.36C56.0488 25.8693 55.3715 25.192 54.8808 24.328C54.4008 23.464 54.1608 22.4773 54.1608 21.368C54.1608 20.2587 54.4008 19.272 54.8808 18.408C55.3715 17.5333 56.0488 16.856 56.9128 16.376C57.7768 15.8853 58.7635 15.64 59.8728 15.64C61.2168 15.64 62.3475 15.9653 63.2648 16.616C64.1928 17.2667 64.8061 18.168 65.1048 19.32H62.0808ZM69.5483 15.768V27H66.8123V15.768H69.5483ZM81.5791 27H78.8431L74.2671 20.072V27H71.5311V15.768H74.2671L78.8431 22.728V15.768H81.5791V27Z" fill="#2563EB"/>
</svg>
