<svg width="149" height="34" viewBox="0 0 149 34" fill="none" xmlns="http://www.w3.org/2000/svg">
<path d="M20.8438 1.25157C21.1483 1.48431 21.4354 1.72846 21.7215 1.98355C21.8261 2.07211 21.9306 2.16067 22.0383 2.25192C22.7641 2.88094 23.4123 3.55925 24.0543 4.27095C24.6139 4.8852 25.2119 5.44444 25.8282 6.00104C26.31 6.43893 26.7453 6.89273 27.1637 7.3905C27.7126 8.02906 28.3221 8.60418 28.9582 9.15441C30.9558 10.8946 33.0924 12.8163 33.4416 15.5896C33.534 17.3105 33.4973 18.7557 32.6102 20.2693C32.4659 20.5678 32.4659 20.5678 32.5849 20.8513C32.7835 21.135 32.9936 21.3742 33.2395 21.618C33.3215 21.7007 33.4034 21.7834 33.4879 21.8685C33.6968 22.0847 33.6968 22.0847 33.9804 22.0559C34.5738 20.8659 35.0784 19.7355 35.3276 18.4186C35.3521 18.2892 35.3765 18.1598 35.4018 18.0266C35.738 15.714 35.2173 13.4049 33.882 11.4819C33.6533 11.182 33.4163 10.8927 33.1722 10.6052C33.0724 10.481 33.0724 10.481 32.9706 10.3542C32.5533 9.84414 32.0969 9.42028 31.5961 8.99338C31.2111 8.65281 30.8434 8.29751 30.4779 7.9362C30.4114 7.87147 30.345 7.80674 30.2765 7.74005C30.1137 7.57774 29.9583 7.40807 29.8043 7.23737C29.8043 7.14846 29.8043 7.05955 29.8043 6.96795C29.9942 6.81046 30.1847 6.65354 30.3772 6.49931C30.6176 6.29004 30.8144 6.07144 31.0194 5.82762C31.6039 5.15135 32.225 4.51254 32.8543 3.87819C32.9868 3.74416 33.1187 3.60954 33.2499 3.47431C34.8965 1.77799 36.8463 0.190078 39.3153 0.0749299C40.8443 0.0567095 42.1375 0.170217 43.5367 0.830062C43.6202 0.867919 43.7037 0.905775 43.7898 0.944779C45.5124 1.81318 46.9293 3.59119 48.2843 4.93935C48.3784 5.03292 48.4725 5.12648 48.5695 5.22288C49.0661 5.71668 49.5622 6.2109 50.058 6.70546C50.5669 7.21281 51.0773 7.71856 51.5881 8.22398C51.9842 8.61661 52.3792 9.01045 52.7738 9.40461C52.9614 9.59158 53.1495 9.7781 53.3381 9.96413C54.5552 11.1661 55.537 12.2772 56.1829 13.8889C56.2366 14.0205 56.2902 14.1521 56.3455 14.2877C57.0079 16.0874 56.7522 18.2511 56.0992 20.0109C55.2274 21.8046 53.8319 23.1671 52.4378 24.5554C52.2289 24.765 52.02 24.9747 51.8113 25.1845C51.3759 25.6212 50.9395 26.057 50.5025 26.4921C49.9456 27.0466 49.3915 27.6039 48.8381 28.162C48.4083 28.5948 47.977 29.0259 47.5451 29.4566C47.3403 29.6614 47.1359 29.8666 46.9321 30.0724C44.9933 32.0274 42.9493 33.5607 40.0762 33.5739C36.5975 33.4989 34.4769 31.3519 32.1644 29.0462C31.9512 28.8342 31.7379 28.6221 31.5246 28.4101C31.0795 27.9672 30.6349 27.5237 30.1907 27.0799C29.6244 26.5142 29.0559 25.9508 28.4868 25.3879C28.0461 24.9512 27.607 24.513 27.1682 24.0744C26.9594 23.8661 26.75 23.6584 26.54 23.4513C24.5267 21.4629 23.1881 19.6561 23.1613 16.7178C23.1558 15.5307 23.2987 14.3595 23.9795 13.3526C24.1853 13.0451 24.1853 13.0451 24.0664 12.7501C23.8627 12.4717 23.6504 12.229 23.4054 11.986C23.3235 11.9034 23.2415 11.8207 23.1571 11.7355C22.9481 11.5193 22.9481 11.5193 22.6645 11.5482C21.3269 13.9868 20.6683 16.6114 21.4521 19.3616C21.5824 19.7322 21.7279 20.0945 21.8815 20.4561C21.9174 20.5414 21.9534 20.6267 21.9904 20.7145C22.749 22.394 24.0175 23.5794 25.329 24.8264C25.5593 25.0462 25.7875 25.2679 26.0155 25.49C26.0869 25.5567 26.1583 25.6233 26.2319 25.692C26.427 25.883 26.427 25.883 26.7059 26.232C26.6395 26.847 26.2144 27.1762 25.7908 27.586C25.7122 27.6637 25.6336 27.7414 25.5525 27.8215C25.3009 28.07 25.0478 28.3172 24.7947 28.5642C24.5441 28.81 24.2939 29.0561 24.044 29.3026C23.8886 29.4557 23.7329 29.6083 23.5766 29.7605C23.1263 30.2026 22.7081 30.6603 22.3052 31.1461C21.1758 32.4352 19.2428 33.3565 17.5454 33.5065C15.4374 33.6272 13.4278 33.3416 11.7544 31.9342C10.6814 30.972 9.65897 29.9605 8.63641 28.9452C8.5409 28.8504 8.44539 28.7556 8.34698 28.6579C7.84219 28.1567 7.33788 27.655 6.83389 27.153C6.42016 26.7411 6.00547 26.3301 5.5899 25.9201C5.0837 25.4205 4.57922 24.9194 4.07588 24.417C3.88559 24.2276 3.69474 24.0388 3.50328 23.8506C1.56331 21.9417 0.0466505 19.9568 7.56811e-05 17.1154C-0.00942693 14.3091 0.875629 12.4888 2.83103 10.4935C3.22618 10.0961 3.62457 9.7021 4.02352 9.30859C4.80614 8.53657 5.58264 7.76771 6.29773 6.93144C6.59031 6.59265 6.89923 6.27537 7.21455 5.95759C7.32795 5.84229 7.44134 5.72698 7.55817 5.60818C7.84602 5.35138 7.84602 5.35138 8.11545 5.35138C8.14796 5.27544 8.18048 5.1995 8.21398 5.12126C9.16053 3.41124 11.3665 1.62836 13.0998 0.771125C13.2448 0.698711 13.3898 0.626297 13.5392 0.551689C15.8171 -0.419247 18.7625 -0.0606888 20.8438 1.25157Z" fill="#22C55E"/>
<path d="M20.8438 1.25157C21.1483 1.48431 21.4354 1.72846 21.7215 1.98355C21.826 2.07211 21.9306 2.16067 22.0383 2.25192C22.7641 2.88094 23.4123 3.55925 24.0543 4.27095C24.6139 4.8852 25.2119 5.44444 25.8282 6.00104C26.31 6.43893 26.7453 6.89273 27.1637 7.3905C27.7126 8.02906 28.3221 8.60418 28.9581 9.15441C30.9557 10.8946 33.0924 12.8163 33.4416 15.5896C33.5476 17.5651 33.3882 18.9855 32.3639 20.7087C31.672 20.1303 31.027 19.5233 30.3937 18.8817C30.3072 18.7946 30.2207 18.7075 30.1316 18.6178C29.7815 18.2652 29.4319 17.9123 29.0855 17.5561C28.782 17.2602 28.4722 16.9813 28.1541 16.7015C27.5082 16.1238 26.8952 15.5179 26.2849 14.9029C26.1881 14.8053 26.0912 14.7077 25.9914 14.6071C25.5869 14.1989 25.183 13.7902 24.7796 13.3809C24.4821 13.0794 24.1838 12.7787 23.8853 12.478C23.7937 12.3846 23.7021 12.2912 23.6077 12.1949C23.5231 12.1098 23.4384 12.0247 23.3512 11.9371C23.2769 11.8617 23.2026 11.7864 23.126 11.7088C22.9412 11.5194 22.9412 11.5194 22.6645 11.5482C21.3269 13.9868 20.6683 16.6114 21.4521 19.3616C21.5824 19.7322 21.7279 20.0945 21.8815 20.4561C21.9174 20.5414 21.9534 20.6267 21.9904 20.7145C22.749 22.394 24.0175 23.5794 25.329 24.8264C25.5592 25.0462 25.7874 25.2679 26.0155 25.49C26.0869 25.5567 26.1583 25.6233 26.2319 25.692C26.427 25.883 26.427 25.883 26.7059 26.232C26.6395 26.847 26.2144 27.1762 25.7908 27.586C25.7122 27.6637 25.6336 27.7414 25.5525 27.8215C25.3009 28.07 25.0478 28.3172 24.7947 28.5642C24.5441 28.81 24.2939 29.0561 24.044 29.3026C23.8886 29.4557 23.7329 29.6083 23.5766 29.7605C23.1263 30.2026 22.7081 30.6603 22.3052 31.1461C21.1758 32.4352 19.2428 33.3565 17.5454 33.5065C15.4374 33.6272 13.4278 33.3416 11.7544 31.9342C10.6814 30.972 9.65897 29.9605 8.63641 28.9452C8.5409 28.8504 8.44539 28.7556 8.34698 28.6579C7.84219 28.1567 7.33788 27.655 6.83389 27.153C6.42016 26.7411 6.00547 26.3301 5.5899 25.9201C5.0837 25.4205 4.57922 24.9194 4.07588 24.417C3.88559 24.2276 3.69474 24.0388 3.50328 23.8506C1.56331 21.9417 0.0466505 19.9568 7.56811e-05 17.1154C-0.00942693 14.3091 0.875629 12.4888 2.83103 10.4935C3.22618 10.0961 3.62457 9.7021 4.02352 9.30859C4.80614 8.53657 5.58264 7.76771 6.29773 6.93144C6.59031 6.59265 6.89923 6.27537 7.21455 5.95759C7.32794 5.84229 7.44134 5.72698 7.55817 5.60818C7.84602 5.35138 7.84602 5.35138 8.11545 5.35138C8.14796 5.27544 8.18048 5.1995 8.21398 5.12126C9.16053 3.41124 11.3665 1.62836 13.0998 0.771125C13.2448 0.698711 13.3898 0.626297 13.5392 0.551689C15.8171 -0.419247 18.7625 -0.0606888 20.8438 1.25157Z" fill="#2563EB"/>
<path d="M44.4877 17.2059C45.5719 17.9305 46.2334 18.9404 46.6431 20.1696C46.6526 20.5162 46.6558 20.8589 46.6516 21.2053C46.6509 21.2998 46.6503 21.3944 46.6497 21.4918C46.6481 21.7246 46.6457 21.9575 46.6431 22.1903C45.5213 22.1935 44.3995 22.1959 43.2777 22.1973C42.7569 22.198 42.236 22.199 41.7152 22.2005C41.213 22.202 40.7107 22.2028 40.2085 22.2031C40.0165 22.2034 39.8244 22.2039 39.6324 22.2046C39.3643 22.2056 39.0963 22.2056 38.8282 22.2056C38.6753 22.2059 38.5225 22.2062 38.365 22.2065C38.0215 22.1903 38.0215 22.1903 37.8868 22.0556C37.7255 20.7944 38.0693 19.5353 38.8045 18.5026C38.9433 18.3361 39.0864 18.1731 39.2339 18.0142C39.3376 17.9022 39.3376 17.9022 39.4433 17.788C40.8547 16.4306 42.8032 16.3366 44.4877 17.2059Z" fill="#F8FAFC"/>
<path d="M43.5952 10.9509C44.212 11.3102 44.7075 11.8536 45.0265 12.4917C45.1202 13.4905 45.1075 14.3639 44.4877 15.186C43.9741 15.7361 43.4021 16.0727 42.6538 16.1789C41.7347 16.2016 41.1484 16.0612 40.4463 15.4554C39.71 14.6804 39.5662 13.9406 39.588 12.8969C39.68 12.1509 40.0032 11.7052 40.5394 11.1988C41.4249 10.5351 42.5948 10.5101 43.5952 10.9509Z" fill="#F8FAFC"/>
<path d="M14.3125 12.8955C15.4683 12.8955 16.6242 12.8955 17.8151 12.8955C17.8151 14.0513 17.8151 15.2072 17.8151 16.3981C16.6592 16.3981 15.5034 16.3981 14.3125 16.3981C14.3125 15.2422 14.3125 14.0864 14.3125 12.8955Z" fill="#F8FAFC"/>
<path d="M10 12.8955C11.1558 12.8955 12.3117 12.8955 13.5026 12.8955C13.5026 14.0513 13.5026 15.2072 13.5026 16.3981C12.3467 16.3981 11.1909 16.3981 10 16.3981C10 15.2422 10 14.0864 10 12.8955Z" fill="#F8FAFC"/>
<path d="M14.4453 17.3418C15.6012 17.3418 16.757 17.3418 17.9479 17.3418C17.9479 18.4532 17.9479 19.5646 17.9479 20.7096C16.792 20.7096 15.6362 20.7096 14.4453 20.7096C14.4453 19.5982 14.4453 18.4869 14.4453 17.3418Z" fill="#F8FAFC"/>
<path d="M10 17.3418C11.1558 17.3418 12.3117 17.3418 13.5026 17.3418C13.5026 18.4532 13.5026 19.5646 13.5026 20.7096C12.3467 20.7096 11.1909 20.7096 10 20.7096C10 19.5982 10 18.4869 10 17.3418Z" fill="#F8FAFC"/>
<path d="M64.7344 10.4437C65.9686 10.4272 67.2028 10.4106 68.4743 10.3935C68.8576 10.3862 69.2409 10.3789 69.6357 10.3714C72.5827 10.3387 75.1214 10.6419 77.3191 12.7781C78.7772 14.3373 79.1146 15.8542 79.085 17.9408C79.0001 20.0399 78.3085 21.3447 76.8579 22.8669C76.214 23.4452 75.5792 23.7953 74.7746 24.0984C74.5136 24.2164 74.5136 24.2164 74.2475 24.3368C73.0914 24.7323 71.9411 24.728 70.735 24.7204C70.5822 24.7202 70.4295 24.72 70.2721 24.7198C69.7063 24.7188 69.1405 24.716 68.5747 24.7134C67.3074 24.7092 66.0401 24.7051 64.7344 24.7008C64.7344 19.996 64.7344 15.2911 64.7344 10.4437Z" fill="#1F2937"/>
<path d="M136.422 9.43945C137.548 9.43945 138.675 9.43945 139.836 9.43945C139.935 13.4154 139.935 13.4154 140.036 17.4716C140.699 16.8089 141.362 16.1463 142.044 15.4636C142.948 14.6603 142.948 14.6603 143.331 14.334C143.581 14.1185 143.819 13.8897 144.052 13.6563C144.467 13.6107 144.467 13.6107 144.97 13.6171C145.15 13.6184 145.33 13.6197 145.515 13.621C145.798 13.6261 145.798 13.6261 146.086 13.6312C146.275 13.633 146.465 13.6349 146.661 13.6367C147.13 13.6415 147.599 13.6481 148.068 13.6563C147.386 14.4681 146.696 15.251 145.935 15.9907C145.02 16.8704 145.02 16.8704 144.253 17.8732C144.337 18.6076 144.709 19.1166 145.119 19.7181C145.261 19.9272 145.403 20.1364 145.55 20.3519C146.255 21.3713 146.973 22.3824 147.695 23.3904C147.795 23.5315 147.896 23.6727 147.999 23.8181C148.09 23.9447 148.181 24.0713 148.274 24.2018C148.47 24.4997 148.47 24.4997 148.47 24.7005C144.742 25.0948 144.742 25.0948 143.658 24.2205C143.26 23.5939 142.951 22.967 142.647 22.2909C142.422 21.9662 142.189 21.647 141.944 21.3371C141.847 21.2097 141.749 21.0824 141.649 20.9512C141.581 20.8631 141.512 20.7751 141.442 20.6845C140.862 20.9444 140.403 21.1619 140.036 21.6885C139.96 22.2198 139.916 22.6999 139.898 23.2322C139.878 23.7167 139.857 24.2013 139.836 24.7005C138.709 24.7005 137.583 24.7005 136.422 24.7005C136.422 19.6644 136.422 14.6282 136.422 9.43945Z" fill="#1F2937"/>
<path d="M89.4617 14.3433C90.2327 14.9955 90.7164 15.6999 91.0384 16.6659C91.0555 16.934 91.062 17.2029 91.0612 17.4716C91.0611 17.6324 91.0611 17.7931 91.0611 17.9588C91.0601 18.1314 91.059 18.3039 91.058 18.4818C91.0577 18.6592 91.0574 18.8366 91.0571 19.0194C91.056 19.5862 91.0535 20.1529 91.0509 20.7196C91.0499 21.1038 91.049 21.4881 91.0482 21.8723C91.046 22.8142 91.0425 23.7561 91.0384 24.6981C89.9781 24.6981 88.9179 24.6981 87.8255 24.6981C87.8255 24.3667 87.8255 24.0354 87.8255 23.694C87.7085 23.781 87.5915 23.868 87.471 23.9576C86.1147 24.8788 85.0365 25.1594 83.4078 24.8989C82.2106 24.5427 81.5055 23.8994 80.7974 22.8908C80.438 21.8126 80.419 20.8432 80.9229 19.816C81.5876 19.0638 82.2543 18.5899 83.207 18.2723C83.5631 18.2558 83.9197 18.2508 84.2761 18.2527C84.4826 18.2534 84.689 18.254 84.9017 18.2547C85.2245 18.2572 85.2245 18.2572 85.5539 18.2598C85.7715 18.2607 85.989 18.2616 86.2132 18.2625C86.7506 18.2649 87.2881 18.2682 87.8255 18.2723C87.2892 17.101 87.2892 17.101 86.2191 16.4651C85.2287 16.344 84.3459 16.3519 83.4329 16.7789C82.8054 17.0675 82.8054 17.0675 82.3928 17.0408C81.8489 16.7984 81.7699 16.52 81.5504 15.9756C81.4494 15.7337 81.4494 15.7337 81.3464 15.487C81.199 15.0595 81.199 15.0595 81.199 14.6579C81.4831 14.5274 81.7676 14.3979 82.0524 14.2688C82.2108 14.1966 82.3692 14.1244 82.5324 14.05C84.5139 13.2331 87.6302 13.2075 89.4617 14.3433Z" fill="#1F2937"/>
<path d="M122.164 13.6547C123.291 13.6547 124.417 13.6547 125.578 13.6547C125.644 14.0523 125.71 14.4499 125.779 14.8595C125.969 14.698 126.16 14.5365 126.356 14.3701C127.539 13.3669 128.915 13.546 130.397 13.6547C131.594 13.97 132.309 14.6455 133.007 15.6627C133.581 16.7745 133.693 17.6341 133.669 18.8748C133.668 19.0422 133.667 19.2096 133.666 19.382C133.663 19.9119 133.655 20.4416 133.648 20.9715C133.645 21.3327 133.642 21.6939 133.639 22.0551C133.633 22.9365 133.621 23.8175 133.61 24.6989C132.417 24.6989 131.224 24.6989 129.995 24.6989C129.986 24.1985 129.976 23.6982 129.966 23.1827C129.955 22.6982 129.943 22.2137 129.932 21.7292C129.924 21.3925 129.917 21.0557 129.911 20.719C129.902 20.2349 129.89 19.751 129.878 19.267C129.875 19.1164 129.873 18.9658 129.871 18.8106C129.849 18.0601 129.819 17.7081 129.393 17.0684C128.579 16.797 127.834 16.7303 126.983 16.8676C126.43 17.3056 126.093 17.645 125.779 18.2732C125.747 18.7562 125.727 19.2344 125.715 19.718C125.711 19.8601 125.707 20.0021 125.702 20.1485C125.689 20.6027 125.677 21.0569 125.666 21.5111C125.657 21.8189 125.648 22.1266 125.639 22.4344C125.618 23.1892 125.598 23.944 125.578 24.6989C124.451 24.6989 123.325 24.6989 122.164 24.6989C122.164 21.0543 122.164 17.4097 122.164 13.6547Z" fill="#1F2937"/>
<path d="M103.289 10.4424C104.482 10.4424 105.675 10.4424 106.904 10.4424C106.904 14.1532 106.904 17.8641 106.904 21.6874C109.289 21.6874 111.675 21.6874 114.132 21.6874C114.132 22.6814 114.132 23.6753 114.132 24.6994C110.554 24.6994 106.976 24.6994 103.289 24.6994C103.289 19.9946 103.289 15.2898 103.289 10.4424Z" fill="#1F2937"/>
<path d="M68.3477 13.4555C69.0393 13.4306 69.7309 13.4058 70.4435 13.3802C70.6577 13.3692 70.8719 13.3583 71.0926 13.347C72.549 13.3219 73.4936 13.6701 74.5726 14.6603C75.4411 15.7535 75.7327 16.7497 75.6605 18.1454C75.4791 19.293 75.0264 20.0241 74.2212 20.8476C72.2026 22.2062 70.9238 21.8893 68.3477 21.8893C68.3477 19.1061 68.3477 16.323 68.3477 13.4555Z" fill="#F8FAFC"/>
<path d="M93.8516 13.6541C94.9781 13.6541 96.1046 13.6541 97.2652 13.6541C97.3315 14.0516 97.3978 14.4492 97.466 14.8589C97.6524 14.6974 97.8388 14.5358 98.0308 14.3694C98.7315 13.7621 99.2955 13.6282 100.215 13.6415C100.643 13.6477 100.643 13.6477 101.08 13.6541C101.08 14.648 101.08 15.642 101.08 16.6661C100.774 16.6785 100.468 16.691 100.152 16.7038C99.0715 16.808 98.6088 17.0918 97.8676 17.8709C97.572 18.4621 97.619 19.0683 97.6033 19.7174C97.5991 19.8594 97.595 20.0015 97.5907 20.1479C97.5775 20.6021 97.5657 21.0563 97.5539 21.5105C97.5452 21.8182 97.5365 22.126 97.5276 22.4337C97.5059 23.1885 97.486 23.9434 97.466 24.6983C96.2733 24.6983 95.0805 24.6983 93.8516 24.6983C93.8516 21.0537 93.8516 17.4091 93.8516 13.6541Z" fill="#1F2937"/>
<path d="M115.938 13.8574C116.998 13.8574 118.058 13.8574 119.15 13.8574C119.15 17.4357 119.15 21.0141 119.15 24.7008C118.09 24.7008 117.03 24.7008 115.938 24.7008C115.938 21.1225 115.938 17.5442 115.938 13.8574Z" fill="#1F2937"/>
<path d="M86.2702 20.0437C86.5239 20.0491 86.7776 20.0546 87.0389 20.0602C87.2326 20.0672 87.4262 20.0742 87.6257 20.0814C87.6869 21.4133 87.6869 21.4133 87.1362 22.0768C86.4566 22.5687 85.8451 22.5896 85.0254 22.5655C84.6136 22.491 84.6136 22.491 84.0112 22.0894C83.9233 21.3991 83.9233 21.3991 84.0112 20.6838C84.679 19.958 85.3255 20.0175 86.2702 20.0437Z" fill="#F8FAFC"/>
<path d="M118.147 8.63546C118.723 8.91751 119.099 9.18669 119.552 9.63948C119.69 11.0664 119.69 11.0664 119.176 11.7354C118.502 12.2306 118.011 12.3328 117.164 12.3174C116.36 12.1893 116.058 11.8726 115.536 11.2459C115.364 10.6676 115.362 10.2176 115.536 9.63948C116.331 8.70897 116.938 8.45965 118.147 8.63546Z" fill="#1F2937"/>
</svg>
