<svg width="117" height="42" viewBox="0 0 117 42" fill="none" xmlns="http://www.w3.org/2000/svg">
<rect width="117" height="42" rx="20" fill="#6B7280"/>
<path d="M19.6542 23.375H17.0417C16.2018 23.375 15.3964 23.7086 14.8025 24.3025C14.2086 24.8964 13.875 25.7018 13.875 26.5417V28.125M23.375 23.7708V22.5833C23.375 22.1634 23.5418 21.7607 23.8387 21.4637C24.1357 21.1668 24.5384 21 24.9583 21C25.3783 21 25.781 21.1668 26.0779 21.4637C26.3749 21.7607 26.5417 22.1634 26.5417 22.5833V23.7708M22.5833 17.0417C22.5833 18.7906 21.1656 20.2083 19.4167 20.2083C17.6678 20.2083 16.25 18.7906 16.25 17.0417C16.25 15.2928 17.6678 13.875 19.4167 13.875C21.1656 13.875 22.5833 15.2928 22.5833 17.0417ZM22.5034 24.1667H27.4133C27.8064 24.1667 28.125 24.4853 28.125 24.8784V27.4133C28.125 27.8064 27.8064 28.125 27.4133 28.125H22.5034C22.1103 28.125 21.7917 27.8064 21.7917 27.4133V24.8784C21.7917 24.4853 22.1103 24.1667 22.5034 24.1667Z" stroke="white" stroke-width="2" stroke-linecap="round" stroke-linejoin="round"/>
<path d="M47.9369 19.192C47.9369 19.7573 47.8036 20.2907 47.5369 20.792C47.2703 21.2933 46.8436 21.704 46.2569 22.024C45.6703 22.3333 44.9183 22.488 44.0009 22.488H41.9849V27H40.1609V15.88H44.0009C44.8543 15.88 45.5743 16.0293 46.1609 16.328C46.7583 16.616 47.2009 17.0107 47.4889 17.512C47.7876 18.0133 47.9369 18.5733 47.9369 19.192ZM44.0009 21C44.6943 21 45.2116 20.8453 45.5529 20.536C45.8943 20.216 46.0649 19.768 46.0649 19.192C46.0649 17.976 45.3769 17.368 44.0009 17.368H41.9849V21H44.0009ZM57.7566 22.376C57.7566 22.7067 57.7352 23.0053 57.6926 23.272H50.9566C51.0099 23.976 51.2712 24.5413 51.7406 24.968C52.2099 25.3947 52.7859 25.608 53.4686 25.608C54.4499 25.608 55.1432 25.1973 55.5486 24.376H57.5166C57.2499 25.1867 56.7646 25.8533 56.0606 26.376C55.3672 26.888 54.5032 27.144 53.4686 27.144C52.6259 27.144 51.8686 26.9573 51.1966 26.584C50.5352 26.2 50.0126 25.6667 49.6286 24.984C49.2552 24.2907 49.0686 23.4907 49.0686 22.584C49.0686 21.6773 49.2499 20.8827 49.6126 20.2C49.9859 19.5067 50.5032 18.9733 51.1646 18.6C51.8366 18.2267 52.6046 18.04 53.4686 18.04C54.3006 18.04 55.0419 18.2213 55.6926 18.584C56.3432 18.9467 56.8499 19.4587 57.2126 20.12C57.5752 20.7707 57.7566 21.5227 57.7566 22.376ZM55.8526 21.8C55.8419 21.128 55.6019 20.5893 55.1326 20.184C54.6632 19.7787 54.0819 19.576 53.3886 19.576C52.7592 19.576 52.2206 19.7787 51.7726 20.184C51.3246 20.5787 51.0579 21.1173 50.9726 21.8H55.8526ZM63.9996 18.04C64.6929 18.04 65.3116 18.184 65.8556 18.472C66.4102 18.76 66.8422 19.1867 67.1516 19.752C67.4609 20.3173 67.6156 21 67.6156 21.8V27H65.8076V22.072C65.8076 21.2827 65.6102 20.68 65.2156 20.264C64.8209 19.8373 64.2822 19.624 63.5996 19.624C62.9169 19.624 62.3729 19.8373 61.9676 20.264C61.5729 20.68 61.3756 21.2827 61.3756 22.072V27H59.5516V18.184H61.3756V19.192C61.6742 18.8293 62.0529 18.5467 62.5116 18.344C62.9809 18.1413 63.4769 18.04 63.9996 18.04ZM69.3342 22.552C69.3342 21.6667 69.5155 20.8827 69.8782 20.2C70.2515 19.5173 70.7529 18.9893 71.3822 18.616C72.0222 18.232 72.7315 18.04 73.5102 18.04C74.0862 18.04 74.6515 18.168 75.2062 18.424C75.7715 18.6693 76.2195 19 76.5502 19.416V15.16H78.3902V27H76.5502V25.672C76.2515 26.0987 75.8355 26.4507 75.3022 26.728C74.7795 27.0053 74.1769 27.144 73.4942 27.144C72.7262 27.144 72.0222 26.952 71.3822 26.568C70.7529 26.1733 70.2515 25.6293 69.8782 24.936C69.5155 24.232 69.3342 23.4373 69.3342 22.552ZM76.5502 22.584C76.5502 21.976 76.4222 21.448 76.1662 21C75.9209 20.552 75.5955 20.2107 75.1902 19.976C74.7849 19.7413 74.3475 19.624 73.8782 19.624C73.4089 19.624 72.9715 19.7413 72.5662 19.976C72.1609 20.2 71.8302 20.536 71.5742 20.984C71.3289 21.4213 71.2062 21.944 71.2062 22.552C71.2062 23.16 71.3289 23.6933 71.5742 24.152C71.8302 24.6107 72.1609 24.9627 72.5662 25.208C72.9822 25.4427 73.4195 25.56 73.8782 25.56C74.3475 25.56 74.7849 25.4427 75.1902 25.208C75.5955 24.9733 75.9209 24.632 76.1662 24.184C76.4222 23.7253 76.5502 23.192 76.5502 22.584ZM81.7139 17.016C81.3833 17.016 81.1059 16.904 80.8819 16.68C80.6579 16.456 80.5459 16.1787 80.5459 15.848C80.5459 15.5173 80.6579 15.24 80.8819 15.016C81.1059 14.792 81.3833 14.68 81.7139 14.68C82.0339 14.68 82.3059 14.792 82.5299 15.016C82.7539 15.24 82.8659 15.5173 82.8659 15.848C82.8659 16.1787 82.7539 16.456 82.5299 16.68C82.3059 16.904 82.0339 17.016 81.7139 17.016ZM82.6099 18.184V27H80.7859V18.184H82.6099ZM89.4527 18.04C90.146 18.04 90.7647 18.184 91.3087 18.472C91.8634 18.76 92.2954 19.1867 92.6047 19.752C92.914 20.3173 93.0687 21 93.0687 21.8V27H91.2607V22.072C91.2607 21.2827 91.0634 20.68 90.6687 20.264C90.274 19.8373 89.7354 19.624 89.0527 19.624C88.37 19.624 87.826 19.8373 87.4207 20.264C87.026 20.68 86.8287 21.2827 86.8287 22.072V27H85.0047V18.184H86.8287V19.192C87.1274 18.8293 87.506 18.5467 87.9647 18.344C88.434 18.1413 88.93 18.04 89.4527 18.04ZM98.9473 18.04C99.63 18.04 100.233 18.1787 100.755 18.456C101.289 18.7227 101.705 19.0587 102.003 19.464V18.184H103.843V27.144C103.843 27.9547 103.673 28.6747 103.331 29.304C102.99 29.944 102.494 30.4453 101.843 30.808C101.203 31.1707 100.435 31.352 99.5393 31.352C98.3446 31.352 97.3526 31.0693 96.5633 30.504C95.774 29.9493 95.326 29.192 95.2193 28.232H97.0273C97.166 28.6907 97.4593 29.0587 97.9073 29.336C98.366 29.624 98.91 29.768 99.5393 29.768C100.275 29.768 100.867 29.544 101.315 29.096C101.774 28.648 102.003 27.9973 102.003 27.144V25.672C101.694 26.088 101.273 26.44 100.739 26.728C100.217 27.0053 99.6193 27.144 98.9473 27.144C98.1793 27.144 97.4753 26.952 96.8353 26.568C96.206 26.1733 95.7046 25.6293 95.3313 24.936C94.9686 24.232 94.7873 23.4373 94.7873 22.552C94.7873 21.6667 94.9686 20.8827 95.3313 20.2C95.7046 19.5173 96.206 18.9893 96.8353 18.616C97.4753 18.232 98.1793 18.04 98.9473 18.04ZM102.003 22.584C102.003 21.976 101.875 21.448 101.619 21C101.374 20.552 101.049 20.2107 100.643 19.976C100.238 19.7413 99.8006 19.624 99.3313 19.624C98.862 19.624 98.4246 19.7413 98.0193 19.976C97.614 20.2 97.2833 20.536 97.0273 20.984C96.782 21.4213 96.6593 21.944 96.6593 22.552C96.6593 23.16 96.782 23.6933 97.0273 24.152C97.2833 24.6107 97.614 24.9627 98.0193 25.208C98.4353 25.4427 98.8726 25.56 99.3313 25.56C99.8006 25.56 100.238 25.4427 100.643 25.208C101.049 24.9733 101.374 24.632 101.619 24.184C101.875 23.7253 102.003 23.192 102.003 22.584Z" fill="#F8FAFC"/>
</svg>
