<svg width="107" height="46" viewBox="0 0 107 46" fill="none" xmlns="http://www.w3.org/2000/svg">
<rect width="107" height="46" rx="20" fill="#2563EB"/>
<path d="M19.5 16V25.3333M19.5 16L23.6667 19.8889M19.5 16L15.3333 19.8889M27 25.3333V28.4444C27 28.857 26.8244 29.2527 26.5118 29.5444C26.1993 29.8361 25.7754 30 25.3333 30H13.6667C13.2246 30 12.8007 29.8361 12.4882 29.5444C12.1756 29.2527 12 28.857 12 28.4444V25.3333" stroke="white" stroke-width="2" stroke-linecap="round" stroke-linejoin="round"/>
<path d="M43.6692 21.384C43.6692 22.0347 43.5199 22.632 43.2212 23.176C42.9225 23.7093 42.4639 24.1413 41.8452 24.472C41.2265 24.8027 40.4585 24.968 39.5412 24.968H37.8452V29H35.1092V17.768H39.5412C40.4372 17.768 41.1945 17.9227 41.8132 18.232C42.4319 18.5413 42.8959 18.968 43.2052 19.512C43.5145 20.056 43.6692 20.68 43.6692 21.384ZM39.3332 22.792C39.8559 22.792 40.2452 22.6693 40.5012 22.424C40.7572 22.1787 40.8852 21.832 40.8852 21.384C40.8852 20.936 40.7572 20.5893 40.5012 20.344C40.2452 20.0987 39.8559 19.976 39.3332 19.976H37.8452V22.792H39.3332ZM53.9096 20.072V29H51.1736V27.784C50.8962 28.1787 50.5176 28.4987 50.0376 28.744C49.5682 28.9787 49.0456 29.096 48.4696 29.096C47.7869 29.096 47.1842 28.9467 46.6616 28.648C46.1389 28.3387 45.7336 27.896 45.4456 27.32C45.1576 26.744 45.0136 26.0667 45.0136 25.288V20.072H47.7336V24.92C47.7336 25.5173 47.8882 25.9813 48.1976 26.312C48.5069 26.6427 48.9229 26.808 49.4456 26.808C49.9789 26.808 50.4002 26.6427 50.7096 26.312C51.0189 25.9813 51.1736 25.5173 51.1736 24.92V20.072H53.9096ZM58.6108 21.336C58.8668 20.92 59.2348 20.584 59.7148 20.328C60.1948 20.072 60.7441 19.944 61.3628 19.944C62.0988 19.944 62.7655 20.1307 63.3628 20.504C63.9601 20.8773 64.4295 21.4107 64.7708 22.104C65.1228 22.7973 65.2988 23.6027 65.2988 24.52C65.2988 25.4373 65.1228 26.248 64.7708 26.952C64.4295 27.6453 63.9601 28.184 63.3628 28.568C62.7655 28.9413 62.0988 29.128 61.3628 29.128C60.7335 29.128 60.1841 29.0053 59.7148 28.76C59.2455 28.504 58.8775 28.168 58.6108 27.752V29H55.8748V17.16H58.6108V21.336ZM62.5148 24.52C62.5148 23.8373 62.3228 23.304 61.9388 22.92C61.5655 22.5253 61.1015 22.328 60.5468 22.328C60.0028 22.328 59.5388 22.5253 59.1548 22.92C58.7815 23.3147 58.5948 23.8533 58.5948 24.536C58.5948 25.2187 58.7815 25.7573 59.1548 26.152C59.5388 26.5467 60.0028 26.744 60.5468 26.744C61.0908 26.744 61.5548 26.5467 61.9388 26.152C62.3228 25.7467 62.5148 25.2027 62.5148 24.52ZM69.4702 17.16V29H66.7342V17.16H69.4702ZM72.8289 19.144C72.3489 19.144 71.9543 19.0053 71.6449 18.728C71.3463 18.44 71.1969 18.088 71.1969 17.672C71.1969 17.2453 71.3463 16.8933 71.6449 16.616C71.9543 16.328 72.3489 16.184 72.8289 16.184C73.2983 16.184 73.6823 16.328 73.9809 16.616C74.2903 16.8933 74.4449 17.2453 74.4449 17.672C74.4449 18.088 74.2903 18.44 73.9809 18.728C73.6823 19.0053 73.2983 19.144 72.8289 19.144ZM74.1889 20.072V29H71.4529V20.072H74.1889ZM79.8037 29.128C79.025 29.128 78.3317 28.9947 77.7237 28.728C77.1157 28.4613 76.6357 28.0987 76.2837 27.64C75.9317 27.1707 75.7344 26.648 75.6917 26.072H78.3957C78.4277 26.3813 78.5717 26.632 78.8277 26.824C79.0837 27.016 79.3984 27.112 79.7717 27.112C80.113 27.112 80.3744 27.048 80.5557 26.92C80.7477 26.7813 80.8437 26.6053 80.8437 26.392C80.8437 26.136 80.7104 25.9493 80.4437 25.832C80.177 25.704 79.745 25.5653 79.1477 25.416C78.5077 25.2667 77.9744 25.112 77.5477 24.952C77.121 24.7813 76.753 24.52 76.4437 24.168C76.1344 23.8053 75.9797 23.32 75.9797 22.712C75.9797 22.2 76.1184 21.736 76.3957 21.32C76.6837 20.8933 77.0997 20.5573 77.6437 20.312C78.1984 20.0667 78.8544 19.944 79.6117 19.944C80.7317 19.944 81.6117 20.2213 82.2517 20.776C82.9024 21.3307 83.2757 22.0667 83.3717 22.984H80.8437C80.801 22.6747 80.6624 22.4293 80.4277 22.248C80.2037 22.0667 79.905 21.976 79.5317 21.976C79.2117 21.976 78.9664 22.04 78.7957 22.168C78.625 22.2853 78.5397 22.4507 78.5397 22.664C78.5397 22.92 78.673 23.112 78.9397 23.24C79.217 23.368 79.6437 23.496 80.2197 23.624C80.881 23.7947 81.4197 23.9653 81.8357 24.136C82.2517 24.296 82.6144 24.5627 82.9237 24.936C83.2437 25.2987 83.409 25.7893 83.4197 26.408C83.4197 26.9307 83.2704 27.4 82.9717 27.816C82.6837 28.2213 82.2624 28.5413 81.7077 28.776C81.1637 29.0107 80.529 29.128 79.8037 29.128ZM90.5816 19.976C91.6056 19.976 92.4269 20.3173 93.0456 21C93.6642 21.672 93.9736 22.6 93.9736 23.784V29H91.2536V24.152C91.2536 23.5547 91.0989 23.0907 90.7896 22.76C90.4802 22.4293 90.0642 22.264 89.5416 22.264C89.0189 22.264 88.6029 22.4293 88.2936 22.76C87.9842 23.0907 87.8296 23.5547 87.8296 24.152V29H85.0936V17.16H87.8296V21.272C88.1069 20.8773 88.4856 20.5627 88.9656 20.328C89.4456 20.0933 89.9842 19.976 90.5816 19.976Z" fill="#F8FAFC"/>
</svg>
