<svg width="117" height="42" viewBox="0 0 117 42" fill="none" xmlns="http://www.w3.org/2000/svg">
<rect width="117" height="42" rx="20" fill="#2563EB"/>
<path d="M25.3 30V28C25.3 26.9391 24.8996 25.9217 24.187 25.1716C23.4744 24.4214 22.5078 24 21.5 24H15.8C14.7922 24 13.8256 24.4214 13.113 25.1716C12.4004 25.9217 12 26.9391 12 28V30M28.15 17V23M31 20H25.3M22.45 16C22.45 18.2091 20.7487 20 18.65 20C16.5513 20 14.85 18.2091 14.85 16C14.85 13.7909 16.5513 12 18.65 12C20.7487 12 22.45 13.7909 22.45 16Z" stroke="white" stroke-width="2" stroke-linecap="round" stroke-linejoin="round"/>
<path d="M46.1791 27L43.6191 22.552H42.2271V27H40.4031V15.88H44.2431C45.0965 15.88 45.8165 16.0293 46.4031 16.328C47.0005 16.6267 47.4431 17.0267 47.7311 17.528C48.0298 18.0293 48.1791 18.5893 48.1791 19.208C48.1791 19.9333 47.9658 20.5947 47.5391 21.192C47.1231 21.7787 46.4778 22.1787 45.6031 22.392L48.3551 27H46.1791ZM42.2271 21.096H44.2431C44.9258 21.096 45.4378 20.9253 45.7791 20.584C46.1311 20.2427 46.3071 19.784 46.3071 19.208C46.3071 18.632 46.1365 18.184 45.7951 17.864C45.4538 17.5333 44.9365 17.368 44.2431 17.368H42.2271V21.096ZM58.5925 22.376C58.5925 22.7067 58.5712 23.0053 58.5285 23.272H51.7925C51.8458 23.976 52.1072 24.5413 52.5765 24.968C53.0458 25.3947 53.6218 25.608 54.3045 25.608C55.2858 25.608 55.9792 25.1973 56.3845 24.376H58.3525C58.0858 25.1867 57.6005 25.8533 56.8965 26.376C56.2032 26.888 55.3392 27.144 54.3045 27.144C53.4618 27.144 52.7045 26.9573 52.0325 26.584C51.3712 26.2 50.8485 25.6667 50.4645 24.984C50.0912 24.2907 49.9045 23.4907 49.9045 22.584C49.9045 21.6773 50.0858 20.8827 50.4485 20.2C50.8218 19.5067 51.3392 18.9733 52.0005 18.6C52.6725 18.2267 53.4405 18.04 54.3045 18.04C55.1365 18.04 55.8778 18.2213 56.5285 18.584C57.1792 18.9467 57.6858 19.4587 58.0485 20.12C58.4112 20.7707 58.5925 21.5227 58.5925 22.376ZM56.6885 21.8C56.6778 21.128 56.4378 20.5893 55.9685 20.184C55.4992 19.7787 54.9178 19.576 54.2245 19.576C53.5952 19.576 53.0565 19.7787 52.6085 20.184C52.1605 20.5787 51.8938 21.1173 51.8085 21.8H56.6885ZM59.7795 22.552C59.7795 21.6667 59.9608 20.8827 60.3235 20.2C60.6968 19.5173 61.1982 18.9893 61.8275 18.616C62.4675 18.232 63.1768 18.04 63.9555 18.04C64.6382 18.04 65.2408 18.1787 65.7635 18.456C66.2968 18.7333 66.7075 19.0693 66.9955 19.464V18.184H68.8355V31.192H66.9955V25.72C66.7075 26.1147 66.2915 26.4507 65.7475 26.728C65.2035 27.0053 64.5848 27.144 63.8915 27.144C63.1342 27.144 62.4408 26.952 61.8115 26.568C61.1928 26.1733 60.6968 25.6293 60.3235 24.936C59.9608 24.232 59.7795 23.4373 59.7795 22.552ZM66.9955 22.584C66.9955 21.976 66.8675 21.448 66.6115 21C66.3662 20.552 66.0408 20.2107 65.6355 19.976C65.2302 19.7413 64.7928 19.624 64.3235 19.624C63.8542 19.624 63.4168 19.7413 63.0115 19.976C62.6062 20.2 62.2755 20.536 62.0195 20.984C61.7742 21.4213 61.6515 21.944 61.6515 22.552C61.6515 23.16 61.7742 23.6933 62.0195 24.152C62.2755 24.6107 62.6062 24.9627 63.0115 25.208C63.4275 25.4427 63.8648 25.56 64.3235 25.56C64.7928 25.56 65.2302 25.4427 65.6355 25.208C66.0408 24.9733 66.3662 24.632 66.6115 24.184C66.8675 23.7253 66.9955 23.192 66.9955 22.584ZM79.2153 18.184V27H77.3913V25.96C77.1033 26.3227 76.7246 26.6107 76.2553 26.824C75.7966 27.0267 75.3059 27.128 74.7833 27.128C74.0899 27.128 73.4659 26.984 72.9113 26.696C72.3673 26.408 71.9353 25.9813 71.6153 25.416C71.3059 24.8507 71.1513 24.168 71.1513 23.368V18.184H72.9593V23.096C72.9593 23.8853 73.1566 24.4933 73.5513 24.92C73.9459 25.336 74.4846 25.544 75.1673 25.544C75.8499 25.544 76.3886 25.336 76.7833 24.92C77.1886 24.4933 77.3913 23.8853 77.3913 23.096V18.184H79.2153ZM89.7019 22.376C89.7019 22.7067 89.6805 23.0053 89.6379 23.272H82.9019C82.9552 23.976 83.2165 24.5413 83.6859 24.968C84.1552 25.3947 84.7312 25.608 85.4139 25.608C86.3952 25.608 87.0885 25.1973 87.4939 24.376H89.4619C89.1952 25.1867 88.7099 25.8533 88.0059 26.376C87.3125 26.888 86.4485 27.144 85.4139 27.144C84.5712 27.144 83.8139 26.9573 83.1419 26.584C82.4805 26.2 81.9579 25.6667 81.5739 24.984C81.2005 24.2907 81.0139 23.4907 81.0139 22.584C81.0139 21.6773 81.1952 20.8827 81.5579 20.2C81.9312 19.5067 82.4485 18.9733 83.1099 18.6C83.7819 18.2267 84.5499 18.04 85.4139 18.04C86.2459 18.04 86.9872 18.2213 87.6379 18.584C88.2885 18.9467 88.7952 19.4587 89.1579 20.12C89.5205 20.7707 89.7019 21.5227 89.7019 22.376ZM87.7979 21.8C87.7872 21.128 87.5472 20.5893 87.0779 20.184C86.6085 19.7787 86.0272 19.576 85.3339 19.576C84.7045 19.576 84.1659 19.7787 83.7179 20.184C83.2699 20.5787 83.0032 21.1173 82.9179 21.8H87.7979ZM94.6969 27.144C94.0035 27.144 93.3795 27.0213 92.8249 26.776C92.2809 26.52 91.8489 26.1787 91.5289 25.752C91.2089 25.3147 91.0382 24.8293 91.0169 24.296H92.9049C92.9369 24.6693 93.1129 24.984 93.4329 25.24C93.7635 25.4853 94.1742 25.608 94.6649 25.608C95.1769 25.608 95.5715 25.512 95.8489 25.32C96.1369 25.1173 96.2809 24.8613 96.2809 24.552C96.2809 24.2213 96.1209 23.976 95.8009 23.816C95.4915 23.656 94.9955 23.48 94.3129 23.288C93.6515 23.1067 93.1129 22.9307 92.6969 22.76C92.2809 22.5893 91.9182 22.328 91.6089 21.976C91.3102 21.624 91.1609 21.16 91.1609 20.584C91.1609 20.1147 91.2995 19.688 91.5769 19.304C91.8542 18.9093 92.2489 18.6 92.7609 18.376C93.2835 18.152 93.8809 18.04 94.5529 18.04C95.5555 18.04 96.3609 18.296 96.9689 18.808C97.5875 19.3093 97.9182 19.9973 97.9609 20.872H96.1369C96.1049 20.4773 95.9449 20.1627 95.6569 19.928C95.3689 19.6933 94.9795 19.576 94.4889 19.576C94.0089 19.576 93.6409 19.6667 93.3849 19.848C93.1289 20.0293 93.0009 20.2693 93.0009 20.568C93.0009 20.8027 93.0862 21 93.2569 21.16C93.4275 21.32 93.6355 21.448 93.8809 21.544C94.1262 21.6293 94.4889 21.7413 94.9689 21.88C95.6089 22.0507 96.1315 22.2267 96.5369 22.408C96.9529 22.5787 97.3102 22.8347 97.6089 23.176C97.9075 23.5173 98.0622 23.9707 98.0729 24.536C98.0729 25.0373 97.9342 25.4853 97.6569 25.88C97.3795 26.2747 96.9849 26.584 96.4729 26.808C95.9715 27.032 95.3795 27.144 94.6969 27.144ZM102.172 19.672V24.552C102.172 24.8827 102.246 25.1227 102.396 25.272C102.556 25.4107 102.822 25.48 103.196 25.48H104.316V27H102.876C102.054 27 101.425 26.808 100.988 26.424C100.55 26.04 100.332 25.416 100.332 24.552V19.672H99.2918V18.184H100.332V15.992H102.172V18.184H104.316V19.672H102.172Z" fill="#F8FAFC"/>
</svg>
