<svg width="112" height="27" viewBox="0 0 112 27" fill="none" xmlns="http://www.w3.org/2000/svg">
<path d="M0.990049 19V10.04H5.08605C5.92232 10.04 6.58365 10.2363 7.07005 10.6288C7.56498 11.0213 7.81245 11.6827 7.81245 12.6128C7.81245 13.3979 7.63325 13.9952 7.27485 14.4048C6.91645 14.8059 6.42152 15.0533 5.79005 15.1472L7.71005 19H5.98205L4.25405 15.2112H2.46205V19H0.990049ZM2.46205 13.8288H4.88125C5.31645 13.8288 5.65352 13.7349 5.89245 13.5472C6.13138 13.3595 6.25085 13.048 6.25085 12.6128C6.25085 12.1861 6.13138 11.8789 5.89245 11.6912C5.65352 11.5035 5.31645 11.4096 4.88125 11.4096H2.46205V13.8288ZM11.3625 19.1408C10.4665 19.1408 9.74122 18.872 9.18655 18.3344C8.63188 17.7883 8.35455 16.9819 8.35455 15.9152C8.35455 15.2496 8.47828 14.6779 8.72575 14.2C8.97322 13.7136 9.31882 13.3424 9.76255 13.0864C10.2063 12.8219 10.714 12.6896 11.2857 12.6896C11.8575 12.6896 12.3439 12.8304 12.7449 13.112C13.146 13.3851 13.4532 13.7605 13.6665 14.2384C13.8799 14.7163 13.9865 15.2539 13.9865 15.8512V16.184H9.77535C9.80948 16.7984 9.97162 17.2379 10.2617 17.5024C10.5519 17.7584 10.9273 17.8864 11.3881 17.8864C11.7892 17.8864 12.1177 17.7925 12.3737 17.6048C12.6297 17.4085 12.8516 17.1184 13.0393 16.7344L14.1017 17.4768C13.786 18.0656 13.3977 18.4923 12.9369 18.7568C12.4847 19.0128 11.9599 19.1408 11.3625 19.1408ZM9.83935 15.0704H12.5657C12.4975 14.6693 12.3481 14.3621 12.1177 14.1488C11.8959 13.9269 11.61 13.816 11.2601 13.816C10.8847 13.816 10.5732 13.9184 10.3257 14.1232C10.0868 14.328 9.92468 14.6437 9.83935 15.0704ZM17.8711 19.1408C17.2653 19.1408 16.8002 19.0299 16.4759 18.808C16.1602 18.5861 16.0023 18.1424 16.0023 17.4768V14.0848H14.8247V12.8432H16.0023V10.68H17.4359V12.8432H19.1383V14.0848H17.4359V17.1056C17.4359 17.3957 17.5042 17.592 17.6407 17.6944C17.7858 17.7968 17.9906 17.848 18.2551 17.848C18.4173 17.848 18.5794 17.8224 18.7415 17.7712C18.9122 17.72 19.0445 17.6688 19.1383 17.6176V18.936C18.9847 18.9957 18.7927 19.0427 18.5623 19.0768C18.3319 19.1195 18.1015 19.1408 17.8711 19.1408ZM22.3481 19.1408C21.7081 19.1408 21.1833 18.936 20.7737 18.5264C20.3727 18.1168 20.1721 17.5109 20.1721 16.7088V12.8432H21.6185V16.3888C21.6185 16.8581 21.7167 17.2165 21.9129 17.464C22.1177 17.7115 22.3823 17.8352 22.7065 17.8352C23.0735 17.8352 23.3721 17.7072 23.6025 17.4512C23.8329 17.1952 23.9481 16.8197 23.9481 16.3248V12.8432H25.3946V19H24.1017L24.0249 18.2704C23.8628 18.5008 23.6409 18.7056 23.3593 18.8848C23.0777 19.0555 22.7407 19.1408 22.3481 19.1408ZM26.962 19V12.8432H28.2676L28.3572 13.7136C28.5108 13.4064 28.7498 13.1589 29.074 12.9712C29.4068 12.7835 29.7567 12.6896 30.1237 12.6896C30.2687 12.6896 30.401 12.6981 30.5204 12.7152C30.6399 12.7323 30.7423 12.7536 30.8276 12.7792V14.1744C30.7167 14.1403 30.5844 14.1147 30.4308 14.0976C30.2858 14.072 30.1151 14.0592 29.9189 14.0592C29.5007 14.0592 29.1423 14.1957 28.8436 14.4688C28.5535 14.7419 28.4084 15.1259 28.4084 15.6208V19H26.962ZM31.8496 19V12.8432H33.1424L33.2192 13.5728C33.3898 13.3339 33.616 13.1291 33.8976 12.9584C34.1792 12.7792 34.512 12.6896 34.896 12.6896C35.536 12.6896 36.0565 12.8944 36.4576 13.304C36.8672 13.7136 37.072 14.3152 37.072 15.1088V19H35.6256V15.4544C35.6256 14.968 35.5274 14.6053 35.3312 14.3664C35.1349 14.1189 34.8704 13.9952 34.5376 13.9952C34.1706 13.9952 33.872 14.1232 33.6416 14.3792C33.4112 14.6267 33.296 14.9979 33.296 15.4928V19H31.8496ZM42.365 19V10.04H43.837V13.5984H47.9074V10.04H49.4051V19H47.9074V14.968H43.837V19H42.365ZM53.7367 19.1408C53.1735 19.1408 52.6657 19.0085 52.2135 18.744C51.7697 18.4709 51.4156 18.0955 51.1511 17.6176C50.8951 17.1312 50.7671 16.5637 50.7671 15.9152C50.7671 15.2667 50.8951 14.7035 51.1511 14.2256C51.4156 13.7392 51.7697 13.3637 52.2135 13.0992C52.6657 12.8261 53.1735 12.6896 53.7367 12.6896C54.3169 12.6896 54.8289 12.8261 55.2727 13.0992C55.7249 13.3637 56.0791 13.7392 56.3351 14.2256C56.5911 14.7035 56.7191 15.2667 56.7191 15.9152C56.7191 16.5637 56.5911 17.1312 56.3351 17.6176C56.0791 18.0955 55.7249 18.4709 55.2727 18.744C54.8289 19.0085 54.3169 19.1408 53.7367 19.1408ZM53.7367 17.8352C54.1889 17.8352 54.5559 17.6688 54.8375 17.336C55.1276 17.0032 55.2727 16.5296 55.2727 15.9152C55.2727 15.3008 55.1276 14.8272 54.8375 14.4944C54.5559 14.1616 54.1889 13.9952 53.7367 13.9952C53.2929 13.9952 52.9303 14.1616 52.6487 14.4944C52.3671 14.8272 52.2263 15.3008 52.2263 15.9152C52.2263 16.5296 52.3671 17.0032 52.6487 17.336C52.9303 17.6688 53.2929 17.8352 53.7367 17.8352ZM57.9621 19V12.8432H59.2549L59.3445 13.5856C59.4639 13.3296 59.6645 13.1163 59.9461 12.9456C60.2277 12.7749 60.5519 12.6896 60.9189 12.6896C61.3199 12.6896 61.6698 12.7835 61.9685 12.9712C62.2671 13.1589 62.4975 13.4277 62.6597 13.7776C62.8218 13.4619 63.0565 13.2016 63.3637 12.9968C63.6794 12.792 64.0378 12.6896 64.4389 12.6896C65.0447 12.6896 65.5311 12.9029 65.8981 13.3296C66.2735 13.7477 66.4613 14.3408 66.4613 15.1088V19H65.0021V15.4416C65.0021 14.9893 64.921 14.6352 64.7589 14.3792C64.5967 14.1232 64.3706 13.9952 64.0805 13.9952C63.7135 13.9952 63.4277 14.1275 63.2229 14.392C63.0266 14.6565 62.9285 15.032 62.9285 15.5184V19H61.4821V15.4416C61.4821 14.9893 61.3967 14.6352 61.2261 14.3792C61.0554 14.1232 60.825 13.9952 60.5349 13.9952C60.1765 13.9952 59.8991 14.1317 59.7029 14.4048C59.5066 14.6693 59.4085 15.0405 59.4085 15.5184V19H57.9621ZM70.7125 19.1408C69.8165 19.1408 69.0912 18.872 68.5365 18.3344C67.9819 17.7883 67.7045 16.9819 67.7045 15.9152C67.7045 15.2496 67.8283 14.6779 68.0757 14.2C68.3232 13.7136 68.6688 13.3424 69.1125 13.0864C69.5563 12.8219 70.064 12.6896 70.6357 12.6896C71.2075 12.6896 71.6939 12.8304 72.0949 13.112C72.496 13.3851 72.8032 13.7605 73.0165 14.2384C73.2299 14.7163 73.3365 15.2539 73.3365 15.8512V16.184H69.1253C69.1595 16.7984 69.3216 17.2379 69.6117 17.5024C69.9019 17.7584 70.2773 17.8864 70.7381 17.8864C71.1392 17.8864 71.4677 17.7925 71.7237 17.6048C71.9797 17.4085 72.2016 17.1184 72.3893 16.7344L73.4517 17.4768C73.136 18.0656 72.7477 18.4923 72.2869 18.7568C71.8347 19.0128 71.3099 19.1408 70.7125 19.1408ZM69.1893 15.0704H71.9157C71.8475 14.6693 71.6981 14.3621 71.4677 14.1488C71.2459 13.9269 70.96 13.816 70.6101 13.816C70.2347 13.816 69.9232 13.9184 69.6757 14.1232C69.4368 14.328 69.2747 14.6437 69.1893 15.0704Z" fill="#1F2937"/>
<mask id="mask0_327_1870" style="mask-type:luminance" maskUnits="userSpaceOnUse" x="85" y="0" width="27" height="27">
<rect x="85" width="27" height="27" fill="white"/>
</mask>
<g mask="url(#mask0_327_1870)">
<path fill-rule="evenodd" clip-rule="evenodd" d="M79.6199 4.74776C79.4612 4.90606 79.372 5.12099 79.372 5.34514C79.372 5.56928 79.4612 5.78422 79.6199 5.94251L89.1492 15.4701L79.6199 24.9978C79.29 25.3276 79.2899 25.8625 79.6198 26.1924C79.9496 26.5223 80.4844 26.5225 80.8144 26.1927L90.9396 16.0675C91.0983 15.9092 91.1875 15.6943 91.1875 15.4701C91.1875 15.246 91.0983 15.0311 90.9396 14.8728L80.8146 4.74776C80.6563 4.58907 80.4414 4.49988 80.2172 4.49988C79.9931 4.49988 79.7782 4.58907 79.6199 4.74776V4.74776Z" fill="#1F2937"/>
</g>
</svg>
