<svg width="112" height="27" viewBox="0 0 112 27" fill="none" xmlns="http://www.w3.org/2000/svg">
<path d="M1.21895 19V10.0272H5.12295C5.96775 10.0272 6.60775 10.2235 7.04295 10.616C7.48668 11.0085 7.70855 11.5931 7.70855 12.3696C7.70855 13.8288 6.94055 14.6053 5.40455 14.6992L7.69575 19H6.77415L4.53415 14.712H1.99975V19H1.21895ZM1.99975 13.9568H5.05895C5.67335 13.9568 6.12988 13.8288 6.42855 13.5728C6.73575 13.3168 6.88935 12.9157 6.88935 12.3696C6.88935 11.8235 6.73575 11.4224 6.42855 11.1664C6.12988 10.9104 5.67335 10.7824 5.05895 10.7824H1.99975V13.9568ZM11.3997 19.1408C10.8451 19.1408 10.3501 19.0128 9.91495 18.7568C9.48828 18.4923 9.15122 18.1211 8.90375 17.6432C8.66482 17.1568 8.54535 16.5851 8.54535 15.928C8.54535 15.288 8.66482 14.7291 8.90375 14.2512C9.15122 13.7733 9.48828 13.4021 9.91495 13.1376C10.3416 12.8645 10.828 12.728 11.3741 12.728C11.9288 12.728 12.3981 12.8688 12.7821 13.1504C13.1747 13.4235 13.4733 13.7819 13.6781 14.2256C13.8829 14.6608 13.9853 15.1216 13.9853 15.608V15.864H9.32615C9.30908 16.632 9.48828 17.2549 9.86375 17.7328C10.2477 18.2021 10.764 18.4368 11.4125 18.4368C11.8904 18.4368 12.2915 18.3173 12.6157 18.0784C12.94 17.8309 13.2045 17.4683 13.4093 16.9904L14.0493 17.3616C13.5032 18.5477 12.62 19.1408 11.3997 19.1408ZM9.37735 15.1984H13.2173C13.1747 14.8656 13.068 14.5627 12.8973 14.2896C12.7352 14.0165 12.5219 13.7989 12.2573 13.6368C12.0013 13.4747 11.7069 13.3936 11.3741 13.3936C10.8536 13.3936 10.4141 13.5557 10.0557 13.88C9.70588 14.1957 9.47975 14.6352 9.37735 15.1984ZM17.9971 19.1408C17.4509 19.1408 17.0413 19.0256 16.7683 18.7952C16.4952 18.5648 16.3587 18.1509 16.3587 17.5536V13.5856H15.0275V12.8688H16.3587V10.616H17.1267V12.8688H18.9955V13.5856H17.1267V17.4256C17.1267 17.8096 17.2077 18.0741 17.3699 18.2192C17.532 18.3557 17.7837 18.424 18.1251 18.424C18.2701 18.424 18.4237 18.4027 18.5859 18.36C18.748 18.3173 18.8845 18.2704 18.9955 18.2192V18.9744C18.876 19.0171 18.7224 19.0555 18.5347 19.0896C18.3469 19.1237 18.1677 19.1408 17.9971 19.1408ZM22.5021 19.1408C21.8535 19.1408 21.3287 18.9317 20.9277 18.5136C20.5266 18.0955 20.3261 17.4981 20.3261 16.7216V12.8688H21.0941V16.6192C21.0941 17.2165 21.2349 17.6645 21.5165 17.9632C21.8066 18.2619 22.1778 18.4112 22.6301 18.4112C23.1506 18.4112 23.573 18.2491 23.8973 17.9248C24.2215 17.6005 24.3837 17.2037 24.3837 16.7344V12.8688H25.1645V18.9872H24.4349L24.4093 18.1296C24.2301 18.4112 23.9741 18.6501 23.6413 18.8464C23.3085 19.0427 22.9287 19.1408 22.5021 19.1408ZM27.0659 19V12.8688H27.8083L27.8467 13.9312C28.0174 13.5728 28.2862 13.2827 28.6531 13.0608C29.0286 12.8304 29.4425 12.7152 29.8947 12.7152C30.0142 12.7152 30.1337 12.7237 30.2531 12.7408C30.3811 12.7493 30.4878 12.7664 30.5731 12.792V13.5472C30.4963 13.5301 30.3854 13.5131 30.2404 13.496C30.1038 13.4789 29.963 13.4704 29.8179 13.4704C29.4595 13.4704 29.131 13.5557 28.8323 13.7264C28.5337 13.8885 28.2947 14.1104 28.1155 14.392C27.9449 14.6651 27.8595 14.9765 27.8595 15.3264V19H27.0659ZM31.8784 19V12.8688H32.608L32.6336 13.7392C32.8299 13.4491 33.0902 13.2059 33.4144 13.0096C33.7472 12.8133 34.1227 12.7152 34.5408 12.7152C35.1979 12.7152 35.727 12.9243 36.128 13.3424C36.5291 13.7605 36.7296 14.3579 36.7296 15.1344V19H35.9616V15.2496C35.9616 14.6523 35.8166 14.2043 35.5265 13.9056C35.2448 13.6069 34.8779 13.4576 34.4256 13.4576C34.0843 13.4576 33.7771 13.5344 33.504 13.688C33.2395 13.8331 33.0304 14.0336 32.8768 14.2896C32.7318 14.5371 32.6592 14.8144 32.6592 15.1216V19H31.8784ZM42.3565 19V10.04H43.1373V13.944H48.1549V10.04H48.9485V19H48.1549V14.6864H43.1373V19H42.3565ZM53.4619 19.1408C52.9158 19.1408 52.4294 19.0043 52.0027 18.7312C51.5761 18.4581 51.239 18.0827 50.9915 17.6048C50.7441 17.1184 50.6203 16.5595 50.6203 15.928C50.6203 15.2965 50.7441 14.7419 50.9915 14.264C51.239 13.7776 51.5761 13.3979 52.0027 13.1248C52.4294 12.8517 52.9158 12.7152 53.4619 12.7152C54.0166 12.7152 54.5073 12.8517 54.9339 13.1248C55.3606 13.3979 55.6977 13.7776 55.9451 14.264C56.1926 14.7419 56.3163 15.2965 56.3163 15.928C56.3163 16.5595 56.1926 17.1184 55.9451 17.6048C55.6977 18.0827 55.3606 18.4581 54.9339 18.7312C54.5073 19.0043 54.0166 19.1408 53.4619 19.1408ZM53.4619 18.4112C53.863 18.4112 54.2171 18.3088 54.5243 18.104C54.8401 17.8992 55.0875 17.6133 55.2667 17.2464C55.4459 16.8709 55.5355 16.4315 55.5355 15.928C55.5355 15.4245 55.4459 14.9893 55.2667 14.6224C55.0875 14.2469 54.8401 13.9568 54.5243 13.752C54.2171 13.5472 53.863 13.4448 53.4619 13.4448C52.8646 13.4448 52.3697 13.6709 51.9771 14.1232C51.5931 14.5669 51.4011 15.1685 51.4011 15.928C51.4011 16.6789 51.5931 17.2805 51.9771 17.7328C52.3697 18.1851 52.8646 18.4112 53.4619 18.4112ZM57.866 19V12.8688H58.5956L58.634 13.8288C58.7705 13.5131 58.9966 13.2485 59.3124 13.0352C59.6281 12.8219 59.9865 12.7152 60.3876 12.7152C60.8825 12.7152 61.2878 12.8304 61.6036 13.0608C61.9278 13.2912 62.1454 13.6112 62.2564 14.0208C62.4014 13.6453 62.6318 13.3339 62.9476 13.0864C63.2633 12.8389 63.6686 12.7152 64.1636 12.7152C64.795 12.7152 65.29 12.9157 65.6484 13.3168C66.0068 13.7093 66.186 14.3024 66.186 15.096V19H65.4052V15.2112C65.4052 14.5627 65.2814 14.1061 65.034 13.8416C64.7865 13.5771 64.4537 13.4448 64.0356 13.4448C63.7113 13.4448 63.4254 13.5301 63.178 13.7008C62.939 13.8629 62.7513 14.0805 62.6148 14.3536C62.4868 14.6181 62.4228 14.9083 62.4228 15.224V19H61.642V15.2112C61.642 14.5627 61.514 14.1061 61.258 13.8416C61.0105 13.5771 60.6777 13.4448 60.2596 13.4448C59.9353 13.4448 59.6494 13.5301 59.402 13.7008C59.163 13.8715 58.9753 14.0933 58.8388 14.3664C58.7108 14.6309 58.6468 14.9125 58.6468 15.2112V19H57.866ZM70.5998 19.1408C70.0451 19.1408 69.5502 19.0128 69.115 18.7568C68.6883 18.4923 68.3512 18.1211 68.1038 17.6432C67.8648 17.1568 67.7454 16.5851 67.7454 15.928C67.7454 15.288 67.8648 14.7291 68.1038 14.2512C68.3512 13.7733 68.6883 13.4021 69.115 13.1376C69.5416 12.8645 70.028 12.728 70.5742 12.728C71.1288 12.728 71.5982 12.8688 71.9822 13.1504C72.3747 13.4235 72.6734 13.7819 72.8782 14.2256C73.083 14.6608 73.1854 15.1216 73.1854 15.608V15.864H68.5262C68.5091 16.632 68.6883 17.2549 69.0638 17.7328C69.4478 18.2021 69.964 18.4368 70.6126 18.4368C71.0904 18.4368 71.4915 18.3173 71.8158 18.0784C72.14 17.8309 72.4046 17.4683 72.6094 16.9904L73.2494 17.3616C72.7032 18.5477 71.82 19.1408 70.5998 19.1408ZM68.5774 15.1984H72.4174C72.3747 14.8656 72.268 14.5627 72.0974 14.2896C71.9352 14.0165 71.7219 13.7989 71.4574 13.6368C71.2014 13.4747 70.907 13.3936 70.5742 13.3936C70.0536 13.3936 69.6142 13.5557 69.2558 13.88C68.9059 14.1957 68.6798 14.6352 68.5774 15.1984Z" fill="#1F2937"/>
<mask id="mask0_321_4656" style="mask-type:luminance" maskUnits="userSpaceOnUse" x="85" y="0" width="27" height="27">
<rect x="85" width="27" height="27" fill="white"/>
</mask>
<g mask="url(#mask0_321_4656)">
<path fill-rule="evenodd" clip-rule="evenodd" d="M79.6199 4.74788C79.4612 4.90618 79.372 5.12111 79.372 5.34526C79.372 5.5694 79.4612 5.78434 79.6199 5.94263L89.1492 15.4703L79.6199 24.9979C79.29 25.3278 79.2899 25.8626 79.6198 26.1925C79.9496 26.5225 80.4844 26.5226 80.8144 26.1928L90.9396 16.0676C91.0983 15.9093 91.1875 15.6944 91.1875 15.4703C91.1875 15.2461 91.0983 15.0312 90.9396 14.8729L80.8146 4.74788C80.6563 4.58919 80.4414 4.5 80.2172 4.5C79.9931 4.5 79.7782 4.58919 79.6199 4.74788V4.74788Z" fill="#6B7280"/>
</g>
</svg>
