<svg width="117" height="42" viewBox="0 0 117 42" fill="none" xmlns="http://www.w3.org/2000/svg">
<rect width="117" height="42" rx="20" fill="#2563EB"/>
<path d="M33.0873 27.112C32.2659 27.112 31.5299 26.9787 30.8793 26.712C30.2286 26.4453 29.7059 26.0507 29.3113 25.528C28.9273 25.0053 28.7246 24.376 28.7033 23.64H31.6153C31.6579 24.056 31.8019 24.376 32.0473 24.6C32.2926 24.8133 32.6126 24.92 33.0073 24.92C33.4126 24.92 33.7326 24.8293 33.9673 24.648C34.2019 24.456 34.3193 24.1947 34.3193 23.864C34.3193 23.5867 34.2233 23.3573 34.0313 23.176C33.8499 22.9947 33.6206 22.8453 33.3433 22.728C33.0766 22.6107 32.6926 22.4773 32.1913 22.328C31.4659 22.104 30.8739 21.88 30.4153 21.656C29.9566 21.432 29.5619 21.1013 29.2313 20.664C28.9006 20.2267 28.7353 19.656 28.7353 18.952C28.7353 17.9067 29.1139 17.0907 29.8713 16.504C30.6286 15.9067 31.6153 15.608 32.8313 15.608C34.0686 15.608 35.0659 15.9067 35.8233 16.504C36.5806 17.0907 36.9859 17.912 37.0393 18.968H34.0793C34.0579 18.6053 33.9246 18.3227 33.6793 18.12C33.4339 17.9067 33.1193 17.8 32.7352 17.8C32.4046 17.8 32.1379 17.8907 31.9353 18.072C31.7326 18.2427 31.6313 18.4933 31.6313 18.824C31.6313 19.1867 31.8019 19.4693 32.1432 19.672C32.4846 19.8747 33.0179 20.0933 33.7433 20.328C34.4686 20.5733 35.0553 20.808 35.5033 21.032C35.9619 21.256 36.3566 21.5813 36.6873 22.008C37.0179 22.4347 37.1833 22.984 37.1833 23.656C37.1833 24.296 37.0179 24.8773 36.6873 25.4C36.3673 25.9227 35.8979 26.3387 35.2793 26.648C34.6606 26.9573 33.9299 27.112 33.0873 27.112ZM41.603 15.768V27H38.867V15.768H41.603ZM51.0417 19.32C50.8391 18.9467 50.5458 18.664 50.1618 18.472C49.7884 18.2693 49.3458 18.168 48.8338 18.168C47.9484 18.168 47.2391 18.4613 46.7057 19.048C46.1724 19.624 45.9058 20.3973 45.9058 21.368C45.9058 22.4027 46.1831 23.2133 46.7378 23.8C47.3031 24.376 48.0764 24.664 49.0578 24.664C49.7298 24.664 50.2951 24.4933 50.7538 24.152C51.2231 23.8107 51.5644 23.32 51.7778 22.68H48.3058V20.664H54.2578V23.208C54.0551 23.8907 53.7084 24.5253 53.2178 25.112C52.7378 25.6987 52.1244 26.1733 51.3778 26.536C50.6311 26.8987 49.7884 27.08 48.8498 27.08C47.7404 27.08 46.7484 26.84 45.8738 26.36C45.0098 25.8693 44.3324 25.192 43.8418 24.328C43.3618 23.464 43.1217 22.4773 43.1217 21.368C43.1217 20.2587 43.3618 19.272 43.8418 18.408C44.3324 17.5333 45.0098 16.856 45.8738 16.376C46.7378 15.8853 47.7244 15.64 48.8338 15.64C50.1778 15.64 51.3084 15.9653 52.2258 16.616C53.1538 17.2667 53.7671 18.168 54.0658 19.32H51.0417ZM65.8213 27H63.0853L58.5093 20.072V27H55.7733V15.768H58.5093L63.0853 22.728V15.768H65.8213V27ZM73.8831 15.768V22.488C73.8831 23.16 74.0485 23.6773 74.3791 24.04C74.7098 24.4027 75.1951 24.584 75.8351 24.584C76.4751 24.584 76.9658 24.4027 77.3071 24.04C77.6485 23.6773 77.8191 23.16 77.8191 22.488V15.768H80.5551V22.472C80.5551 23.4747 80.3418 24.3227 79.9151 25.016C79.4885 25.7093 78.9125 26.232 78.1871 26.584C77.4725 26.936 76.6725 27.112 75.7871 27.112C74.9018 27.112 74.1071 26.9413 73.4031 26.6C72.7098 26.248 72.1605 25.7253 71.7551 25.032C71.3498 24.328 71.1471 23.4747 71.1471 22.472V15.768H73.8831ZM91.0364 19.384C91.0364 20.0347 90.887 20.632 90.5884 21.176C90.2897 21.7093 89.831 22.1413 89.2124 22.472C88.5937 22.8027 87.8257 22.968 86.9084 22.968H85.2124V27H82.4764V15.768H86.9084C87.8044 15.768 88.5617 15.9227 89.1804 16.232C89.799 16.5413 90.263 16.968 90.5724 17.512C90.8817 18.056 91.0364 18.68 91.0364 19.384ZM86.7004 20.792C87.223 20.792 87.6124 20.6693 87.8684 20.424C88.1244 20.1787 88.2524 19.832 88.2524 19.384C88.2524 18.936 88.1244 18.5893 87.8684 18.344C87.6124 18.0987 87.223 17.976 86.7004 17.976H85.2124V20.792H86.7004Z" fill="white"/>
</svg>
