<svg width="997" height="160" viewBox="0 0 997 160" fill="none" xmlns="http://www.w3.org/2000/svg">
<path d="M37 20.516V27.07H20.122V37.452H33.056V43.89H20.122V61H12.002V20.516H37ZM46.8759 25.04C45.4452 25.04 44.2465 24.5953 43.2799 23.706C42.3519 22.778 41.8879 21.6373 41.8879 20.284C41.8879 18.9307 42.3519 17.8093 43.2799 16.92C44.2465 15.992 45.4452 15.528 46.8759 15.528C48.3065 15.528 49.4859 15.992 50.4139 16.92C51.3805 17.8093 51.8639 18.9307 51.8639 20.284C51.8639 21.6373 51.3805 22.778 50.4139 23.706C49.4859 24.5953 48.3065 25.04 46.8759 25.04ZM50.8779 28.868V61H42.7579V28.868H50.8779ZM76.7064 28.404C80.5344 28.404 83.6278 29.622 85.9864 32.058C88.3451 34.4553 89.5244 37.8193 89.5244 42.15V61H81.4044V43.252C81.4044 40.7 80.7664 38.7473 79.4904 37.394C78.2144 36.002 76.4744 35.306 74.2704 35.306C72.0278 35.306 70.2491 36.002 68.9344 37.394C67.6584 38.7473 67.0204 40.7 67.0204 43.252V61H58.9004V28.868H67.0204V32.87C68.1031 31.478 69.4758 30.3953 71.1384 29.622C72.8398 28.81 74.6958 28.404 76.7064 28.404ZM95.1581 44.818C95.1581 41.57 95.7961 38.6893 97.0721 36.176C98.3868 33.6627 100.165 31.7293 102.408 30.376C104.651 29.0227 107.145 28.346 109.89 28.346C111.978 28.346 113.969 28.81 115.864 29.738C117.759 30.6273 119.267 31.826 120.388 33.334V18.08H128.624V61H120.388V56.244C119.383 57.8293 117.971 59.1053 116.154 60.072C114.337 61.0387 112.229 61.522 109.832 61.522C107.125 61.522 104.651 60.826 102.408 59.434C100.165 58.042 98.3868 56.0893 97.0721 53.576C95.7961 51.024 95.1581 48.1047 95.1581 44.818ZM120.446 44.934C120.446 42.962 120.059 41.28 119.286 39.888C118.513 38.4573 117.469 37.3747 116.154 36.64C114.839 35.8667 113.428 35.48 111.92 35.48C110.412 35.48 109.02 35.8473 107.744 36.582C106.468 37.3167 105.424 38.3993 104.612 39.83C103.839 41.222 103.452 42.8847 103.452 44.818C103.452 46.7513 103.839 48.4527 104.612 49.922C105.424 51.3527 106.468 52.4547 107.744 53.228C109.059 54.0013 110.451 54.388 111.92 54.388C113.428 54.388 114.839 54.0207 116.154 53.286C117.469 52.5127 118.513 51.43 119.286 50.038C120.059 48.6073 120.446 46.906 120.446 44.934Z" fill="white"/>
<path d="M183.192 20.516L169.504 46.906V61H161.384V46.906L147.638 20.516H156.802L165.502 39.018L174.144 20.516H183.192ZM202.143 61.522C199.05 61.522 196.266 60.8453 193.791 59.492C191.316 58.1 189.364 56.1473 187.933 53.634C186.541 51.1207 185.845 48.2207 185.845 44.934C185.845 41.6473 186.56 38.7473 187.991 36.234C189.46 33.7207 191.452 31.7873 193.965 30.434C196.478 29.042 199.282 28.346 202.375 28.346C205.468 28.346 208.272 29.042 210.785 30.434C213.298 31.7873 215.27 33.7207 216.701 36.234C218.17 38.7473 218.905 41.6473 218.905 44.934C218.905 48.2207 218.151 51.1207 216.643 53.634C215.174 56.1473 213.163 58.1 210.611 59.492C208.098 60.8453 205.275 61.522 202.143 61.522ZM202.143 54.446C203.612 54.446 204.985 54.098 206.261 53.402C207.576 52.6673 208.62 51.5847 209.393 50.154C210.166 48.7233 210.553 46.9833 210.553 44.934C210.553 41.8793 209.741 39.54 208.117 37.916C206.532 36.2533 204.579 35.422 202.259 35.422C199.939 35.422 197.986 36.2533 196.401 37.916C194.854 39.54 194.081 41.8793 194.081 44.934C194.081 47.9887 194.835 50.3473 196.343 52.01C197.89 53.634 199.823 54.446 202.143 54.446ZM255.195 28.868V61H247.017V56.94C245.973 58.332 244.601 59.434 242.899 60.246C241.237 61.0193 239.419 61.406 237.447 61.406C234.934 61.406 232.711 60.884 230.777 59.84C228.844 58.7573 227.317 57.1913 226.195 55.142C225.113 53.054 224.571 50.5793 224.571 47.718V28.868H232.691V46.558C232.691 49.11 233.329 51.082 234.605 52.474C235.881 53.8273 237.621 54.504 239.825 54.504C242.068 54.504 243.827 53.8273 245.103 52.474C246.379 51.082 247.017 49.11 247.017 46.558V28.868H255.195ZM271.327 33.856C272.371 32.1547 273.724 30.8207 275.387 29.854C277.088 28.8873 279.022 28.404 281.187 28.404V36.93H279.041C276.489 36.93 274.556 37.5293 273.241 38.728C271.965 39.9267 271.327 42.0147 271.327 44.992V61H263.207V28.868H271.327V33.856Z" fill="white"/>
<path d="M318.808 28.404C322.636 28.404 325.729 29.622 328.088 32.058C330.447 34.4553 331.626 37.8193 331.626 42.15V61H323.506V43.252C323.506 40.7 322.868 38.7473 321.592 37.394C320.316 36.002 318.576 35.306 316.372 35.306C314.129 35.306 312.351 36.002 311.036 37.394C309.76 38.7473 309.122 40.7 309.122 43.252V61H301.002V28.868H309.122V32.87C310.205 31.478 311.577 30.3953 313.24 29.622C314.941 28.81 316.797 28.404 318.808 28.404ZM369.218 44.238C369.218 45.398 369.14 46.442 368.986 47.37H345.496C345.689 49.69 346.501 51.5073 347.932 52.822C349.362 54.1367 351.122 54.794 353.21 54.794C356.226 54.794 358.372 53.4987 359.648 50.908H368.406C367.478 54.0013 365.699 56.5533 363.07 58.564C360.44 60.536 357.212 61.522 353.384 61.522C350.29 61.522 347.506 60.8453 345.032 59.492C342.596 58.1 340.682 56.1473 339.29 53.634C337.936 51.1207 337.26 48.2207 337.26 44.934C337.26 41.6087 337.936 38.6893 339.29 36.176C340.643 33.6627 342.538 31.7293 344.974 30.376C347.41 29.0227 350.213 28.346 353.384 28.346C356.438 28.346 359.164 29.0033 361.562 30.318C363.998 31.6327 365.873 33.508 367.188 35.944C368.541 38.3413 369.218 41.106 369.218 44.238ZM360.808 41.918C360.769 39.83 360.015 38.1673 358.546 36.93C357.076 35.654 355.278 35.016 353.152 35.016C351.141 35.016 349.44 35.6347 348.048 36.872C346.694 38.0707 345.863 39.7527 345.554 41.918H360.808ZM392.893 61L386.281 51.024L380.423 61H371.723L382.221 44.876L371.607 28.868H380.771L387.325 38.786L393.241 28.868H401.941L391.385 44.876L402.057 61H392.893ZM415.921 35.538V51.082C415.921 52.1647 416.172 52.9573 416.675 53.46C417.216 53.924 418.106 54.156 419.343 54.156H423.113V61H418.009C411.165 61 407.743 57.6747 407.743 51.024V35.538H403.915V28.868H407.743V20.922H415.921V28.868H423.113V35.538H415.921Z" fill="white"/>
<rect x="439" width="331" height="82" rx="20" fill="#2563EB"/>
<path d="M453.568 64V29.0909H460.136V34.6364H460.5C461.136 32.7576 462.258 31.2803 463.864 30.2045C465.485 29.1136 467.318 28.5682 469.364 28.5682C469.788 28.5682 470.288 28.5833 470.864 28.6136C471.455 28.6439 471.917 28.6818 472.25 28.7273V35.2273C471.977 35.1515 471.492 35.0682 470.795 34.9773C470.098 34.8712 469.402 34.8182 468.705 34.8182C467.098 34.8182 465.667 35.1591 464.409 35.8409C463.167 36.5076 462.182 37.4394 461.455 38.6364C460.727 39.8182 460.364 41.1667 460.364 42.6818V64H453.568ZM491.585 64.7045C488.313 64.7045 485.456 63.9545 483.017 62.4545C480.578 60.9545 478.684 58.8561 477.335 56.1591C475.987 53.4621 475.312 50.3106 475.312 46.7045C475.312 43.0833 475.987 39.9167 477.335 37.2045C478.684 34.4924 480.578 32.3864 483.017 30.8864C485.456 29.3864 488.313 28.6364 491.585 28.6364C494.858 28.6364 497.714 29.3864 500.153 30.8864C502.593 32.3864 504.487 34.4924 505.835 37.2045C507.184 39.9167 507.858 43.0833 507.858 46.7045C507.858 50.3106 507.184 53.4621 505.835 56.1591C504.487 58.8561 502.593 60.9545 500.153 62.4545C497.714 63.9545 494.858 64.7045 491.585 64.7045ZM491.608 59C493.729 59 495.487 58.4394 496.881 57.3182C498.275 56.197 499.305 54.7045 499.972 52.8409C500.653 50.9773 500.994 48.9242 500.994 46.6818C500.994 44.4545 500.653 42.4091 499.972 40.5455C499.305 38.6667 498.275 37.1591 496.881 36.0227C495.487 34.8864 493.729 34.3182 491.608 34.3182C489.472 34.3182 487.699 34.8864 486.29 36.0227C484.896 37.1591 483.858 38.6667 483.176 40.5455C482.509 42.4091 482.176 44.4545 482.176 46.6818C482.176 48.9242 482.509 50.9773 483.176 52.8409C483.858 54.7045 484.896 56.197 486.29 57.3182C487.699 58.4394 489.472 59 491.608 59ZM530.148 64.7045C526.875 64.7045 524.019 63.9545 521.58 62.4545C519.14 60.9545 517.246 58.8561 515.898 56.1591C514.549 53.4621 513.875 50.3106 513.875 46.7045C513.875 43.0833 514.549 39.9167 515.898 37.2045C517.246 34.4924 519.14 32.3864 521.58 30.8864C524.019 29.3864 526.875 28.6364 530.148 28.6364C533.42 28.6364 536.277 29.3864 538.716 30.8864C541.155 32.3864 543.049 34.4924 544.398 37.2045C545.746 39.9167 546.42 43.0833 546.42 46.7045C546.42 50.3106 545.746 53.4621 544.398 56.1591C543.049 58.8561 541.155 60.9545 538.716 62.4545C536.277 63.9545 533.42 64.7045 530.148 64.7045ZM530.17 59C532.292 59 534.049 58.4394 535.443 57.3182C536.837 56.197 537.867 54.7045 538.534 52.8409C539.216 50.9773 539.557 48.9242 539.557 46.6818C539.557 44.4545 539.216 42.4091 538.534 40.5455C537.867 38.6667 536.837 37.1591 535.443 36.0227C534.049 34.8864 532.292 34.3182 530.17 34.3182C528.034 34.3182 526.261 34.8864 524.852 36.0227C523.458 37.1591 522.42 38.6667 521.739 40.5455C521.072 42.4091 520.739 44.4545 520.739 46.6818C520.739 48.9242 521.072 50.9773 521.739 52.8409C522.42 54.7045 523.458 56.197 524.852 57.3182C526.261 58.4394 528.034 59 530.17 59ZM554.006 64V29.0909H560.528V34.7727H560.96C561.688 32.8485 562.877 31.3485 564.528 30.2727C566.18 29.1818 568.157 28.6364 570.46 28.6364C572.794 28.6364 574.748 29.1818 576.324 30.2727C577.915 31.3636 579.089 32.8636 579.847 34.7727H580.21C581.044 32.9091 582.369 31.4242 584.188 30.3182C586.006 29.197 588.172 28.6364 590.688 28.6364C593.854 28.6364 596.438 29.6288 598.438 31.6136C600.453 33.5985 601.46 36.5909 601.46 40.5909V64H594.665V41.2273C594.665 38.8636 594.021 37.1515 592.733 36.0909C591.445 35.0303 589.907 34.5 588.119 34.5C585.907 34.5 584.188 35.1818 582.96 36.5455C581.733 37.8939 581.119 39.6288 581.119 41.75V64H574.347V40.7955C574.347 38.9015 573.756 37.3788 572.574 36.2273C571.392 35.0758 569.854 34.5 567.96 34.5C566.672 34.5 565.483 34.8409 564.392 35.5227C563.316 36.1894 562.445 37.1212 561.778 38.3182C561.127 39.5152 560.801 40.9015 560.801 42.4773V64H554.006ZM610.568 64V29.0909H617.091V34.7727H617.523C618.25 32.8485 619.439 31.3485 621.091 30.2727C622.742 29.1818 624.72 28.6364 627.023 28.6364C629.356 28.6364 631.311 29.1818 632.886 30.2727C634.477 31.3636 635.652 32.8636 636.409 34.7727H636.773C637.606 32.9091 638.932 31.4242 640.75 30.3182C642.568 29.197 644.735 28.6364 647.25 28.6364C650.417 28.6364 653 29.6288 655 31.6136C657.015 33.5985 658.023 36.5909 658.023 40.5909V64H651.227V41.2273C651.227 38.8636 650.583 37.1515 649.295 36.0909C648.008 35.0303 646.47 34.5 644.682 34.5C642.47 34.5 640.75 35.1818 639.523 36.5455C638.295 37.8939 637.682 39.6288 637.682 41.75V64H630.909V40.7955C630.909 38.9015 630.318 37.3788 629.136 36.2273C627.955 35.0758 626.417 34.5 624.523 34.5C623.235 34.5 622.045 34.8409 620.955 35.5227C619.879 36.1894 619.008 37.1212 618.341 38.3182C617.689 39.5152 617.364 40.9015 617.364 42.4773V64H610.568ZM677.29 64.7727C675.078 64.7727 673.078 64.3636 671.29 63.5455C669.502 62.7121 668.085 61.5076 667.04 59.9318C666.009 58.3561 665.494 56.4242 665.494 54.1364C665.494 52.1667 665.873 50.5455 666.631 49.2727C667.388 48 668.411 46.9924 669.699 46.25C670.987 45.5076 672.426 44.947 674.017 44.5682C675.608 44.1894 677.229 43.9015 678.881 43.7045C680.972 43.4621 682.669 43.2652 683.972 43.1136C685.275 42.947 686.222 42.6818 686.812 42.3182C687.403 41.9545 687.699 41.3636 687.699 40.5455V40.3864C687.699 38.4015 687.138 36.8636 686.017 35.7727C684.911 34.6818 683.259 34.1364 681.062 34.1364C678.775 34.1364 676.972 34.6439 675.653 35.6591C674.35 36.6591 673.449 37.7727 672.949 39L666.562 37.5455C667.32 35.4242 668.426 33.7121 669.881 32.4091C671.35 31.0909 673.04 30.1364 674.949 29.5455C676.858 28.9394 678.866 28.6364 680.972 28.6364C682.366 28.6364 683.843 28.803 685.403 29.1364C686.979 29.4545 688.449 30.0455 689.812 30.9091C691.191 31.7727 692.32 33.0076 693.199 34.6136C694.078 36.2045 694.517 38.2727 694.517 40.8182V64H687.881V59.2273H687.608C687.169 60.1061 686.509 60.9697 685.631 61.8182C684.752 62.6667 683.623 63.3712 682.244 63.9318C680.866 64.4924 679.214 64.7727 677.29 64.7727ZM678.767 59.3182C680.646 59.3182 682.252 58.947 683.585 58.2045C684.934 57.4621 685.956 56.4924 686.653 55.2955C687.366 54.0833 687.722 52.7879 687.722 51.4091V46.9091C687.479 47.1515 687.009 47.3788 686.312 47.5909C685.631 47.7879 684.85 47.9621 683.972 48.1136C683.093 48.25 682.237 48.3788 681.403 48.5C680.57 48.6061 679.873 48.697 679.312 48.7727C677.994 48.9394 676.79 49.2197 675.699 49.6136C674.623 50.0076 673.759 50.5758 673.108 51.3182C672.472 52.0455 672.153 53.0152 672.153 54.2273C672.153 55.9091 672.775 57.1818 674.017 58.0455C675.259 58.8939 676.843 59.3182 678.767 59.3182ZM719.864 29.0909V34.5455H700.795V29.0909H719.864ZM705.909 20.7273H712.705V53.75C712.705 55.0682 712.902 56.0606 713.295 56.7273C713.689 57.3788 714.197 57.8258 714.818 58.0682C715.455 58.2955 716.144 58.4091 716.886 58.4091C717.432 58.4091 717.909 58.3712 718.318 58.2955C718.727 58.2197 719.045 58.1591 719.273 58.1136L720.5 63.7273C720.106 63.8788 719.545 64.0303 718.818 64.1818C718.091 64.3485 717.182 64.4394 716.091 64.4545C714.303 64.4848 712.636 64.1667 711.091 63.5C709.545 62.8333 708.295 61.803 707.341 60.4091C706.386 59.0152 705.909 57.2652 705.909 55.1591V20.7273ZM742.051 64.7045C738.612 64.7045 735.65 63.9697 733.165 62.5C730.695 61.0152 728.786 58.9318 727.438 56.25C726.104 53.553 725.438 50.3939 725.438 46.7727C725.438 43.197 726.104 40.0455 727.438 37.3182C728.786 34.5909 730.665 32.4621 733.074 30.9318C735.498 29.4015 738.331 28.6364 741.574 28.6364C743.544 28.6364 745.453 28.9621 747.301 29.6136C749.15 30.2652 750.809 31.2879 752.278 32.6818C753.748 34.0758 754.907 35.8864 755.756 38.1136C756.604 40.3258 757.028 43.0152 757.028 46.1818V48.5909H729.278V43.5H750.369C750.369 41.7121 750.006 40.1288 749.278 38.75C748.551 37.3561 747.528 36.2576 746.21 35.4545C744.907 34.6515 743.377 34.25 741.619 34.25C739.71 34.25 738.044 34.7197 736.619 35.6591C735.21 36.5833 734.119 37.7955 733.347 39.2955C732.589 40.7803 732.21 42.3939 732.21 44.1364V48.1136C732.21 50.447 732.619 52.4318 733.438 54.0682C734.271 55.7045 735.43 56.9545 736.915 57.8182C738.4 58.6667 740.134 59.0909 742.119 59.0909C743.407 59.0909 744.581 58.9091 745.642 58.5455C746.703 58.1667 747.619 57.6061 748.392 56.8636C749.165 56.1212 749.756 55.2045 750.165 54.1136L756.597 55.2727C756.081 57.1667 755.157 58.8258 753.824 60.25C752.506 61.6591 750.847 62.7576 748.847 63.5455C746.862 64.3182 744.597 64.7045 742.051 64.7045Z" fill="white"/>
<path d="M815.552 20.516V27.07H804.764V61H796.644V27.07H785.856V20.516H815.552ZM835.745 61.522C832.651 61.522 829.867 60.8453 827.393 59.492C824.918 58.1 822.965 56.1473 821.535 53.634C820.143 51.1207 819.447 48.2207 819.447 44.934C819.447 41.6473 820.162 38.7473 821.593 36.234C823.062 33.7207 825.053 31.7873 827.567 30.434C830.08 29.042 832.883 28.346 835.977 28.346C839.07 28.346 841.873 29.042 844.387 30.434C846.9 31.7873 848.872 33.7207 850.303 36.234C851.772 38.7473 852.507 41.6473 852.507 44.934C852.507 48.2207 851.753 51.1207 850.245 53.634C848.775 56.1473 846.765 58.1 844.213 59.492C841.699 60.8453 838.877 61.522 835.745 61.522ZM835.745 54.446C837.214 54.446 838.587 54.098 839.863 53.402C841.177 52.6673 842.221 51.5847 842.995 50.154C843.768 48.7233 844.155 46.9833 844.155 44.934C844.155 41.8793 843.343 39.54 841.719 37.916C840.133 36.2533 838.181 35.422 835.861 35.422C833.541 35.422 831.588 36.2533 830.003 37.916C828.456 39.54 827.683 41.8793 827.683 44.934C827.683 47.9887 828.437 50.3473 829.945 52.01C831.491 53.634 833.425 54.446 835.745 54.446ZM856.375 44.818C856.375 41.57 857.013 38.6893 858.289 36.176C859.604 33.6627 861.382 31.7293 863.625 30.376C865.868 29.0227 868.362 28.346 871.107 28.346C873.195 28.346 875.186 28.81 877.081 29.738C878.976 30.6273 880.484 31.826 881.605 33.334V18.08H889.841V61H881.605V56.244C880.6 57.8293 879.188 59.1053 877.371 60.072C875.554 61.0387 873.446 61.522 871.049 61.522C868.342 61.522 865.868 60.826 863.625 59.434C861.382 58.042 859.604 56.0893 858.289 53.576C857.013 51.024 856.375 48.1047 856.375 44.818ZM881.663 44.934C881.663 42.962 881.276 41.28 880.503 39.888C879.73 38.4573 878.686 37.3747 877.371 36.64C876.056 35.8667 874.645 35.48 873.137 35.48C871.629 35.48 870.237 35.8473 868.961 36.582C867.685 37.3167 866.641 38.3993 865.829 39.83C865.056 41.222 864.669 42.8847 864.669 44.818C864.669 46.7513 865.056 48.4527 865.829 49.922C866.641 51.3527 867.685 52.4547 868.961 53.228C870.276 54.0013 871.668 54.388 873.137 54.388C874.645 54.388 876.056 54.0207 877.371 53.286C878.686 52.5127 879.73 51.43 880.503 50.038C881.276 48.6073 881.663 46.906 881.663 44.934ZM895.684 44.818C895.684 41.57 896.322 38.6893 897.598 36.176C898.912 33.6627 900.672 31.7293 902.876 30.376C905.118 29.0227 907.612 28.346 910.358 28.346C912.755 28.346 914.843 28.8293 916.622 29.796C918.439 30.7627 919.889 31.9807 920.972 33.45V28.868H929.15V61H920.972V56.302C919.928 57.81 918.478 59.0667 916.622 60.072C914.804 61.0387 912.697 61.522 910.3 61.522C907.593 61.522 905.118 60.826 902.876 59.434C900.672 58.042 898.912 56.0893 897.598 53.576C896.322 51.024 895.684 48.1047 895.684 44.818ZM920.972 44.934C920.972 42.962 920.585 41.28 919.812 39.888C919.038 38.4573 917.994 37.3747 916.68 36.64C915.365 35.8667 913.954 35.48 912.446 35.48C910.938 35.48 909.546 35.8473 908.27 36.582C906.994 37.3167 905.95 38.3993 905.138 39.83C904.364 41.222 903.978 42.8847 903.978 44.818C903.978 46.7513 904.364 48.4527 905.138 49.922C905.95 51.3527 906.994 52.4547 908.27 53.228C909.584 54.0013 910.976 54.388 912.446 54.388C913.954 54.388 915.365 54.0207 916.68 53.286C917.994 52.5127 919.038 51.43 919.812 50.038C920.585 48.6073 920.972 46.906 920.972 44.934ZM967.82 28.868L947.926 76.196H939.284L946.244 60.188L933.368 28.868H942.474L950.768 51.314L959.178 28.868H967.82ZM982.695 19.82L981.767 47.834H974.923L973.937 19.82H982.695ZM978.519 61.406C977.05 61.406 975.832 60.9613 974.865 60.072C973.937 59.144 973.473 58.0033 973.473 56.65C973.473 55.2967 973.937 54.1753 974.865 53.286C975.832 52.358 977.05 51.894 978.519 51.894C979.95 51.894 981.129 52.358 982.057 53.286C982.985 54.1753 983.449 55.2967 983.449 56.65C983.449 58.0033 982.985 59.144 982.057 60.072C981.129 60.9613 979.95 61.406 978.519 61.406Z" fill="white"/>
<path d="M9.728 151.224C8.23467 151.224 6.89067 150.968 5.696 150.456C4.50133 149.923 3.56267 149.176 2.88 148.216C2.19733 147.256 1.856 146.136 1.856 144.856H5.76C5.84533 145.816 6.21867 146.605 6.88 147.224C7.56267 147.843 8.512 148.152 9.728 148.152C10.9867 148.152 11.968 147.853 12.672 147.256C13.376 146.637 13.728 145.848 13.728 144.888C13.728 144.141 13.504 143.533 13.056 143.064C12.6293 142.595 12.0853 142.232 11.424 141.976C10.784 141.72 9.888 141.443 8.736 141.144C7.28533 140.76 6.10133 140.376 5.184 139.992C4.288 139.587 3.52 138.968 2.88 138.136C2.24 137.304 1.92 136.195 1.92 134.808C1.92 133.528 2.24 132.408 2.88 131.448C3.52 130.488 4.416 129.752 5.568 129.24C6.72 128.728 8.05333 128.472 9.568 128.472C11.7227 128.472 13.4827 129.016 14.848 130.104C16.2347 131.171 17.0027 132.643 17.152 134.52H13.12C13.056 133.709 12.672 133.016 11.968 132.44C11.264 131.864 10.336 131.576 9.184 131.576C8.13867 131.576 7.28533 131.843 6.624 132.376C5.96267 132.909 5.632 133.677 5.632 134.68C5.632 135.363 5.83467 135.928 6.24 136.376C6.66667 136.803 7.2 137.144 7.84 137.4C8.48 137.656 9.35467 137.933 10.464 138.232C11.936 138.637 13.1307 139.043 14.048 139.448C14.9867 139.853 15.776 140.483 16.416 141.336C17.0773 142.168 17.408 143.288 17.408 144.696C17.408 145.827 17.0987 146.893 16.48 147.896C15.8827 148.899 14.9973 149.709 13.824 150.328C12.672 150.925 11.3067 151.224 9.728 151.224ZM37.8725 141.752C37.8725 142.413 37.8298 143.011 37.7445 143.544H24.2725C24.3792 144.952 24.9018 146.083 25.8405 146.936C26.7792 147.789 27.9312 148.216 29.2965 148.216C31.2592 148.216 32.6458 147.395 33.4565 145.752H37.3925C36.8592 147.373 35.8885 148.707 34.4805 149.752C33.0938 150.776 31.3658 151.288 29.2965 151.288C27.6112 151.288 26.0965 150.915 24.7525 150.168C23.4298 149.4 22.3845 148.333 21.6165 146.968C20.8698 145.581 20.4965 143.981 20.4965 142.168C20.4965 140.355 20.8592 138.765 21.5845 137.4C22.3312 136.013 23.3658 134.947 24.6885 134.2C26.0325 133.453 27.5685 133.08 29.2965 133.08C30.9605 133.08 32.4432 133.443 33.7445 134.168C35.0458 134.893 36.0592 135.917 36.7845 137.24C37.5098 138.541 37.8725 140.045 37.8725 141.752ZM34.0645 140.6C34.0432 139.256 33.5632 138.179 32.6245 137.368C31.6858 136.557 30.5232 136.152 29.1365 136.152C27.8778 136.152 26.8005 136.557 25.9045 137.368C25.0085 138.157 24.4752 139.235 24.3045 140.6H34.0645ZM40.2465 142.104C40.2465 140.333 40.6092 138.765 41.3345 137.4C42.0812 136.035 43.0838 134.979 44.3425 134.232C45.6225 133.464 47.0305 133.08 48.5665 133.08C49.9532 133.08 51.1585 133.357 52.1825 133.912C53.2278 134.445 54.0598 135.117 54.6785 135.928V133.368H58.3585V151H54.6785V148.376C54.0598 149.208 53.2172 149.901 52.1505 150.456C51.0838 151.011 49.8678 151.288 48.5025 151.288C46.9878 151.288 45.6012 150.904 44.3425 150.136C43.0838 149.347 42.0812 148.259 41.3345 146.872C40.6092 145.464 40.2465 143.875 40.2465 142.104ZM54.6785 142.168C54.6785 140.952 54.4225 139.896 53.9105 139C53.4198 138.104 52.7692 137.421 51.9585 136.952C51.1478 136.483 50.2732 136.248 49.3345 136.248C48.3958 136.248 47.5212 136.483 46.7105 136.952C45.8998 137.4 45.2385 138.072 44.7265 138.968C44.2358 139.843 43.9905 140.888 43.9905 142.104C43.9905 143.32 44.2358 144.387 44.7265 145.304C45.2385 146.221 45.8998 146.925 46.7105 147.416C47.5425 147.885 48.4172 148.12 49.3345 148.12C50.2732 148.12 51.1478 147.885 51.9585 147.416C52.7692 146.947 53.4198 146.264 53.9105 145.368C54.4225 144.451 54.6785 143.384 54.6785 142.168ZM66.798 135.928C67.3313 135.032 68.0353 134.339 68.91 133.848C69.806 133.336 70.862 133.08 72.078 133.08V136.856H71.15C69.7207 136.856 68.6327 137.219 67.886 137.944C67.1607 138.669 66.798 139.928 66.798 141.72V151H63.15V133.368H66.798V135.928ZM74.2153 142.168C74.2153 140.355 74.5779 138.765 75.3033 137.4C76.0499 136.013 77.0739 134.947 78.3753 134.2C79.6766 133.453 81.1699 133.08 82.8553 133.08C84.9886 133.08 86.7486 133.592 88.1353 134.616C89.5433 135.619 90.4926 137.059 90.9833 138.936H87.0473C86.7273 138.061 86.2153 137.379 85.5113 136.888C84.8073 136.397 83.9219 136.152 82.8553 136.152C81.3619 136.152 80.1673 136.685 79.2713 137.752C78.3966 138.797 77.9593 140.269 77.9593 142.168C77.9593 144.067 78.3966 145.549 79.2713 146.616C80.1673 147.683 81.3619 148.216 82.8553 148.216C84.9673 148.216 86.3646 147.288 87.0473 145.432H90.9833C90.4713 147.224 89.5113 148.653 88.1033 149.72C86.6953 150.765 84.9459 151.288 82.8553 151.288C81.1699 151.288 79.6766 150.915 78.3753 150.168C77.0739 149.4 76.0499 148.333 75.3033 146.968C74.5779 145.581 74.2153 143.981 74.2153 142.168ZM103.739 133.08C105.083 133.08 106.277 133.368 107.323 133.944C108.389 134.52 109.221 135.373 109.819 136.504C110.437 137.635 110.747 139 110.747 140.6V151H107.131V141.144C107.131 139.565 106.736 138.36 105.947 137.528C105.157 136.675 104.08 136.248 102.715 136.248C101.349 136.248 100.261 136.675 99.4508 137.528C98.6614 138.36 98.2668 139.565 98.2668 141.144V151H94.6188V127.32H98.2668V135.416C98.8854 134.669 99.6641 134.093 100.603 133.688C101.563 133.283 102.608 133.08 103.739 133.08ZM127.361 127.32V151H123.713V127.32H127.361ZM134.006 131.032C133.345 131.032 132.79 130.808 132.342 130.36C131.894 129.912 131.67 129.357 131.67 128.696C131.67 128.035 131.894 127.48 132.342 127.032C132.79 126.584 133.345 126.36 134.006 126.36C134.646 126.36 135.19 126.584 135.638 127.032C136.086 127.48 136.31 128.035 136.31 128.696C136.31 129.357 136.086 129.912 135.638 130.36C135.19 130.808 134.646 131.032 134.006 131.032ZM135.798 133.368V151H132.15V133.368H135.798ZM146.988 151.288C145.601 151.288 144.353 151.043 143.244 150.552C142.156 150.04 141.292 149.357 140.652 148.504C140.012 147.629 139.67 146.659 139.628 145.592H143.404C143.468 146.339 143.82 146.968 144.46 147.48C145.121 147.971 145.942 148.216 146.924 148.216C147.948 148.216 148.737 148.024 149.292 147.64C149.868 147.235 150.156 146.723 150.156 146.104C150.156 145.443 149.836 144.952 149.196 144.632C148.577 144.312 147.585 143.96 146.22 143.576C144.897 143.213 143.82 142.861 142.988 142.52C142.156 142.179 141.43 141.656 140.812 140.952C140.214 140.248 139.916 139.32 139.916 138.168C139.916 137.229 140.193 136.376 140.748 135.608C141.302 134.819 142.092 134.2 143.116 133.752C144.161 133.304 145.356 133.08 146.7 133.08C148.705 133.08 150.316 133.592 151.532 134.616C152.769 135.619 153.43 136.995 153.516 138.744H149.868C149.804 137.955 149.484 137.325 148.908 136.856C148.332 136.387 147.553 136.152 146.572 136.152C145.612 136.152 144.876 136.333 144.364 136.696C143.852 137.059 143.596 137.539 143.596 138.136C143.596 138.605 143.766 139 144.108 139.32C144.449 139.64 144.865 139.896 145.356 140.088C145.846 140.259 146.572 140.483 147.532 140.76C148.812 141.101 149.857 141.453 150.668 141.816C151.5 142.157 152.214 142.669 152.812 143.352C153.409 144.035 153.718 144.941 153.74 146.072C153.74 147.075 153.462 147.971 152.908 148.76C152.353 149.549 151.564 150.168 150.54 150.616C149.537 151.064 148.353 151.288 146.988 151.288ZM161.937 136.344V146.104C161.937 146.765 162.087 147.245 162.385 147.544C162.705 147.821 163.239 147.96 163.985 147.96H166.225V151H163.345C161.703 151 160.444 150.616 159.569 149.848C158.695 149.08 158.257 147.832 158.257 146.104V136.344H156.177V133.368H158.257V128.984H161.937V133.368H166.225V136.344H161.937ZM171.444 131.032C170.782 131.032 170.228 130.808 169.78 130.36C169.332 129.912 169.108 129.357 169.108 128.696C169.108 128.035 169.332 127.48 169.78 127.032C170.228 126.584 170.782 126.36 171.444 126.36C172.084 126.36 172.628 126.584 173.076 127.032C173.524 127.48 173.748 128.035 173.748 128.696C173.748 129.357 173.524 129.912 173.076 130.36C172.628 130.808 172.084 131.032 171.444 131.032ZM173.236 133.368V151H169.588V133.368H173.236ZM186.921 133.08C188.308 133.08 189.545 133.368 190.633 133.944C191.742 134.52 192.606 135.373 193.225 136.504C193.844 137.635 194.153 139 194.153 140.6V151H190.537V141.144C190.537 139.565 190.142 138.36 189.353 137.528C188.564 136.675 187.486 136.248 186.121 136.248C184.756 136.248 183.668 136.675 182.857 137.528C182.068 138.36 181.673 139.565 181.673 141.144V151H178.025V133.368H181.673V135.384C182.27 134.659 183.028 134.093 183.945 133.688C184.884 133.283 185.876 133.08 186.921 133.08ZM205.91 133.08C207.276 133.08 208.481 133.357 209.526 133.912C210.593 134.445 211.425 135.117 212.022 135.928V133.368H215.702V151.288C215.702 152.909 215.361 154.349 214.678 155.608C213.996 156.888 213.004 157.891 211.702 158.616C210.422 159.341 208.886 159.704 207.094 159.704C204.705 159.704 202.721 159.139 201.142 158.008C199.564 156.899 198.668 155.384 198.454 153.464H202.07C202.348 154.381 202.934 155.117 203.83 155.672C204.748 156.248 205.836 156.536 207.094 156.536C208.566 156.536 209.75 156.088 210.646 155.192C211.564 154.296 212.022 152.995 212.022 151.288V148.344C211.404 149.176 210.561 149.88 209.494 150.456C208.449 151.011 207.254 151.288 205.91 151.288C204.374 151.288 202.966 150.904 201.686 150.136C200.428 149.347 199.425 148.259 198.678 146.872C197.953 145.464 197.59 143.875 197.59 142.104C197.59 140.333 197.953 138.765 198.678 137.4C199.425 136.035 200.428 134.979 201.686 134.232C202.966 133.464 204.374 133.08 205.91 133.08ZM212.022 142.168C212.022 140.952 211.766 139.896 211.254 139C210.764 138.104 210.113 137.421 209.302 136.952C208.492 136.483 207.617 136.248 206.678 136.248C205.74 136.248 204.865 136.483 204.054 136.952C203.244 137.4 202.582 138.072 202.07 138.968C201.58 139.843 201.334 140.888 201.334 142.104C201.334 143.32 201.58 144.387 202.07 145.304C202.582 146.221 203.244 146.925 204.054 147.416C204.886 147.885 205.761 148.12 206.678 148.12C207.617 148.12 208.492 147.885 209.302 147.416C210.113 146.947 210.764 146.264 211.254 145.368C211.766 144.451 212.022 143.384 212.022 142.168ZM226.894 151.288C225.507 151.288 224.259 151.043 223.15 150.552C222.062 150.04 221.198 149.357 220.558 148.504C219.918 147.629 219.576 146.659 219.534 145.592H223.31C223.374 146.339 223.726 146.968 224.366 147.48C225.027 147.971 225.848 148.216 226.83 148.216C227.854 148.216 228.643 148.024 229.198 147.64C229.774 147.235 230.062 146.723 230.062 146.104C230.062 145.443 229.742 144.952 229.102 144.632C228.483 144.312 227.491 143.96 226.126 143.576C224.803 143.213 223.726 142.861 222.894 142.52C222.062 142.179 221.336 141.656 220.718 140.952C220.12 140.248 219.822 139.32 219.822 138.168C219.822 137.229 220.099 136.376 220.654 135.608C221.208 134.819 221.998 134.2 223.022 133.752C224.067 133.304 225.262 133.08 226.606 133.08C228.611 133.08 230.222 133.592 231.438 134.616C232.675 135.619 233.336 136.995 233.422 138.744H229.774C229.71 137.955 229.39 137.325 228.814 136.856C228.238 136.387 227.459 136.152 226.478 136.152C225.518 136.152 224.782 136.333 224.27 136.696C223.758 137.059 223.502 137.539 223.502 138.136C223.502 138.605 223.672 139 224.014 139.32C224.355 139.64 224.771 139.896 225.262 140.088C225.752 140.259 226.478 140.483 227.438 140.76C228.718 141.101 229.763 141.453 230.574 141.816C231.406 142.157 232.12 142.669 232.718 143.352C233.315 144.035 233.624 144.941 233.646 146.072C233.646 147.075 233.368 147.971 232.814 148.76C232.259 149.549 231.47 150.168 230.446 150.616C229.443 151.064 228.259 151.288 226.894 151.288ZM241.588 146.616L237.716 155.448H235.348L237.62 146.616H241.588ZM251.872 142.168C251.872 140.355 252.234 138.765 252.96 137.4C253.706 136.013 254.73 134.947 256.032 134.2C257.333 133.453 258.826 133.08 260.512 133.08C262.645 133.08 264.405 133.592 265.792 134.616C267.2 135.619 268.149 137.059 268.64 138.936H264.704C264.384 138.061 263.872 137.379 263.168 136.888C262.464 136.397 261.578 136.152 260.512 136.152C259.018 136.152 257.824 136.685 256.928 137.752C256.053 138.797 255.616 140.269 255.616 142.168C255.616 144.067 256.053 145.549 256.928 146.616C257.824 147.683 259.018 148.216 260.512 148.216C262.624 148.216 264.021 147.288 264.704 145.432H268.64C268.128 147.224 267.168 148.653 265.76 149.72C264.352 150.765 262.602 151.288 260.512 151.288C258.826 151.288 257.333 150.915 256.032 150.168C254.73 149.4 253.706 148.333 252.96 146.968C252.234 145.581 251.872 143.981 251.872 142.168ZM281.395 133.08C282.739 133.08 283.934 133.368 284.979 133.944C286.046 134.52 286.878 135.373 287.475 136.504C288.094 137.635 288.403 139 288.403 140.6V151H284.787V141.144C284.787 139.565 284.392 138.36 283.603 137.528C282.814 136.675 281.736 136.248 280.371 136.248C279.006 136.248 277.918 136.675 277.107 137.528C276.318 138.36 275.923 139.565 275.923 141.144V151H272.275V127.32H275.923V135.416C276.542 134.669 277.32 134.093 278.259 133.688C279.219 133.283 280.264 133.08 281.395 133.08ZM309.216 141.752C309.216 142.413 309.174 143.011 309.088 143.544H295.616C295.723 144.952 296.246 146.083 297.184 146.936C298.123 147.789 299.275 148.216 300.64 148.216C302.603 148.216 303.99 147.395 304.8 145.752H308.736C308.203 147.373 307.232 148.707 305.824 149.752C304.438 150.776 302.71 151.288 300.64 151.288C298.955 151.288 297.44 150.915 296.096 150.168C294.774 149.4 293.728 148.333 292.96 146.968C292.214 145.581 291.84 143.981 291.84 142.168C291.84 140.355 292.203 138.765 292.928 137.4C293.675 136.013 294.71 134.947 296.032 134.2C297.376 133.453 298.912 133.08 300.64 133.08C302.304 133.08 303.787 133.443 305.088 134.168C306.39 134.893 307.403 135.917 308.128 137.24C308.854 138.541 309.216 140.045 309.216 141.752ZM305.408 140.6C305.387 139.256 304.907 138.179 303.968 137.368C303.03 136.557 301.867 136.152 300.48 136.152C299.222 136.152 298.144 136.557 297.248 137.368C296.352 138.157 295.819 139.235 295.648 140.6H305.408ZM311.59 142.168C311.59 140.355 311.953 138.765 312.678 137.4C313.425 136.013 314.449 134.947 315.75 134.2C317.052 133.453 318.545 133.08 320.23 133.08C322.364 133.08 324.124 133.592 325.51 134.616C326.918 135.619 327.868 137.059 328.358 138.936H324.422C324.102 138.061 323.59 137.379 322.886 136.888C322.182 136.397 321.297 136.152 320.23 136.152C318.737 136.152 317.542 136.685 316.646 137.752C315.772 138.797 315.334 140.269 315.334 142.168C315.334 144.067 315.772 145.549 316.646 146.616C317.542 147.683 318.737 148.216 320.23 148.216C322.342 148.216 323.74 147.288 324.422 145.432H328.358C327.846 147.224 326.886 148.653 325.478 149.72C324.07 150.765 322.321 151.288 320.23 151.288C318.545 151.288 317.052 150.915 315.75 150.168C314.449 149.4 313.425 148.333 312.678 146.968C311.953 145.581 311.59 143.981 311.59 142.168ZM338.97 142.2L347.098 151H342.17L335.642 143.416V151H331.994V127.32H335.642V141.08L342.042 133.368H347.098L338.97 142.2ZM356.809 142.104C356.809 140.333 357.172 138.765 357.897 137.4C358.644 136.035 359.646 134.979 360.905 134.232C362.185 133.464 363.593 133.08 365.129 133.08C366.516 133.08 367.721 133.357 368.745 133.912C369.79 134.445 370.622 135.117 371.241 135.928V133.368H374.921V151H371.241V148.376C370.622 149.208 369.78 149.901 368.713 150.456C367.646 151.011 366.43 151.288 365.065 151.288C363.55 151.288 362.164 150.904 360.905 150.136C359.646 149.347 358.644 148.259 357.897 146.872C357.172 145.464 356.809 143.875 356.809 142.104ZM371.241 142.168C371.241 140.952 370.985 139.896 370.473 139C369.982 138.104 369.332 137.421 368.521 136.952C367.71 136.483 366.836 136.248 365.897 136.248C364.958 136.248 364.084 136.483 363.273 136.952C362.462 137.4 361.801 138.072 361.289 138.968C360.798 139.843 360.553 140.888 360.553 142.104C360.553 143.32 360.798 144.387 361.289 145.304C361.801 146.221 362.462 146.925 363.273 147.416C364.105 147.885 364.98 148.12 365.897 148.12C366.836 148.12 367.71 147.885 368.521 147.416C369.332 146.947 369.982 146.264 370.473 145.368C370.985 144.451 371.241 143.384 371.241 142.168ZM386.529 147.736L391.521 133.368H395.392L388.673 151H384.321L377.633 133.368H381.536L386.529 147.736ZM396.934 142.104C396.934 140.333 397.297 138.765 398.022 137.4C398.769 136.035 399.771 134.979 401.03 134.232C402.31 133.464 403.718 133.08 405.254 133.08C406.641 133.08 407.846 133.357 408.87 133.912C409.915 134.445 410.747 135.117 411.366 135.928V133.368H415.046V151H411.366V148.376C410.747 149.208 409.905 149.901 408.838 150.456C407.771 151.011 406.555 151.288 405.19 151.288C403.675 151.288 402.289 150.904 401.03 150.136C399.771 149.347 398.769 148.259 398.022 146.872C397.297 145.464 396.934 143.875 396.934 142.104ZM411.366 142.168C411.366 140.952 411.11 139.896 410.598 139C410.107 138.104 409.457 137.421 408.646 136.952C407.835 136.483 406.961 136.248 406.022 136.248C405.083 136.248 404.209 136.483 403.398 136.952C402.587 137.4 401.926 138.072 401.414 138.968C400.923 139.843 400.678 140.888 400.678 142.104C400.678 143.32 400.923 144.387 401.414 145.304C401.926 146.221 402.587 146.925 403.398 147.416C404.23 147.885 405.105 148.12 406.022 148.12C406.961 148.12 407.835 147.885 408.646 147.416C409.457 146.947 410.107 146.264 410.598 145.368C411.11 144.451 411.366 143.384 411.366 142.168ZM421.694 131.032C421.032 131.032 420.478 130.808 420.03 130.36C419.582 129.912 419.358 129.357 419.358 128.696C419.358 128.035 419.582 127.48 420.03 127.032C420.478 126.584 421.032 126.36 421.694 126.36C422.334 126.36 422.878 126.584 423.326 127.032C423.774 127.48 423.998 128.035 423.998 128.696C423.998 129.357 423.774 129.912 423.326 130.36C422.878 130.808 422.334 131.032 421.694 131.032ZM423.486 133.368V151H419.838V133.368H423.486ZM431.923 127.32V151H428.275V127.32H431.923ZM435.497 142.104C435.497 140.333 435.859 138.765 436.585 137.4C437.331 136.035 438.334 134.979 439.593 134.232C440.873 133.464 442.281 133.08 443.817 133.08C445.203 133.08 446.409 133.357 447.433 133.912C448.478 134.445 449.31 135.117 449.929 135.928V133.368H453.609V151H449.929V148.376C449.31 149.208 448.467 149.901 447.401 150.456C446.334 151.011 445.118 151.288 443.753 151.288C442.238 151.288 440.851 150.904 439.593 150.136C438.334 149.347 437.331 148.259 436.585 146.872C435.859 145.464 435.497 143.875 435.497 142.104ZM449.929 142.168C449.929 140.952 449.673 139.896 449.161 139C448.67 138.104 448.019 137.421 447.209 136.952C446.398 136.483 445.523 136.248 444.585 136.248C443.646 136.248 442.771 136.483 441.961 136.952C441.15 137.4 440.489 138.072 439.977 138.968C439.486 139.843 439.241 140.888 439.241 142.104C439.241 143.32 439.486 144.387 439.977 145.304C440.489 146.221 441.15 146.925 441.961 147.416C442.793 147.885 443.667 148.12 444.585 148.12C445.523 148.12 446.398 147.885 447.209 147.416C448.019 146.947 448.67 146.264 449.161 145.368C449.673 144.451 449.929 143.384 449.929 142.168ZM462.048 135.992C462.667 135.139 463.509 134.445 464.576 133.912C465.664 133.357 466.869 133.08 468.192 133.08C469.749 133.08 471.157 133.453 472.416 134.2C473.675 134.947 474.667 136.013 475.392 137.4C476.117 138.765 476.48 140.333 476.48 142.104C476.48 143.875 476.117 145.464 475.392 146.872C474.667 148.259 473.664 149.347 472.384 150.136C471.125 150.904 469.728 151.288 468.192 151.288C466.827 151.288 465.611 151.021 464.544 150.488C463.499 149.955 462.667 149.272 462.048 148.44V151H458.4V127.32H462.048V135.992ZM472.768 142.104C472.768 140.888 472.512 139.843 472 138.968C471.509 138.072 470.848 137.4 470.016 136.952C469.205 136.483 468.331 136.248 467.392 136.248C466.475 136.248 465.6 136.483 464.768 136.952C463.957 137.421 463.296 138.104 462.784 139C462.293 139.896 462.048 140.952 462.048 142.168C462.048 143.384 462.293 144.451 462.784 145.368C463.296 146.264 463.957 146.947 464.768 147.416C465.6 147.885 466.475 148.12 467.392 148.12C468.331 148.12 469.205 147.885 470.016 147.416C470.848 146.925 471.509 146.221 472 145.304C472.512 144.387 472.768 143.32 472.768 142.104ZM481.944 131.032C481.282 131.032 480.728 130.808 480.28 130.36C479.832 129.912 479.608 129.357 479.608 128.696C479.608 128.035 479.832 127.48 480.28 127.032C480.728 126.584 481.282 126.36 481.944 126.36C482.584 126.36 483.128 126.584 483.576 127.032C484.024 127.48 484.248 128.035 484.248 128.696C484.248 129.357 484.024 129.912 483.576 130.36C483.128 130.808 482.584 131.032 481.944 131.032ZM483.736 133.368V151H480.088V133.368H483.736ZM492.173 127.32V151H488.525V127.32H492.173ZM498.819 131.032C498.157 131.032 497.603 130.808 497.155 130.36C496.707 129.912 496.483 129.357 496.483 128.696C496.483 128.035 496.707 127.48 497.155 127.032C497.603 126.584 498.157 126.36 498.819 126.36C499.459 126.36 500.003 126.584 500.451 127.032C500.899 127.48 501.123 128.035 501.123 128.696C501.123 129.357 500.899 129.912 500.451 130.36C500.003 130.808 499.459 131.032 498.819 131.032ZM500.611 133.368V151H496.963V133.368H500.611ZM509.656 136.344V146.104C509.656 146.765 509.805 147.245 510.104 147.544C510.424 147.821 510.957 147.96 511.704 147.96H513.944V151H511.064C509.421 151 508.163 150.616 507.288 149.848C506.413 149.08 505.976 147.832 505.976 146.104V136.344H503.896V133.368H505.976V128.984H509.656V133.368H513.944V136.344H509.656ZM533.178 133.368L522.362 159.288H518.586L522.17 150.712L515.226 133.368H519.29L524.25 146.808L529.402 133.368H533.178ZM539.931 146.616L536.059 155.448H533.691L535.963 146.616H539.931ZM550.215 142.104C550.215 140.333 550.578 138.765 551.303 137.4C552.05 136.035 553.053 134.979 554.311 134.232C555.591 133.464 556.999 133.08 558.535 133.08C559.922 133.08 561.127 133.357 562.151 133.912C563.197 134.445 564.029 135.117 564.647 135.928V133.368H568.327V151H564.647V148.376C564.029 149.208 563.186 149.901 562.119 150.456C561.053 151.011 559.837 151.288 558.471 151.288C556.957 151.288 555.57 150.904 554.311 150.136C553.053 149.347 552.05 148.259 551.303 146.872C550.578 145.464 550.215 143.875 550.215 142.104ZM564.647 142.168C564.647 140.952 564.391 139.896 563.879 139C563.389 138.104 562.738 137.421 561.927 136.952C561.117 136.483 560.242 136.248 559.303 136.248C558.365 136.248 557.49 136.483 556.679 136.952C555.869 137.4 555.207 138.072 554.695 138.968C554.205 139.843 553.959 140.888 553.959 142.104C553.959 143.32 554.205 144.387 554.695 145.304C555.207 146.221 555.869 146.925 556.679 147.416C557.511 147.885 558.386 148.12 559.303 148.12C560.242 148.12 561.117 147.885 561.927 147.416C562.738 146.947 563.389 146.264 563.879 145.368C564.391 144.451 564.647 143.384 564.647 142.168ZM582.015 133.08C583.401 133.08 584.639 133.368 585.727 133.944C586.836 134.52 587.7 135.373 588.319 136.504C588.937 137.635 589.247 139 589.247 140.6V151H585.631V141.144C585.631 139.565 585.236 138.36 584.447 137.528C583.657 136.675 582.58 136.248 581.215 136.248C579.849 136.248 578.761 136.675 577.951 137.528C577.161 138.36 576.767 139.565 576.767 141.144V151H573.119V133.368H576.767V135.384C577.364 134.659 578.121 134.093 579.039 133.688C579.977 133.283 580.969 133.08 582.015 133.08ZM592.684 142.104C592.684 140.333 593.047 138.765 593.772 137.4C594.519 136.035 595.521 134.979 596.78 134.232C598.06 133.464 599.479 133.08 601.036 133.08C602.188 133.08 603.319 133.336 604.428 133.848C605.559 134.339 606.455 135 607.116 135.832V127.32H610.796V151H607.116V148.344C606.519 149.197 605.687 149.901 604.62 150.456C603.575 151.011 602.369 151.288 601.004 151.288C599.468 151.288 598.06 150.904 596.78 150.136C595.521 149.347 594.519 148.259 593.772 146.872C593.047 145.464 592.684 143.875 592.684 142.104ZM607.116 142.168C607.116 140.952 606.86 139.896 606.348 139C605.857 138.104 605.207 137.421 604.396 136.952C603.585 136.483 602.711 136.248 601.772 136.248C600.833 136.248 599.959 136.483 599.148 136.952C598.337 137.4 597.676 138.072 597.164 138.968C596.673 139.843 596.428 140.888 596.428 142.104C596.428 143.32 596.673 144.387 597.164 145.304C597.676 146.221 598.337 146.925 599.148 147.416C599.98 147.885 600.855 148.12 601.772 148.12C602.711 148.12 603.585 147.885 604.396 147.416C605.207 146.947 605.857 146.264 606.348 145.368C606.86 144.451 607.116 143.384 607.116 142.168ZM627.548 135.928C628.081 135.032 628.785 134.339 629.66 133.848C630.556 133.336 631.612 133.08 632.828 133.08V136.856H631.9C630.471 136.856 629.383 137.219 628.636 137.944C627.911 138.669 627.548 139.928 627.548 141.72V151H623.9V133.368H627.548V135.928ZM652.341 141.752C652.341 142.413 652.299 143.011 652.213 143.544H638.741C638.848 144.952 639.371 146.083 640.309 146.936C641.248 147.789 642.4 148.216 643.765 148.216C645.728 148.216 647.115 147.395 647.925 145.752H651.861C651.328 147.373 650.357 148.707 648.949 149.752C647.563 150.776 645.835 151.288 643.765 151.288C642.08 151.288 640.565 150.915 639.221 150.168C637.899 149.4 636.853 148.333 636.085 146.968C635.339 145.581 634.965 143.981 634.965 142.168C634.965 140.355 635.328 138.765 636.053 137.4C636.8 136.013 637.835 134.947 639.157 134.2C640.501 133.453 642.037 133.08 643.765 133.08C645.429 133.08 646.912 133.443 648.213 134.168C649.515 134.893 650.528 135.917 651.253 137.24C651.979 138.541 652.341 140.045 652.341 141.752ZM648.533 140.6C648.512 139.256 648.032 138.179 647.093 137.368C646.155 136.557 644.992 136.152 643.605 136.152C642.347 136.152 641.269 136.557 640.373 137.368C639.477 138.157 638.944 139.235 638.773 140.6H648.533ZM654.715 142.104C654.715 140.333 655.078 138.765 655.803 137.4C656.55 136.035 657.553 134.979 658.811 134.232C660.091 133.464 661.51 133.08 663.067 133.08C664.433 133.08 665.638 133.357 666.683 133.912C667.75 134.467 668.571 135.139 669.147 135.928V133.368H672.827V159.384H669.147V148.44C668.571 149.229 667.739 149.901 666.651 150.456C665.563 151.011 664.326 151.288 662.939 151.288C661.425 151.288 660.038 150.904 658.779 150.136C657.542 149.347 656.55 148.259 655.803 146.872C655.078 145.464 654.715 143.875 654.715 142.104ZM669.147 142.168C669.147 140.952 668.891 139.896 668.379 139C667.889 138.104 667.238 137.421 666.427 136.952C665.617 136.483 664.742 136.248 663.803 136.248C662.865 136.248 661.99 136.483 661.179 136.952C660.369 137.4 659.707 138.072 659.195 138.968C658.705 139.843 658.459 140.888 658.459 142.104C658.459 143.32 658.705 144.387 659.195 145.304C659.707 146.221 660.369 146.925 661.179 147.416C662.011 147.885 662.886 148.12 663.803 148.12C664.742 148.12 665.617 147.885 666.427 147.416C667.238 146.947 667.889 146.264 668.379 145.368C668.891 144.451 669.147 143.384 669.147 142.168ZM693.587 133.368V151H689.939V148.92C689.363 149.645 688.605 150.221 687.667 150.648C686.749 151.053 685.768 151.256 684.723 151.256C683.336 151.256 682.088 150.968 680.979 150.392C679.891 149.816 679.027 148.963 678.387 147.832C677.768 146.701 677.459 145.336 677.459 143.736V133.368H681.075V143.192C681.075 144.771 681.469 145.987 682.259 146.84C683.048 147.672 684.125 148.088 685.491 148.088C686.856 148.088 687.933 147.672 688.723 146.84C689.533 145.987 689.939 144.771 689.939 143.192V133.368H693.587ZM714.56 141.752C714.56 142.413 714.517 143.011 714.432 143.544H700.96C701.067 144.952 701.589 146.083 702.528 146.936C703.467 147.789 704.619 148.216 705.984 148.216C707.947 148.216 709.333 147.395 710.144 145.752H714.08C713.547 147.373 712.576 148.707 711.168 149.752C709.781 150.776 708.053 151.288 705.984 151.288C704.299 151.288 702.784 150.915 701.44 150.168C700.117 149.4 699.072 148.333 698.304 146.968C697.557 145.581 697.184 143.981 697.184 142.168C697.184 140.355 697.547 138.765 698.272 137.4C699.019 136.013 700.053 134.947 701.376 134.2C702.72 133.453 704.256 133.08 705.984 133.08C707.648 133.08 709.131 133.443 710.432 134.168C711.733 134.893 712.747 135.917 713.472 137.24C714.197 138.541 714.56 140.045 714.56 141.752ZM710.752 140.6C710.731 139.256 710.251 138.179 709.312 137.368C708.373 136.557 707.211 136.152 705.824 136.152C704.565 136.152 703.488 136.557 702.592 137.368C701.696 138.157 701.163 139.235 700.992 140.6H710.752ZM724.55 151.288C723.163 151.288 721.915 151.043 720.806 150.552C719.718 150.04 718.854 149.357 718.214 148.504C717.574 147.629 717.233 146.659 717.19 145.592H720.966C721.03 146.339 721.382 146.968 722.022 147.48C722.683 147.971 723.505 148.216 724.486 148.216C725.51 148.216 726.299 148.024 726.854 147.64C727.43 147.235 727.718 146.723 727.718 146.104C727.718 145.443 727.398 144.952 726.758 144.632C726.139 144.312 725.147 143.96 723.782 143.576C722.459 143.213 721.382 142.861 720.55 142.52C719.718 142.179 718.993 141.656 718.374 140.952C717.777 140.248 717.478 139.32 717.478 138.168C717.478 137.229 717.755 136.376 718.31 135.608C718.865 134.819 719.654 134.2 720.678 133.752C721.723 133.304 722.918 133.08 724.262 133.08C726.267 133.08 727.878 133.592 729.094 134.616C730.331 135.619 730.993 136.995 731.078 138.744H727.43C727.366 137.955 727.046 137.325 726.47 136.856C725.894 136.387 725.115 136.152 724.134 136.152C723.174 136.152 722.438 136.333 721.926 136.696C721.414 137.059 721.158 137.539 721.158 138.136C721.158 138.605 721.329 139 721.67 139.32C722.011 139.64 722.427 139.896 722.918 140.088C723.409 140.259 724.134 140.483 725.094 140.76C726.374 141.101 727.419 141.453 728.23 141.816C729.062 142.157 729.777 142.669 730.374 143.352C730.971 144.035 731.281 144.941 731.302 146.072C731.302 147.075 731.025 147.971 730.47 148.76C729.915 149.549 729.126 150.168 728.102 150.616C727.099 151.064 725.915 151.288 724.55 151.288ZM739.5 136.344V146.104C739.5 146.765 739.649 147.245 739.948 147.544C740.268 147.821 740.801 147.96 741.548 147.96H743.788V151H740.908C739.265 151 738.006 150.616 737.132 149.848C736.257 149.08 735.82 147.832 735.82 146.104V136.344H733.74V133.368H735.82V128.984H739.5V133.368H743.788V136.344H739.5ZM754.247 142.104C754.247 140.333 754.609 138.765 755.335 137.4C756.081 136.035 757.084 134.979 758.343 134.232C759.623 133.464 761.031 133.08 762.567 133.08C763.953 133.08 765.159 133.357 766.183 133.912C767.228 134.445 768.06 135.117 768.679 135.928V133.368H772.359V151H768.679V148.376C768.06 149.208 767.217 149.901 766.151 150.456C765.084 151.011 763.868 151.288 762.503 151.288C760.988 151.288 759.601 150.904 758.343 150.136C757.084 149.347 756.081 148.259 755.335 146.872C754.609 145.464 754.247 143.875 754.247 142.104ZM768.679 142.168C768.679 140.952 768.423 139.896 767.911 139C767.42 138.104 766.769 137.421 765.959 136.952C765.148 136.483 764.273 136.248 763.335 136.248C762.396 136.248 761.521 136.483 760.711 136.952C759.9 137.4 759.239 138.072 758.727 138.968C758.236 139.843 757.991 140.888 757.991 142.104C757.991 143.32 758.236 144.387 758.727 145.304C759.239 146.221 759.9 146.925 760.711 147.416C761.543 147.885 762.417 148.12 763.335 148.12C764.273 148.12 765.148 147.885 765.959 147.416C766.769 146.947 767.42 146.264 767.911 145.368C768.423 144.451 768.679 143.384 768.679 142.168ZM791.863 151.288C790.476 151.288 789.228 151.043 788.119 150.552C787.031 150.04 786.167 149.357 785.527 148.504C784.887 147.629 784.545 146.659 784.503 145.592H788.279C788.343 146.339 788.695 146.968 789.335 147.48C789.996 147.971 790.817 148.216 791.799 148.216C792.823 148.216 793.612 148.024 794.167 147.64C794.743 147.235 795.031 146.723 795.031 146.104C795.031 145.443 794.711 144.952 794.071 144.632C793.452 144.312 792.46 143.96 791.095 143.576C789.772 143.213 788.695 142.861 787.863 142.52C787.031 142.179 786.305 141.656 785.687 140.952C785.089 140.248 784.791 139.32 784.791 138.168C784.791 137.229 785.068 136.376 785.623 135.608C786.177 134.819 786.967 134.2 787.991 133.752C789.036 133.304 790.231 133.08 791.575 133.08C793.58 133.08 795.191 133.592 796.407 134.616C797.644 135.619 798.305 136.995 798.391 138.744H794.743C794.679 137.955 794.359 137.325 793.783 136.856C793.207 136.387 792.428 136.152 791.447 136.152C790.487 136.152 789.751 136.333 789.239 136.696C788.727 137.059 788.471 137.539 788.471 138.136C788.471 138.605 788.641 139 788.983 139.32C789.324 139.64 789.74 139.896 790.231 140.088C790.721 140.259 791.447 140.483 792.407 140.76C793.687 141.101 794.732 141.453 795.543 141.816C796.375 142.157 797.089 142.669 797.687 143.352C798.284 144.035 798.593 144.941 798.615 146.072C798.615 147.075 798.337 147.971 797.783 148.76C797.228 149.549 796.439 150.168 795.415 150.616C794.412 151.064 793.228 151.288 791.863 151.288ZM806.204 127.32V151H802.556V127.32H806.204ZM818.642 151.288C816.978 151.288 815.474 150.915 814.13 150.168C812.786 149.4 811.73 148.333 810.962 146.968C810.194 145.581 809.81 143.981 809.81 142.168C809.81 140.376 810.204 138.787 810.994 137.4C811.783 136.013 812.86 134.947 814.226 134.2C815.591 133.453 817.116 133.08 818.802 133.08C820.487 133.08 822.012 133.453 823.378 134.2C824.743 134.947 825.82 136.013 826.61 137.4C827.399 138.787 827.794 140.376 827.794 142.168C827.794 143.96 827.388 145.549 826.578 146.936C825.767 148.323 824.658 149.4 823.25 150.168C821.863 150.915 820.327 151.288 818.642 151.288ZM818.642 148.12C819.58 148.12 820.455 147.896 821.266 147.448C822.098 147 822.77 146.328 823.282 145.432C823.794 144.536 824.05 143.448 824.05 142.168C824.05 140.888 823.804 139.811 823.314 138.936C822.823 138.04 822.172 137.368 821.362 136.92C820.551 136.472 819.676 136.248 818.738 136.248C817.799 136.248 816.924 136.472 816.114 136.92C815.324 137.368 814.695 138.04 814.226 138.936C813.756 139.811 813.522 140.888 813.522 142.168C813.522 144.067 814.002 145.539 814.962 146.584C815.943 147.608 817.17 148.12 818.642 148.12ZM835.656 136.344V146.104C835.656 146.765 835.805 147.245 836.104 147.544C836.424 147.821 836.957 147.96 837.704 147.96H839.944V151H837.064C835.421 151 834.163 150.616 833.288 149.848C832.413 149.08 831.976 147.832 831.976 146.104V136.344H829.896V133.368H831.976V128.984H835.656V133.368H839.944V136.344H835.656ZM853.475 131.032C852.813 131.032 852.259 130.808 851.811 130.36C851.363 129.912 851.139 129.357 851.139 128.696C851.139 128.035 851.363 127.48 851.811 127.032C852.259 126.584 852.813 126.36 853.475 126.36C854.115 126.36 854.659 126.584 855.107 127.032C855.555 127.48 855.779 128.035 855.779 128.696C855.779 129.357 855.555 129.912 855.107 130.36C854.659 130.808 854.115 131.032 853.475 131.032ZM855.267 133.368V151H851.619V133.368H855.267ZM868.952 133.08C870.339 133.08 871.576 133.368 872.664 133.944C873.774 134.52 874.638 135.373 875.256 136.504C875.875 137.635 876.184 139 876.184 140.6V151H872.568V141.144C872.568 139.565 872.174 138.36 871.384 137.528C870.595 136.675 869.518 136.248 868.152 136.248C866.787 136.248 865.699 136.675 864.888 137.528C864.099 138.36 863.704 139.565 863.704 141.144V151H860.056V133.368H863.704V135.384C864.302 134.659 865.059 134.093 865.976 133.688C866.915 133.283 867.907 133.08 868.952 133.08ZM887.238 151.288C885.851 151.288 884.603 151.043 883.494 150.552C882.406 150.04 881.542 149.357 880.902 148.504C880.262 147.629 879.92 146.659 879.878 145.592H883.654C883.718 146.339 884.07 146.968 884.71 147.48C885.371 147.971 886.192 148.216 887.174 148.216C888.198 148.216 888.987 148.024 889.542 147.64C890.118 147.235 890.406 146.723 890.406 146.104C890.406 145.443 890.086 144.952 889.446 144.632C888.827 144.312 887.835 143.96 886.47 143.576C885.147 143.213 884.07 142.861 883.238 142.52C882.406 142.179 881.68 141.656 881.062 140.952C880.464 140.248 880.166 139.32 880.166 138.168C880.166 137.229 880.443 136.376 880.998 135.608C881.552 134.819 882.342 134.2 883.366 133.752C884.411 133.304 885.606 133.08 886.95 133.08C888.955 133.08 890.566 133.592 891.782 134.616C893.019 135.619 893.68 136.995 893.766 138.744H890.118C890.054 137.955 889.734 137.325 889.158 136.856C888.582 136.387 887.803 136.152 886.822 136.152C885.862 136.152 885.126 136.333 884.614 136.696C884.102 137.059 883.846 137.539 883.846 138.136C883.846 138.605 884.016 139 884.358 139.32C884.699 139.64 885.115 139.896 885.606 140.088C886.096 140.259 886.822 140.483 887.782 140.76C889.062 141.101 890.107 141.453 890.918 141.816C891.75 142.157 892.464 142.669 893.062 143.352C893.659 144.035 893.968 144.941 893.99 146.072C893.99 147.075 893.712 147.971 893.158 148.76C892.603 149.549 891.814 150.168 890.79 150.616C889.787 151.064 888.603 151.288 887.238 151.288ZM902.187 136.344V146.104C902.187 146.765 902.337 147.245 902.635 147.544C902.955 147.821 903.489 147.96 904.235 147.96H906.475V151H903.595C901.953 151 900.694 150.616 899.819 149.848C898.945 149.08 898.507 147.832 898.507 146.104V136.344H896.427V133.368H898.507V128.984H902.187V133.368H906.475V136.344H902.187ZM908.622 142.104C908.622 140.333 908.984 138.765 909.71 137.4C910.456 136.035 911.459 134.979 912.718 134.232C913.998 133.464 915.406 133.08 916.942 133.08C918.328 133.08 919.534 133.357 920.558 133.912C921.603 134.445 922.435 135.117 923.054 135.928V133.368H926.734V151H923.054V148.376C922.435 149.208 921.592 149.901 920.526 150.456C919.459 151.011 918.243 151.288 916.878 151.288C915.363 151.288 913.976 150.904 912.718 150.136C911.459 149.347 910.456 148.259 909.71 146.872C908.984 145.464 908.622 143.875 908.622 142.104ZM923.054 142.168C923.054 140.952 922.798 139.896 922.286 139C921.795 138.104 921.144 137.421 920.334 136.952C919.523 136.483 918.648 136.248 917.71 136.248C916.771 136.248 915.896 136.483 915.086 136.952C914.275 137.4 913.614 138.072 913.102 138.968C912.611 139.843 912.366 140.888 912.366 142.104C912.366 143.32 912.611 144.387 913.102 145.304C913.614 146.221 914.275 146.925 915.086 147.416C915.918 147.885 916.792 148.12 917.71 148.12C918.648 148.12 919.523 147.885 920.334 147.416C921.144 146.947 921.795 146.264 922.286 145.368C922.798 144.451 923.054 143.384 923.054 142.168ZM940.421 133.08C941.808 133.08 943.045 133.368 944.133 133.944C945.242 134.52 946.106 135.373 946.725 136.504C947.344 137.635 947.653 139 947.653 140.6V151H944.037V141.144C944.037 139.565 943.642 138.36 942.853 137.528C942.064 136.675 940.986 136.248 939.621 136.248C938.256 136.248 937.168 136.675 936.357 137.528C935.568 138.36 935.173 139.565 935.173 141.144V151H931.525V133.368H935.173V135.384C935.77 134.659 936.528 134.093 937.445 133.688C938.384 133.283 939.376 133.08 940.421 133.08ZM956.562 136.344V146.104C956.562 146.765 956.712 147.245 957.01 147.544C957.33 147.821 957.864 147.96 958.61 147.96H960.85V151H957.97C956.328 151 955.069 150.616 954.194 149.848C953.32 149.08 952.882 147.832 952.882 146.104V136.344H950.802V133.368H952.882V128.984H956.562V133.368H960.85V136.344H956.562ZM967.861 127.32V151H964.213V127.32H967.861ZM988.522 133.368L977.706 159.288H973.93L977.514 150.712L970.57 133.368H974.634L979.594 146.808L984.746 133.368H988.522ZM992.747 151.224C992.086 151.224 991.531 151 991.083 150.552C990.635 150.104 990.411 149.549 990.411 148.888C990.411 148.227 990.635 147.672 991.083 147.224C991.531 146.776 992.086 146.552 992.747 146.552C993.387 146.552 993.931 146.776 994.379 147.224C994.827 147.672 995.051 148.227 995.051 148.888C995.051 149.549 994.827 150.104 994.379 150.552C993.931 151 993.387 151.224 992.747 151.224Z" fill="white"/>
</svg>
