<svg width="217" height="122" viewBox="0 0 217 122" fill="none" xmlns="http://www.w3.org/2000/svg">
<g filter="url(#filter0_d_321_5436)">
<rect x="32" width="153" height="56" rx="28" fill="#2563EB"/>
</g>
<path d="M89.0276 34V25.04H90.4996V32.6304H95.1716V34H89.0276ZM100.078 34.2048C99.2673 34.2048 98.542 34.0128 97.902 33.6288C97.2705 33.2448 96.7756 32.7029 96.4172 32.0032C96.0588 31.2949 95.8796 30.4672 95.8796 29.52C95.8796 28.5643 96.0588 27.7365 96.4172 27.0368C96.7756 26.3285 97.2705 25.7824 97.902 25.3984C98.542 25.0059 99.2673 24.8096 100.078 24.8096C100.889 24.8096 101.605 25.0059 102.228 25.3984C102.86 25.7824 103.355 26.3285 103.713 27.0368C104.08 27.7365 104.264 28.5643 104.264 29.52C104.264 30.4672 104.08 31.2949 103.713 32.0032C103.355 32.7029 102.86 33.2448 102.228 33.6288C101.605 34.0128 100.889 34.2048 100.078 34.2048ZM100.078 32.7712C100.616 32.7712 101.081 32.6389 101.473 32.3744C101.866 32.1013 102.169 31.7216 102.382 31.2352C102.604 30.7403 102.715 30.1685 102.715 29.52C102.715 28.8629 102.604 28.2912 102.382 27.8048C102.169 27.3099 101.866 26.9301 101.473 26.6656C101.081 26.3925 100.616 26.256 100.078 26.256C99.5489 26.256 99.0838 26.3925 98.6828 26.6656C98.2817 26.9301 97.9702 27.3099 97.7484 27.8048C97.535 28.2912 97.4284 28.8629 97.4284 29.52C97.4284 30.1685 97.535 30.7403 97.7484 31.2352C97.9702 31.7216 98.2817 32.1013 98.6828 32.3744C99.0838 32.6389 99.5489 32.7712 100.078 32.7712ZM109.09 34.2048C108.279 34.2048 107.558 34.0128 106.926 33.6288C106.303 33.2448 105.813 32.7029 105.454 32.0032C105.104 31.2949 104.93 30.4672 104.93 29.52C104.93 28.5643 105.104 27.7365 105.454 27.0368C105.813 26.3285 106.303 25.7824 106.926 25.3984C107.558 25.0059 108.279 24.8096 109.09 24.8096C109.755 24.8096 110.365 24.9291 110.92 25.168C111.483 25.3984 111.948 25.6971 112.315 26.064L111.381 27.216C111.125 26.9344 110.792 26.704 110.382 26.5248C109.981 26.3456 109.55 26.256 109.09 26.256C108.552 26.256 108.087 26.3925 107.694 26.6656C107.31 26.9387 107.012 27.3227 106.798 27.8176C106.585 28.304 106.478 28.8715 106.478 29.52C106.478 30.16 106.585 30.7275 106.798 31.2224C107.012 31.7088 107.31 32.0885 107.694 32.3616C108.087 32.6347 108.552 32.7712 109.09 32.7712C109.491 32.7712 109.823 32.7328 110.088 32.656C110.361 32.5707 110.6 32.4683 110.805 32.3488V30.4288H109.333V29.0464H112.302V33.3216C111.91 33.5947 111.432 33.8123 110.869 33.9744C110.314 34.128 109.721 34.2048 109.09 34.2048ZM117.503 34V25.04H118.975V34H117.503ZM120.79 34V25.04H122.262L126.486 31.4016V25.04H127.984V34H126.563L122.262 27.4592V34H120.79Z" fill="white"/>
<defs>
<filter id="filter0_d_321_5436" x="0" y="0" width="217" height="122" filterUnits="userSpaceOnUse" color-interpolation-filters="sRGB">
<feFlood flood-opacity="0" result="BackgroundImageFix"/>
<feColorMatrix in="SourceAlpha" type="matrix" values="0 0 0 0 0 0 0 0 0 0 0 0 0 0 0 0 0 0 127 0" result="hardAlpha"/>
<feMorphology radius="8" operator="erode" in="SourceAlpha" result="effect1_dropShadow_321_5436"/>
<feOffset dy="34"/>
<feGaussianBlur stdDeviation="20"/>
<feColorMatrix type="matrix" values="0 0 0 0 0.482353 0 0 0 0 0.462745 0 0 0 0 0.945098 0 0 0 0.239216 0"/>
<feBlend mode="normal" in2="BackgroundImageFix" result="effect1_dropShadow_321_5436"/>
<feBlend mode="normal" in="SourceGraphic" in2="effect1_dropShadow_321_5436" result="shape"/>
</filter>
</defs>
</svg>
